<svg xmlns="http://www.w3.org/2000/svg" xmlns:xlink="http://www.w3.org/1999/xlink" contentStyleType="text/css" data-diagram-type="STATE" height="1174px" preserveAspectRatio="none" style="width:1066px;height:1174px;background:#FFFFFF;" version="1.1" viewBox="0 0 1066 1174" width="1066px" zoomAndPan="magnify"><title>Asignar Máquina a Plaza</title><defs/><g><g class="title" data-source-line="1"><text fill="#000000" font-family="sans-serif" font-size="14" font-weight="bold" lengthAdjust="spacing" textLength="194.0586" x="429.4319" y="32.9951">Asignar Máquina a Plaza</text></g><g id="MAQUINAS_ABIERTO_INICIAL"><rect fill="#F1F1F1" height="76.2969" rx="12.5" ry="12.5" style="stroke:#181818;stroke-width:0.5;" width="184.4434" x="449" y="183.2969"/><line style="stroke:#181818;stroke-width:0.5;" x1="449" x2="633.4434" y1="229.5938" y2="229.5938"/><text fill="#000000" font-family="sans-serif" font-size="14" lengthAdjust="spacing" textLength="144.4434" x="469" y="211.292">MAQUINAS_ABIERTO</text></g><path d="M252.5,359.2969 L829.4004,359.2969 A12.5,12.5 0 0 1 841.9004,371.7969 L841.9004,405.5938 L240,405.5938 L240,371.7969 A12.5,12.5 0 0 1 252.5,359.2969" fill="#F1F1F1"/><rect fill="none" height="511.2969" rx="12.5" ry="12.5" style="stroke:#181818;stroke-width:0.5;" width="601.9004" x="240" y="359.2969"/><line style="stroke:#181818;stroke-width:0.5;" x1="240" x2="841.9004" y1="405.5938" y2="405.5938"/><text fill="#000000" font-family="sans-serif" font-size="14" lengthAdjust="spacing" textLength="155.9004" x="463" y="387.292">ASIGNACION_ABIERTA</text><g id="ASIGNACION_ABIERTA.SeleccionMaquina"><rect fill="#F1F1F1" height="76.2969" rx="12.5" ry="12.5" style="stroke:#181818;stroke-width:0.5;" width="192.8857" x="315.5" y="480.0938"/><line style="stroke:#181818;stroke-width:0.5;" x1="315.5" x2="508.3857" y1="526.3906" y2="526.3906"/><text fill="#000000" font-family="sans-serif" font-size="14" lengthAdjust="spacing" textLength="152.8857" x="335.5" y="508.0889">Selección de Máquina</text></g><g id="ASIGNACION_ABIERTA.SeleccionPlaza"><rect fill="#F1F1F1" height="76.2969" rx="12.5" ry="12.5" style="stroke:#181818;stroke-width:0.5;" width="169.9648" x="327" y="607.0938"/><line style="stroke:#181818;stroke-width:0.5;" x1="327" x2="496.9648" y1="653.3906" y2="653.3906"/><text fill="#000000" font-family="sans-serif" font-size="14" lengthAdjust="spacing" textLength="129.9648" x="347" y="635.0889">Selección de Plaza</text></g><g id="ASIGNACION_ABIERTA.ConfirmacionAsignacion"><rect fill="#F1F1F1" height="76.2969" rx="12.5" ry="12.5" style="stroke:#181818;stroke-width:0.5;" width="235.5557" x="294" y="726.5938"/><line style="stroke:#181818;stroke-width:0.5;" x1="294" x2="529.5557" y1="772.8906" y2="772.8906"/><text fill="#000000" font-family="sans-serif" font-size="14" lengthAdjust="spacing" textLength="195.5557" x="314" y="754.5889">Confirmación de Asignación</text></g><ellipse cx="412" cy="426.5938" fill="#222222" rx="10" ry="10" style="stroke:#222222;stroke-width:1;"/><ellipse cx="412" cy="849.5938" fill="none" rx="11" ry="11" style="stroke:#222222;stroke-width:1;"/><ellipse cx="412" cy="849.5938" fill="#222222" rx="6" ry="6" style="stroke:#222222;stroke-width:1;"/><g class="entity" data-entity="GMN2" data-source-line="28" data-uid="ent0003" id="entity_GMN2"><path d="M527,472.5938 L527,514.5938 L508.75,518.5938 L527,522.5938 L527,563.125 A0,0 0 0 0 527,563.125 L832.9004,563.125 A0,0 0 0 0 832.9004,563.125 L832.9004,482.5938 L822.9004,472.5938 L527,472.5938 A0,0 0 0 0 527,472.5938" fill="#FEFFDD" style="stroke:#181818;stroke-width:0.5;"/><path d="M822.9004,472.5938 L822.9004,482.5938 L832.9004,482.5938 L822.9004,472.5938" fill="#FEFFDD" style="stroke:#181818;stroke-width:0.5;"/><text fill="#000000" font-family="sans-serif" font-size="13" font-weight="bold" lengthAdjust="spacing" textLength="124.1855" x="543" y="499.6606">Sistema muestra</text><text fill="#000000" font-family="sans-serif" font-size="13" lengthAdjust="spacing" textLength="136.5825" x="671.3179" y="499.6606">las máquinas activas</text><text fill="#000000" font-family="sans-serif" font-size="13" lengthAdjust="spacing" textLength="124.668" x="543" y="514.7935">sin plaza asignada.</text><text fill="#000000" font-family="sans-serif" font-size="13" font-weight="bold" lengthAdjust="spacing" textLength="136.4175" x="543" y="529.9263">Supervisor solicita</text><text fill="#000000" font-family="sans-serif" font-size="13" lengthAdjust="spacing" textLength="73.7915" x="683.5498" y="529.9263">seleccionar</text><text fill="#000000" font-family="sans-serif" font-size="13" lengthAdjust="spacing" textLength="89.6479" x="543" y="545.0591">una máquina.</text></g><g class="entity" data-entity="GMN5" data-source-line="36" data-uid="ent0006" id="entity_GMN5"><path d="M515,599.5938 L515,641.5938 L497,645.5938 L515,649.5938 L515,690.125 A0,0 0 0 0 515,690.125 L798.582,690.125 A0,0 0 0 0 798.582,690.125 L798.582,609.5938 L788.582,599.5938 L515,599.5938 A0,0 0 0 0 515,599.5938" fill="#FEFFDD" style="stroke:#181818;stroke-width:0.5;"/><path d="M788.582,599.5938 L788.582,609.5938 L798.582,609.5938 L788.582,599.5938" fill="#FEFFDD" style="stroke:#181818;stroke-width:0.5;"/><text fill="#000000" font-family="sans-serif" font-size="13" font-weight="bold" lengthAdjust="spacing" textLength="124.1855" x="531" y="626.6606">Sistema muestra</text><text fill="#000000" font-family="sans-serif" font-size="13" lengthAdjust="spacing" textLength="114.2642" x="659.3179" y="626.6606">las plazas activas</text><text fill="#000000" font-family="sans-serif" font-size="13" lengthAdjust="spacing" textLength="77.4604" x="531" y="641.7935">disponibles.</text><text fill="#000000" font-family="sans-serif" font-size="13" font-weight="bold" lengthAdjust="spacing" textLength="136.4175" x="531" y="656.9263">Supervisor solicita</text><text fill="#000000" font-family="sans-serif" font-size="13" lengthAdjust="spacing" textLength="73.7915" x="671.5498" y="656.9263">seleccionar</text><text fill="#000000" font-family="sans-serif" font-size="13" lengthAdjust="spacing" textLength="67.3296" x="531" y="672.0591">una plaza.</text></g><g class="entity" data-entity="GMN8" data-source-line="44" data-uid="ent0009" id="entity_GMN8"><path d="M548,734.5938 L548,760.5938 L530.35,764.5938 L548,768.5938 L548,794.8594 A0,0 0 0 0 548,794.8594 L781.5879,794.8594 A0,0 0 0 0 781.5879,794.8594 L781.5879,744.5938 L771.5879,734.5938 L548,734.5938 A0,0 0 0 0 548,734.5938" fill="#FEFFDD" style="stroke:#181818;stroke-width:0.5;"/><path d="M771.5879,734.5938 L771.5879,744.5938 L781.5879,744.5938 L771.5879,734.5938" fill="#FEFFDD" style="stroke:#181818;stroke-width:0.5;"/><text fill="#000000" font-family="sans-serif" font-size="13" font-weight="bold" lengthAdjust="spacing" textLength="115.8066" x="564" y="761.6606">Sistema vincula</text><text fill="#000000" font-family="sans-serif" font-size="13" lengthAdjust="spacing" textLength="72.6489" x="683.939" y="761.6606">la máquina</text><text fill="#000000" font-family="sans-serif" font-size="13" lengthAdjust="spacing" textLength="155.3589" x="564" y="776.7935">a la plaza seleccionada.</text></g><!--link *start*ASIGNACION_ABIERTA to SeleccionMaquina--><g class="link" data-entity-1=".start.ASIGNACION_ABIERTA" data-entity-2="SeleccionMaquina" data-source-line="26" data-uid="lnk6" id="link_.start.ASIGNACION_ABIERTA_SeleccionMaquina"><path d="M412,436.7338 C412,447.1538 412,458.0338 412,473.7238" fill="none" id="*start*ASIGNACION_ABIERTA-to-SeleccionMaquina" style="stroke:#008000;stroke-width:1;"/><polygon fill="#008000" points="412,479.7238,416,470.7238,412,474.7238,408,470.7238,412,479.7238" style="stroke:#008000;stroke-width:1;"/></g><!--link SeleccionMaquina to SeleccionPlaza--><g class="link" data-entity-1="SeleccionMaquina" data-entity-2="SeleccionPlaza" data-source-line="34" data-uid="lnk7" id="link_SeleccionMaquina_SeleccionPlaza"><path d="M412,556.1938 C412,572.2738 412,584.9438 412,601.0138" fill="none" id="SeleccionMaquina-to-SeleccionPlaza" style="stroke:#008000;stroke-width:1;"/><polygon fill="#008000" points="412,607.0138,416,598.0138,412,602.0138,408,598.0138,412,607.0138" style="stroke:#008000;stroke-width:1;"/><text fill="#000000" font-family="sans-serif" font-size="13" lengthAdjust="spacing" textLength="139.4263" x="262" y="604.6706">seleccionarMaquina()</text></g><!--link SeleccionPlaza to ConfirmacionAsignacion--><g class="link" data-entity-1="SeleccionPlaza" data-entity-2="ConfirmacionAsignacion" data-source-line="42" data-uid="lnk8" id="link_SeleccionPlaza_ConfirmacionAsignacion"><path d="M412,683.2338 C412,697.0338 412,706.6038 412,720.4038" fill="none" id="SeleccionPlaza-to-ConfirmacionAsignacion" style="stroke:#008000;stroke-width:1;"/><polygon fill="#008000" points="412,726.4038,416,717.4038,412,721.4038,408,717.4038,412,726.4038" style="stroke:#008000;stroke-width:1;"/><text fill="#000000" font-family="sans-serif" font-size="13" lengthAdjust="spacing" textLength="118.1426" x="283" y="690.8906">seleccionarPlaza()</text></g><!--link ConfirmacionAsignacion to *end*ASIGNACION_ABIERTA--><g class="link" data-entity-1="ConfirmacionAsignacion" data-entity-2=".end.ASIGNACION_ABIERTA" data-source-line="48" data-uid="lnk10" id="link_ConfirmacionAsignacion_.end.ASIGNACION_ABIERTA"><path d="M412,802.6138 C412,815.7038 412,823.3538 412,832.5538" fill="none" id="ConfirmacionAsignacion-to-*end*ASIGNACION_ABIERTA" style="stroke:#008000;stroke-width:1;"/><polygon fill="#008000" points="412,838.5538,416,829.5538,412,833.5538,408,829.5538,412,838.5538" style="stroke:#008000;stroke-width:1;"/></g><g id="MAQUINAS_ABIERTO_FINAL"><rect fill="#F1F1F1" height="76.2969" rx="12.5" ry="12.5" style="stroke:#181818;stroke-width:0.5;" width="184.4434" x="449" y="970.2969"/><line style="stroke:#181818;stroke-width:0.5;" x1="449" x2="633.4434" y1="1016.5938" y2="1016.5938"/><text fill="#000000" font-family="sans-serif" font-size="14" lengthAdjust="spacing" textLength="144.4434" x="469" y="998.292">MAQUINAS_ABIERTO</text></g><ellipse cx="541" cy="73.2969" fill="#222222" rx="10" ry="10" style="stroke:#222222;stroke-width:1;"/><ellipse cx="541" cy="1157.2969" fill="none" rx="11" ry="11" style="stroke:#222222;stroke-width:1;"/><ellipse cx="541" cy="1157.2969" fill="#222222" rx="6" ry="6" style="stroke:#222222;stroke-width:1;"/><!--link *start* to MAQUINAS_ABIERTO_INICIAL--><g class="link" data-entity-1=".start." data-entity-2="MAQUINAS_ABIERTO_INICIAL" data-source-line="11" data-uid="lnk3" id="link_.start._MAQUINAS_ABIERTO_INICIAL"><path d="M541,83.4669 C541,103.6469 541,143.6769 541,176.9969" fill="none" id="*start*-to-MAQUINAS_ABIERTO_INICIAL" style="stroke:#008000;stroke-width:1;"/><polygon fill="#008000" points="541,182.9969,545,173.9969,541,177.9969,537,173.9969,541,182.9969" style="stroke:#008000;stroke-width:1;"/></g><!--link MAQUINAS_ABIERTO_INICIAL to ASIGNACION_ABIERTA--><g class="link" data-entity-1="MAQUINAS_ABIERTO_INICIAL" data-entity-2="ASIGNACION_ABIERTA" data-source-line="13" data-uid="lnk4" id="link_MAQUINAS_ABIERTO_INICIAL_ASIGNACION_ABIERTA"><path d="M541,259.3869 C541,284.6469 541,314.2569 541,353.2569" fill="none" id="MAQUINAS_ABIERTO_INICIAL-to-ASIGNACION_ABIERTA" style="stroke:#008000;stroke-width:1;"/><polygon fill="#008000" points="541,359.2569,545,350.2569,541,354.2569,537,350.2569,541,359.2569" style="stroke:#008000;stroke-width:1;"/><path d="M6,214.3169 L6,304.3169 L357,304.3169 L357,224.3169 L347,214.3169 L6,214.3169" fill="#FEFFDD" style="stroke:#181818;stroke-width:0.5;"/><path d="M347,214.3169 L347,224.3169 L357,224.3169 L347,214.3169" fill="#FEFFDD" style="stroke:#181818;stroke-width:0.5;"/><text fill="#000000" font-family="sans-serif" font-size="13" font-weight="bold" lengthAdjust="spacing" textLength="136.4175" x="22" y="241.3838">Supervisor solicita</text><text fill="#000000" font-family="sans-serif" font-size="13" lengthAdjust="spacing" textLength="137.8013" x="162.5498" y="241.3838">asignar una máquina</text><text fill="#000000" font-family="sans-serif" font-size="13" lengthAdjust="spacing" textLength="79.4282" x="22" y="256.5166">a una plaza.</text><text fill="#000000" font-family="sans-serif" font-size="13" font-weight="bold" lengthAdjust="spacing" textLength="128.7622" x="22" y="271.6494">Sistema presenta</text><text fill="#000000" font-family="sans-serif" font-size="13" lengthAdjust="spacing" textLength="177.2837" x="154.8945" y="271.6494">el formulario de asignación</text><text fill="#000000" font-family="sans-serif" font-size="13" lengthAdjust="spacing" textLength="302.999" x="22" y="286.7822">con las máquinas y plazas activas disponibles.</text><text fill="#000000" font-family="sans-serif" font-size="13" lengthAdjust="spacing" textLength="156.8887" x="373.1782" y="264.083">asignarMaquinaAPlaza()</text></g><!--link ASIGNACION_ABIERTA to MAQUINAS_ABIERTO_FINAL--><g class="link" data-entity-1="ASIGNACION_ABIERTA" data-entity-2="MAQUINAS_ABIERTO_FINAL" data-source-line="51" data-uid="lnk11" id="link_ASIGNACION_ABIERTA_MAQUINAS_ABIERTO_FINAL"><path d="M510.33,870.3969 C510.33,909.3569 510.33,938.9269 510.33,964.1869" fill="none" id="ASIGNACION_ABIERTA-to-MAQUINAS_ABIERTO_FINAL" style="stroke:#008000;stroke-width:1;"/><polygon fill="#008000" points="510.33,970.1869,514.33,961.1869,510.33,965.1869,506.33,961.1869,510.33,970.1869" style="stroke:#008000;stroke-width:1;"/><path d="M17.33,925.2869 L17.33,985.2869 L339.33,985.2869 L339.33,935.2869 L329.33,925.2869 L17.33,925.2869" fill="#FEFFDD" style="stroke:#181818;stroke-width:0.5;"/><path d="M329.33,925.2869 L329.33,935.2869 L339.33,935.2869 L329.33,925.2869" fill="#FEFFDD" style="stroke:#181818;stroke-width:0.5;"/><text fill="#000000" font-family="sans-serif" font-size="13" font-weight="bold" lengthAdjust="spacing" textLength="128.1655" x="33.33" y="952.3538">Sistema confirma</text><text fill="#000000" font-family="sans-serif" font-size="13" lengthAdjust="spacing" textLength="149.1445" x="165.6279" y="952.3538">la asignación realizada</text><text fill="#000000" font-family="sans-serif" font-size="13" lengthAdjust="spacing" textLength="216.9692" x="33.33" y="967.4866">y regresa al listado de máquinas.</text><text fill="#000000" font-family="sans-serif" font-size="13" lengthAdjust="spacing" textLength="143.6792" x="355.7724" y="959.9202">confirmarAsignacion()</text></g><!--link ASIGNACION_ABIERTA to MAQUINAS_ABIERTO_FINAL--><g class="link" data-entity-1="ASIGNACION_ABIERTA" data-entity-2="MAQUINAS_ABIERTO_FINAL" data-source-line="57" data-uid="lnk12" id="link_ASIGNACION_ABIERTA_MAQUINAS_ABIERTO_FINAL"><path d="M571.67,870.3969 C571.67,909.3569 571.67,938.9269 571.67,964.1869" fill="none" id="ASIGNACION_ABIERTA-to-MAQUINAS_ABIERTO_FINAL-1" style="stroke:#FF0000;stroke-width:1;"/><polygon fill="#FF0000" points="571.67,970.1869,575.67,961.1869,571.67,965.1869,567.67,961.1869,571.67,970.1869" style="stroke:#FF0000;stroke-width:1;"/><text fill="#000000" font-family="sans-serif" font-size="13" lengthAdjust="spacing" textLength="136.2524" x="582.67" y="975.053">cancelarAsignacion()</text><path d="M734.9224,925.2869 L734.9224,1015.2869 L1059.9224,1015.2869 L1059.9224,935.2869 L1049.9224,925.2869 L734.9224,925.2869" fill="#FEFFDD" style="stroke:#181818;stroke-width:0.5;"/><path d="M1049.9224,925.2869 L1049.9224,935.2869 L1059.9224,935.2869 L1049.9224,925.2869" fill="#FEFFDD" style="stroke:#181818;stroke-width:0.5;"/><text fill="#000000" font-family="sans-serif" font-size="13" font-weight="bold" lengthAdjust="spacing" textLength="82.4561" x="750.9224" y="952.3538">CANCELAR:</text><text fill="#000000" font-family="sans-serif" font-size="13" font-weight="bold" lengthAdjust="spacing" textLength="136.4175" x="750.9224" y="967.4866">Supervisor solicita</text><text fill="#000000" font-family="sans-serif" font-size="13" lengthAdjust="spacing" textLength="143.8633" x="891.4722" y="967.4866">cancelar la operación.</text><text fill="#000000" font-family="sans-serif" font-size="13" font-weight="bold" lengthAdjust="spacing" textLength="127.1689" x="750.9224" y="982.6194">Sistema descarta</text><text fill="#000000" font-family="sans-serif" font-size="13" lengthAdjust="spacing" textLength="85.4712" x="882.2237" y="982.6194">la asignación</text><text fill="#000000" font-family="sans-serif" font-size="13" lengthAdjust="spacing" textLength="216.9692" x="750.9224" y="997.7522">y regresa al listado de máquinas.</text></g><!--link MAQUINAS_ABIERTO_FINAL to *end*--><g class="link" data-entity-1="MAQUINAS_ABIERTO_FINAL" data-entity-2=".end." data-source-line="65" data-uid="lnk14" id="link_MAQUINAS_ABIERTO_FINAL_.end."><path d="M541,1046.6669 C541,1079.7769 541,1119.4569 541,1140.2169" fill="none" id="MAQUINAS_ABIERTO_FINAL-to-*end*" style="stroke:#0000FF;stroke-width:1;"/><polygon fill="#0000FF" points="541,1146.2169,545,1137.2169,541,1141.2169,537,1137.2169,541,1146.2169" style="stroke:#0000FF;stroke-width:1;"/></g><!--SRC=[fLN1JXin4BtxAwpqqbQ2qck48haHL2kHG4bxGWWvkqwmuhMtjZTIgFen_OP-0Z_6sEjDl8atj88BMdlUUDvxCnFBhM2O6BwKLEF9yv-VDPSKKtmZw1D5PiLbHJKjiLG5Cwp2dy_EebDDvUhmL739xAPYM6dxgAAB6reKN2uX725ZgMLuGhxzoAPaza2-P1UttwyVicaspiWLfWOFzYy70KHcsTSf6MVNqt13VFZXyQ3lbKluwdi3tNsynoTtxvQQCNb_Ckgj4Q7UwcDuejeXFEqLdr2lD_5gl_-0f89g1LjOhAIJSOKm_9tFHxEwOdhDZTBOAC5pRkdvf_cepODhCAqCxdaCzKULotkwJSADPIMSQh1IXWnCu8NIPIsevWeNBAJC-VDVwO6vAmMaQjCRl6do6anpozVml-2cKfBF1JEdYCa2EnwetwrVFd5pFME2vJbNCcZXNGc7K8Ahg6tBGGhcfKk0_7cC62kvuBga3aG2Hw3caBkh02Ox3Q0XN8xzfjWlsmTv-pHVFe9_YtJ8dXLbpOpLZHDTaOEsMv3Xif4z65G4Nrzf4DCMGVKsF6wM9idEC_TrO4cIU2FyC7uXn4CZ7r6ZsIp_e4MtoRQ8JhEzGO5eDdheDmnZyZqzr16XdUL32TBeb1HhBdEOo215TxARwHQ1GFHoaMJJKtBC2deR_KOeCQX7rs2pH8TkGVWNz2xzqLKMEBQmbcIqTx1cLF0dOEH16_Y6CWp424W5urpuJRKTbdZff5beLXpdG6NEH8f2SA_BOKocuuihSZjqnR-sezlSZgI2a8RZmLQ6tzUSQflIu_zLw24AIin5pOBfBm00]--></g></svg>