<svg xmlns="http://www.w3.org/2000/svg" xmlns:xlink="http://www.w3.org/1999/xlink" contentStyleType="text/css" data-diagram-type="STATE" height="1077px" preserveAspectRatio="none" style="width:933px;height:1077px;background:#FFFFFF;" version="1.1" viewBox="0 0 933 1077" width="933px" zoomAndPan="magnify"><title>Dar de Baja Plaza</title><defs/><g><g class="title" data-source-line="1"><text fill="#000000" font-family="sans-serif" font-size="14" font-weight="bold" lengthAdjust="spacing" textLength="138.5781" x="390.2249" y="32.9951">Dar de Baja Plaza</text></g><g id="PLAZAS_ABIERTO_INICIAL"><rect fill="#F1F1F1" height="76.2969" rx="12.5" ry="12.5" style="stroke:#181818;stroke-width:0.5;" width="162.3291" x="372" y="183.2969"/><line style="stroke:#181818;stroke-width:0.5;" x1="372" x2="534.3291" y1="229.5938" y2="229.5938"/><text fill="#000000" font-family="sans-serif" font-size="14" lengthAdjust="spacing" textLength="122.3291" x="392" y="211.292">PLAZAS_ABIERTO</text></g><path d="M162,359.2969 L743.5508,359.2969 A12.5,12.5 0 0 1 756.0508,371.7969 L756.0508,405.5938 L149.5,405.5938 L149.5,371.7969 A12.5,12.5 0 0 1 162,359.2969" fill="#F1F1F1"/><rect fill="none" height="414.2969" rx="12.5" ry="12.5" style="stroke:#181818;stroke-width:0.5;" width="606.5508" x="149.5" y="359.2969"/><line style="stroke:#181818;stroke-width:0.5;" x1="149.5" x2="756.0508" y1="405.5938" y2="405.5938"/><text fill="#000000" font-family="sans-serif" font-size="14" lengthAdjust="spacing" textLength="112" x="396.7754" y="387.292">PLAZA_ABIERTA</text><g id="PLAZA_ABIERTA.VisualizacionPlaza"><rect fill="#F1F1F1" height="76.2969" rx="12.5" ry="12.5" style="stroke:#181818;stroke-width:0.5;" width="194.1846" x="177.5" y="495.0938"/><line style="stroke:#181818;stroke-width:0.5;" x1="177.5" x2="371.6846" y1="541.3906" y2="541.3906"/><text fill="#000000" font-family="sans-serif" font-size="14" lengthAdjust="spacing" textLength="154.1846" x="197.5" y="523.0889">Visualización de Plaza</text></g><g id="PLAZA_ABIERTA.ConfirmacionBaja"><rect fill="#F1F1F1" height="76.2969" rx="12.5" ry="12.5" style="stroke:#181818;stroke-width:0.5;" width="190.083" x="179.5" y="629.5938"/><line style="stroke:#181818;stroke-width:0.5;" x1="179.5" x2="369.583" y1="675.8906" y2="675.8906"/><text fill="#000000" font-family="sans-serif" font-size="14" lengthAdjust="spacing" textLength="150.083" x="199.5" y="657.5889">Confirmación de Baja</text></g><ellipse cx="274.5" cy="426.5938" fill="#222222" rx="10" ry="10" style="stroke:#222222;stroke-width:1;"/><ellipse cx="274.5" cy="752.5938" fill="none" rx="11" ry="11" style="stroke:#222222;stroke-width:1;"/><ellipse cx="274.5" cy="752.5938" fill="#222222" rx="6" ry="6" style="stroke:#222222;stroke-width:1;"/><g class="entity" data-entity="GMN2" data-source-line="27" data-uid="ent0003" id="entity_GMN2"><path d="M390,472.5938 L390,529.5938 L371.63,533.5938 L390,537.5938 L390,593.3906 A0,0 0 0 0 390,593.3906 L694.9609,593.3906 A0,0 0 0 0 694.9609,593.3906 L694.9609,482.5938 L684.9609,472.5938 L390,472.5938 A0,0 0 0 0 390,472.5938" fill="#FEFFDD" style="stroke:#181818;stroke-width:0.5;"/><path d="M684.9609,472.5938 L684.9609,482.5938 L694.9609,482.5938 L684.9609,472.5938" fill="#FEFFDD" style="stroke:#181818;stroke-width:0.5;"/><text fill="#000000" font-family="sans-serif" font-size="13" font-weight="bold" lengthAdjust="spacing" textLength="124.1855" x="406" y="499.6606">Sistema muestra</text><text fill="#000000" font-family="sans-serif" font-size="13" lengthAdjust="spacing" textLength="133.3579" x="534.3179" y="499.6606">los datos de la plaza</text><text fill="#000000" font-family="sans-serif" font-size="13" lengthAdjust="spacing" textLength="263.9609" x="406" y="514.7935">y advierte que darla de baja suspenderá</text><text fill="#000000" font-family="sans-serif" font-size="13" lengthAdjust="spacing" textLength="234.146" x="406" y="529.9263">temporalmente los vínculos con sus</text><text fill="#000000" font-family="sans-serif" font-size="13" lengthAdjust="spacing" textLength="222.1807" x="406" y="545.0591">máquinas y taquilleros asignados.</text><text fill="#000000" font-family="sans-serif" font-size="13" font-weight="bold" lengthAdjust="spacing" textLength="192.8545" x="406" y="560.1919">Supervisor puede solicitar</text><text fill="#000000" font-family="sans-serif" font-size="13" lengthAdjust="spacing" textLength="62.8481" x="602.9868" y="560.1919">confirmar</text><text fill="#000000" font-family="sans-serif" font-size="13" lengthAdjust="spacing" textLength="162.1001" x="406" y="575.3247">mediante ejecutarBaja().</text></g><g class="entity" data-entity="GMN5" data-source-line="37" data-uid="ent0006" id="entity_GMN5"><path d="M387.5,630.0938 L387.5,663.5938 L369.63,667.5938 L387.5,671.5938 L387.5,705.4922 A0,0 0 0 0 387.5,705.4922 L747.0508,705.4922 A0,0 0 0 0 747.0508,705.4922 L747.0508,640.0938 L737.0508,630.0938 L387.5,630.0938 A0,0 0 0 0 387.5,630.0938" fill="#FEFFDD" style="stroke:#181818;stroke-width:0.5;"/><path d="M737.0508,630.0938 L737.0508,640.0938 L747.0508,640.0938 L737.0508,630.0938" fill="#FEFFDD" style="stroke:#181818;stroke-width:0.5;"/><text fill="#000000" font-family="sans-serif" font-size="13" font-weight="bold" lengthAdjust="spacing" textLength="108.6401" x="403.5" y="657.1606">Sistema marca</text><text fill="#000000" font-family="sans-serif" font-size="13" lengthAdjust="spacing" textLength="149.7793" x="516.2725" y="657.1606">la plaza como inactiva.</text><text fill="#000000" font-family="sans-serif" font-size="13" font-weight="bold" lengthAdjust="spacing" textLength="133.6626" x="403.5" y="672.2935">Sistema suspende</text><text fill="#000000" font-family="sans-serif" font-size="13" lengthAdjust="spacing" textLength="180.7559" x="541.2949" y="672.2935">temporalmente los vínculos</text><text fill="#000000" font-family="sans-serif" font-size="13" lengthAdjust="spacing" textLength="272.1367" x="403.5" y="687.4263">con las máquinas y taquilleros asignados.</text></g><!--link *start*PLAZA_ABIERTA to VisualizacionPlaza--><g class="link" data-entity-1=".start.PLAZA_ABIERTA" data-entity-2="VisualizacionPlaza" data-source-line="25" data-uid="lnk6" id="link_.start.PLAZA_ABIERTA_VisualizacionPlaza"><path d="M274.5,436.8038 C274.5,450.1338 274.5,468.2038 274.5,488.9438" fill="none" id="*start*PLAZA_ABIERTA-to-VisualizacionPlaza" style="stroke:#008000;stroke-width:1;"/><polygon fill="#008000" points="274.5,494.9438,278.5,485.9438,274.5,489.9438,270.5,485.9438,274.5,494.9438" style="stroke:#008000;stroke-width:1;"/></g><!--link VisualizacionPlaza to ConfirmacionBaja--><g class="link" data-entity-1="VisualizacionPlaza" data-entity-2="ConfirmacionBaja" data-source-line="35" data-uid="lnk7" id="link_VisualizacionPlaza_ConfirmacionBaja"><path d="M274.5,571.2738 C274.5,589.4538 274.5,605.1338 274.5,623.3138" fill="none" id="VisualizacionPlaza-to-ConfirmacionBaja" style="stroke:#008000;stroke-width:1;"/><polygon fill="#008000" points="274.5,629.3138,278.5,620.3138,274.5,624.3138,270.5,620.3138,274.5,629.3138" style="stroke:#008000;stroke-width:1;"/><text fill="#000000" font-family="sans-serif" font-size="13" lengthAdjust="spacing" textLength="92.0093" x="171.5" y="623.3606">ejecutarBaja()</text></g><!--link ConfirmacionBaja to *end*PLAZA_ABIERTA--><g class="link" data-entity-1="ConfirmacionBaja" data-entity-2=".end.PLAZA_ABIERTA" data-source-line="42" data-uid="lnk9" id="link_ConfirmacionBaja_.end.PLAZA_ABIERTA"><path d="M274.5,705.6138 C274.5,718.7038 274.5,726.3538 274.5,735.5538" fill="none" id="ConfirmacionBaja-to-*end*PLAZA_ABIERTA" style="stroke:#008000;stroke-width:1;"/><polygon fill="#008000" points="274.5,741.5538,278.5,732.5538,274.5,736.5538,270.5,732.5538,274.5,741.5538" style="stroke:#008000;stroke-width:1;"/></g><g id="PLAZAS_ABIERTO_FINAL"><rect fill="#F1F1F1" height="76.2969" rx="12.5" ry="12.5" style="stroke:#181818;stroke-width:0.5;" width="162.3291" x="372" y="873.2969"/><line style="stroke:#181818;stroke-width:0.5;" x1="372" x2="534.3291" y1="919.5938" y2="919.5938"/><text fill="#000000" font-family="sans-serif" font-size="14" lengthAdjust="spacing" textLength="122.3291" x="392" y="901.292">PLAZAS_ABIERTO</text></g><ellipse cx="453" cy="73.2969" fill="#222222" rx="10" ry="10" style="stroke:#222222;stroke-width:1;"/><ellipse cx="453" cy="1060.2969" fill="none" rx="11" ry="11" style="stroke:#222222;stroke-width:1;"/><ellipse cx="453" cy="1060.2969" fill="#222222" rx="6" ry="6" style="stroke:#222222;stroke-width:1;"/><!--link *start* to PLAZAS_ABIERTO_INICIAL--><g class="link" data-entity-1=".start." data-entity-2="PLAZAS_ABIERTO_INICIAL" data-source-line="11" data-uid="lnk3" id="link_.start._PLAZAS_ABIERTO_INICIAL"><path d="M453,83.4669 C453,103.6469 453,143.6769 453,176.9969" fill="none" id="*start*-to-PLAZAS_ABIERTO_INICIAL" style="stroke:#008000;stroke-width:1;"/><polygon fill="#008000" points="453,182.9969,457,173.9969,453,177.9969,449,173.9969,453,182.9969" style="stroke:#008000;stroke-width:1;"/></g><!--link PLAZAS_ABIERTO_INICIAL to PLAZA_ABIERTA--><g class="link" data-entity-1="PLAZAS_ABIERTO_INICIAL" data-entity-2="PLAZA_ABIERTA" data-source-line="13" data-uid="lnk4" id="link_PLAZAS_ABIERTO_INICIAL_PLAZA_ABIERTA"><path d="M453,259.5369 C453,285.0669 453,314.8569 453,353.0169" fill="none" id="PLAZAS_ABIERTO_INICIAL-to-PLAZA_ABIERTA" style="stroke:#008000;stroke-width:1;"/><polygon fill="#008000" points="453,359.0169,457,350.0169,453,354.0169,449,350.0169,453,359.0169" style="stroke:#008000;stroke-width:1;"/><path d="M18,214.2769 L18,304.2769 L313,304.2769 L313,224.2769 L303,214.2769 L18,214.2769" fill="#FEFFDD" style="stroke:#181818;stroke-width:0.5;"/><path d="M303,214.2769 L303,224.2769 L313,224.2769 L303,214.2769" fill="#FEFFDD" style="stroke:#181818;stroke-width:0.5;"/><text fill="#000000" font-family="sans-serif" font-size="13" font-weight="bold" lengthAdjust="spacing" textLength="136.4175" x="34" y="241.3438">Supervisor solicita</text><text fill="#000000" font-family="sans-serif" font-size="13" lengthAdjust="spacing" textLength="73.874" x="174.5498" y="241.3438">dar de baja</text><text fill="#000000" font-family="sans-serif" font-size="13" lengthAdjust="spacing" textLength="131.9678" x="34" y="256.4766">una plaza existente.</text><text fill="#000000" font-family="sans-serif" font-size="13" font-weight="bold" lengthAdjust="spacing" textLength="128.7622" x="34" y="271.6094">Sistema presenta</text><text fill="#000000" font-family="sans-serif" font-size="13" lengthAdjust="spacing" textLength="122.0972" x="166.8945" y="271.6094">la ficha de la plaza</text><text fill="#000000" font-family="sans-serif" font-size="13" lengthAdjust="spacing" textLength="225.4751" x="34" y="286.7422">con la opción de confirmar la baja.</text><text fill="#000000" font-family="sans-serif" font-size="13" lengthAdjust="spacing" textLength="112.3853" x="329.9917" y="264.043">darDeBajaPlaza()</text></g><!--link PLAZA_ABIERTA to PLAZAS_ABIERTO_FINAL--><g class="link" data-entity-1="PLAZA_ABIERTA" data-entity-2="PLAZAS_ABIERTO_FINAL" data-source-line="45" data-uid="lnk10" id="link_PLAZA_ABIERTA_PLAZAS_ABIERTO_FINAL"><path d="M426,773.4569 C426,811.6669 426,841.5069 426,867.0669" fill="none" id="PLAZA_ABIERTA-to-PLAZAS_ABIERTO_FINAL" style="stroke:#008000;stroke-width:1;"/><polygon fill="#008000" points="426,873.0669,430,864.0669,426,868.0669,422,864.0669,426,873.0669" style="stroke:#008000;stroke-width:1;"/><path d="M6,828.2569 L6,888.2569 L297,888.2569 L297,838.2569 L287,828.2569 L6,828.2569" fill="#FEFFDD" style="stroke:#181818;stroke-width:0.5;"/><path d="M287,828.2569 L287,838.2569 L297,838.2569 L287,828.2569" fill="#FEFFDD" style="stroke:#181818;stroke-width:0.5;"/><text fill="#000000" font-family="sans-serif" font-size="13" font-weight="bold" lengthAdjust="spacing" textLength="128.1655" x="22" y="855.3238">Sistema confirma</text><text fill="#000000" font-family="sans-serif" font-size="13" lengthAdjust="spacing" textLength="118.3521" x="154.2979" y="855.3238">la baja de la plaza</text><text fill="#000000" font-family="sans-serif" font-size="13" lengthAdjust="spacing" textLength="194.6509" x="22" y="870.4566">y regresa al listado de plazas.</text><text fill="#000000" font-family="sans-serif" font-size="13" lengthAdjust="spacing" textLength="101.4546" x="313.6499" y="862.8902">confirmarBaja()</text></g><!--link PLAZA_ABIERTA to PLAZAS_ABIERTO_FINAL--><g class="link" data-entity-1="PLAZA_ABIERTA" data-entity-2="PLAZAS_ABIERTO_FINAL" data-source-line="51" data-uid="lnk11" id="link_PLAZA_ABIERTA_PLAZAS_ABIERTO_FINAL"><path d="M480,773.4569 C480,811.6669 480,841.5069 480,867.0669" fill="none" id="PLAZA_ABIERTA-to-PLAZAS_ABIERTO_FINAL-1" style="stroke:#FF0000;stroke-width:1;"/><polygon fill="#FF0000" points="480,873.0669,484,864.0669,480,868.0669,476,864.0669,480,873.0669" style="stroke:#FF0000;stroke-width:1;"/><text fill="#000000" font-family="sans-serif" font-size="13" lengthAdjust="spacing" textLength="94.0278" x="491" y="878.023">cancelarBaja()</text><path d="M601.0278,828.2569 L601.0278,918.2569 L926.0278,918.2569 L926.0278,838.2569 L916.0278,828.2569 L601.0278,828.2569" fill="#FEFFDD" style="stroke:#181818;stroke-width:0.5;"/><path d="M916.0278,828.2569 L916.0278,838.2569 L926.0278,838.2569 L916.0278,828.2569" fill="#FEFFDD" style="stroke:#181818;stroke-width:0.5;"/><text fill="#000000" font-family="sans-serif" font-size="13" font-weight="bold" lengthAdjust="spacing" textLength="82.4561" x="617.0278" y="855.3238">CANCELAR:</text><text fill="#000000" font-family="sans-serif" font-size="13" font-weight="bold" lengthAdjust="spacing" textLength="136.4175" x="617.0278" y="870.4566">Supervisor solicita</text><text fill="#000000" font-family="sans-serif" font-size="13" lengthAdjust="spacing" textLength="143.8633" x="757.5776" y="870.4566">cancelar la operación.</text><text fill="#000000" font-family="sans-serif" font-size="13" font-weight="bold" lengthAdjust="spacing" textLength="132.5645" x="617.0278" y="885.5894">Sistema mantiene</text><text fill="#000000" font-family="sans-serif" font-size="13" lengthAdjust="spacing" textLength="93.9453" x="753.7246" y="885.5894">la plaza activa</text><text fill="#000000" font-family="sans-serif" font-size="13" lengthAdjust="spacing" textLength="194.6509" x="617.0278" y="900.7222">y regresa al listado de plazas.</text></g><!--link PLAZAS_ABIERTO_FINAL to *end*--><g class="link" data-entity-1="PLAZAS_ABIERTO_FINAL" data-entity-2=".end." data-source-line="59" data-uid="lnk13" id="link_PLAZAS_ABIERTO_FINAL_.end."><path d="M453,949.6669 C453,982.7769 453,1022.4569 453,1043.2169" fill="none" id="PLAZAS_ABIERTO_FINAL-to-*end*" style="stroke:#0000FF;stroke-width:1;"/><polygon fill="#0000FF" points="453,1049.2169,457,1040.2169,453,1044.2169,449,1040.2169,453,1049.2169" style="stroke:#0000FF;stroke-width:1;"/></g><!--SRC=[dLJDJXin4BxlKrZf1IgHqck4a9P0fKY88gXwA49eiZi91g-zsDweeUh3y00zzH7oOftn_cIpcwHLSuYIyNpVZBzlF5vwXU8Sh4XHdC4JY6i5hn2vPwbpi909RL9qc8kFnyUjg0Nzt8yggT4lSnJ6-aVJEhY6D9LwJkbHv3nu5DUNyRVuzY4-crpSVFdyCBcQZ2VnfG0d1fj7WpQW2iRhl3eosCxxQNArWpMwUtylZkxUpIsYlZywtT5H5Etej0TjUXk95Emviff1p8F3I1jgJU7C2wDPfUT8qETaUdfRv6WNqXahd54oaHvEFanFcO4TcH97I2qqY9p917wNpgFsE6muE93HkIMZT4MWGCnayWZCeYfi02JS0GYJ9tBrM_CnHMRIPbIHubnn6A5E1VSSRHN_Ho0gJxvALu2Ihv18eyDrWzgjS5Kbd0rQo75Lbe5XyXYt3bOmFY6p6DOrh5ywf0MjhPm_ajYpNKaTwR82dRULSiQH_9w_EzBnPoaWNKYqLEEbGFP9GUsKS8NBIJgqgxS6GFoviQ0ozYoGBrQ_T5BmB_Q2C4rkjdfxAQGc8PR20_rK2YtbWPDp3QbnmutcrxEJ5qWzr1DampqQMzVqc4hWBl09auBoMDo3mv9qRJd_ss9hM_gUTwCEvnOdkfYjFe1DclajvpqncH6aIUBb0eRRGBNg0RT7xWPRFW7tht9lAjExUbiN6j7ePxKockUoPycKwscqzgfIR_U-gEvS0sgjmlXrvtKfB59bHqzB4GizkzHmKiXmxLVUQzXYkgzTq0cgpMuhdpVR7STNuulB-6R4VVvjvzMivNf2Mow1tfhBQ8GbQjmSat8-_kVQtUlHxQUgmChEFm00]--></g></svg>