<svg xmlns="http://www.w3.org/2000/svg" xmlns:xlink="http://www.w3.org/1999/xlink" contentStyleType="text/css" data-diagram-type="STATE" height="1077px" preserveAspectRatio="none" style="width:1095px;height:1077px;background:#FFFFFF;" version="1.1" viewBox="0 0 1095 1077" width="1095px" zoomAndPan="magnify"><title>Reactivar Plaza</title><defs/><g><g class="title" data-source-line="1"><text fill="#000000" font-family="sans-serif" font-size="14" font-weight="bold" lengthAdjust="spacing" textLength="121.9668" x="479.5317" y="32.9951">Reactivar Plaza</text></g><g id="PLAZAS_ABIERTO_INICIAL"><rect fill="#F1F1F1" height="76.2969" rx="12.5" ry="12.5" style="stroke:#181818;stroke-width:0.5;" width="162.3291" x="479" y="183.2969"/><line style="stroke:#181818;stroke-width:0.5;" x1="479" x2="641.3291" y1="229.5938" y2="229.5938"/><text fill="#000000" font-family="sans-serif" font-size="14" lengthAdjust="spacing" textLength="122.3291" x="499" y="211.292">PLAZAS_ABIERTO</text></g><path d="M240.5,359.2969 L879.4448,359.2969 A12.5,12.5 0 0 1 891.9448,371.7969 L891.9448,405.5938 L228,405.5938 L228,371.7969 A12.5,12.5 0 0 1 240.5,359.2969" fill="#F1F1F1"/><rect fill="none" height="414.2969" rx="12.5" ry="12.5" style="stroke:#181818;stroke-width:0.5;" width="663.9448" x="228" y="359.2969"/><line style="stroke:#181818;stroke-width:0.5;" x1="228" x2="891.9448" y1="405.5938" y2="405.5938"/><text fill="#000000" font-family="sans-serif" font-size="14" lengthAdjust="spacing" textLength="112" x="503.9724" y="387.292">PLAZA_ABIERTA</text><g id="PLAZA_ABIERTA.VisualizacionPlaza"><rect fill="#F1F1F1" height="76.2969" rx="12.5" ry="12.5" style="stroke:#181818;stroke-width:0.5;" width="194.1846" x="311" y="495.0938"/><line style="stroke:#181818;stroke-width:0.5;" x1="311" x2="505.1846" y1="541.3906" y2="541.3906"/><text fill="#000000" font-family="sans-serif" font-size="14" lengthAdjust="spacing" textLength="154.1846" x="331" y="523.0889">Visualización de Plaza</text></g><g id="PLAZA_ABIERTA.ConfirmacionReactivacion"><rect fill="#F1F1F1" height="76.2969" rx="12.5" ry="12.5" style="stroke:#181818;stroke-width:0.5;" width="249.3164" x="283.5" y="629.5938"/><line style="stroke:#181818;stroke-width:0.5;" x1="283.5" x2="532.8164" y1="675.8906" y2="675.8906"/><text fill="#000000" font-family="sans-serif" font-size="14" lengthAdjust="spacing" textLength="209.3164" x="303.5" y="657.5889">Confirmación de Reactivación</text></g><ellipse cx="408" cy="426.5938" fill="#222222" rx="10" ry="10" style="stroke:#222222;stroke-width:1;"/><ellipse cx="408" cy="752.5938" fill="none" rx="11" ry="11" style="stroke:#222222;stroke-width:1;"/><ellipse cx="408" cy="752.5938" fill="#222222" rx="6" ry="6" style="stroke:#222222;stroke-width:1;"/><g class="entity" data-entity="GMN2" data-source-line="27" data-uid="ent0003" id="entity_GMN2"><path d="M522.5,472.5938 L522.5,529.5938 L505.13,533.5938 L522.5,537.5938 L522.5,593.3906 A0,0 0 0 0 522.5,593.3906 L829.7017,593.3906 A0,0 0 0 0 829.7017,593.3906 L829.7017,482.5938 L819.7017,472.5938 L522.5,472.5938 A0,0 0 0 0 522.5,472.5938" fill="#FEFFDD" style="stroke:#181818;stroke-width:0.5;"/><path d="M819.7017,472.5938 L819.7017,482.5938 L829.7017,482.5938 L819.7017,472.5938" fill="#FEFFDD" style="stroke:#181818;stroke-width:0.5;"/><text fill="#000000" font-family="sans-serif" font-size="13" font-weight="bold" lengthAdjust="spacing" textLength="124.1855" x="538.5" y="499.6606">Sistema muestra</text><text fill="#000000" font-family="sans-serif" font-size="13" lengthAdjust="spacing" textLength="133.3579" x="666.8179" y="499.6606">los datos de la plaza</text><text fill="#000000" font-family="sans-serif" font-size="13" lengthAdjust="spacing" textLength="266.2017" x="538.5" y="514.7935">y advierte que la reactivación restaurará</text><text fill="#000000" font-family="sans-serif" font-size="13" lengthAdjust="spacing" textLength="214.3794" x="538.5" y="529.9263">los vínculos suspendidos con sus</text><text fill="#000000" font-family="sans-serif" font-size="13" lengthAdjust="spacing" textLength="222.1807" x="538.5" y="545.0591">máquinas y taquilleros asignados.</text><text fill="#000000" font-family="sans-serif" font-size="13" font-weight="bold" lengthAdjust="spacing" textLength="192.8545" x="538.5" y="560.1919">Supervisor puede solicitar</text><text fill="#000000" font-family="sans-serif" font-size="13" lengthAdjust="spacing" textLength="62.8481" x="735.4868" y="560.1919">confirmar</text><text fill="#000000" font-family="sans-serif" font-size="13" lengthAdjust="spacing" textLength="217.1025" x="538.5" y="575.3247">mediante ejecutarReactivacion().</text></g><g class="entity" data-entity="GMN5" data-source-line="37" data-uid="ent0006" id="entity_GMN5"><path d="M551,630.0938 L551,663.5938 L532.79,667.5938 L551,671.5938 L551,705.4922 A0,0 0 0 0 551,705.4922 L882.9448,705.4922 A0,0 0 0 0 882.9448,705.4922 L882.9448,640.0938 L872.9448,630.0938 L551,630.0938 A0,0 0 0 0 551,630.0938" fill="#FEFFDD" style="stroke:#181818;stroke-width:0.5;"/><path d="M872.9448,630.0938 L872.9448,640.0938 L882.9448,640.0938 L872.9448,630.0938" fill="#FEFFDD" style="stroke:#181818;stroke-width:0.5;"/><text fill="#000000" font-family="sans-serif" font-size="13" font-weight="bold" lengthAdjust="spacing" textLength="108.6401" x="567" y="657.1606">Sistema marca</text><text fill="#000000" font-family="sans-serif" font-size="13" lengthAdjust="spacing" textLength="137.9282" x="679.7725" y="657.1606">la plaza como activa.</text><text fill="#000000" font-family="sans-serif" font-size="13" font-weight="bold" lengthAdjust="spacing" textLength="125.8232" x="567" y="672.2935">Sistema restaura</text><text fill="#000000" font-family="sans-serif" font-size="13" lengthAdjust="spacing" textLength="160.9893" x="696.9556" y="672.2935">los vínculos suspendidos</text><text fill="#000000" font-family="sans-serif" font-size="13" lengthAdjust="spacing" textLength="275.5708" x="567" y="687.4263">con sus máquinas y taquilleros asignados.</text></g><!--link *start*PLAZA_ABIERTA to VisualizacionPlaza--><g class="link" data-entity-1=".start.PLAZA_ABIERTA" data-entity-2="VisualizacionPlaza" data-source-line="25" data-uid="lnk6" id="link_.start.PLAZA_ABIERTA_VisualizacionPlaza"><path d="M408,436.8038 C408,450.1338 408,468.2038 408,488.9438" fill="none" id="*start*PLAZA_ABIERTA-to-VisualizacionPlaza" style="stroke:#008000;stroke-width:1;"/><polygon fill="#008000" points="408,494.9438,412,485.9438,408,489.9438,404,485.9438,408,494.9438" style="stroke:#008000;stroke-width:1;"/></g><!--link VisualizacionPlaza to ConfirmacionReactivacion--><g class="link" data-entity-1="VisualizacionPlaza" data-entity-2="ConfirmacionReactivacion" data-source-line="35" data-uid="lnk7" id="link_VisualizacionPlaza_ConfirmacionReactivacion"><path d="M408,571.2738 C408,589.4538 408,605.1338 408,623.3138" fill="none" id="VisualizacionPlaza-to-ConfirmacionReactivacion" style="stroke:#008000;stroke-width:1;"/><polygon fill="#008000" points="408,629.3138,412,620.3138,408,624.3138,404,620.3138,408,629.3138" style="stroke:#008000;stroke-width:1;"/><text fill="#000000" font-family="sans-serif" font-size="13" lengthAdjust="spacing" textLength="147.0117" x="250" y="586.3606">ejecutarReactivacion()</text></g><!--link ConfirmacionReactivacion to *end*PLAZA_ABIERTA--><g class="link" data-entity-1="ConfirmacionReactivacion" data-entity-2=".end.PLAZA_ABIERTA" data-source-line="42" data-uid="lnk9" id="link_ConfirmacionReactivacion_.end.PLAZA_ABIERTA"><path d="M408,705.6138 C408,718.7038 408,726.3538 408,735.5538" fill="none" id="ConfirmacionReactivacion-to-*end*PLAZA_ABIERTA" style="stroke:#008000;stroke-width:1;"/><polygon fill="#008000" points="408,741.5538,412,732.5538,408,736.5538,404,732.5538,408,741.5538" style="stroke:#008000;stroke-width:1;"/></g><g id="PLAZAS_ABIERTO_FINAL"><rect fill="#F1F1F1" height="76.2969" rx="12.5" ry="12.5" style="stroke:#181818;stroke-width:0.5;" width="162.3291" x="479" y="873.2969"/><line style="stroke:#181818;stroke-width:0.5;" x1="479" x2="641.3291" y1="919.5938" y2="919.5938"/><text fill="#000000" font-family="sans-serif" font-size="14" lengthAdjust="spacing" textLength="122.3291" x="499" y="901.292">PLAZAS_ABIERTO</text></g><ellipse cx="560" cy="73.2969" fill="#222222" rx="10" ry="10" style="stroke:#222222;stroke-width:1;"/><ellipse cx="560" cy="1060.2969" fill="none" rx="11" ry="11" style="stroke:#222222;stroke-width:1;"/><ellipse cx="560" cy="1060.2969" fill="#222222" rx="6" ry="6" style="stroke:#222222;stroke-width:1;"/><!--link *start* to PLAZAS_ABIERTO_INICIAL--><g class="link" data-entity-1=".start." data-entity-2="PLAZAS_ABIERTO_INICIAL" data-source-line="11" data-uid="lnk3" id="link_.start._PLAZAS_ABIERTO_INICIAL"><path d="M560,83.4669 C560,103.6469 560,143.6769 560,176.9969" fill="none" id="*start*-to-PLAZAS_ABIERTO_INICIAL" style="stroke:#008000;stroke-width:1;"/><polygon fill="#008000" points="560,182.9969,564,173.9969,560,177.9969,556,173.9969,560,182.9969" style="stroke:#008000;stroke-width:1;"/></g><!--link PLAZAS_ABIERTO_INICIAL to PLAZA_ABIERTA--><g class="link" data-entity-1="PLAZAS_ABIERTO_INICIAL" data-entity-2="PLAZA_ABIERTA" data-source-line="13" data-uid="lnk4" id="link_PLAZAS_ABIERTO_INICIAL_PLAZA_ABIERTA"><path d="M560,259.5369 C560,285.0669 560,314.8569 560,353.0169" fill="none" id="PLAZAS_ABIERTO_INICIAL-to-PLAZA_ABIERTA" style="stroke:#008000;stroke-width:1;"/><polygon fill="#008000" points="560,359.0169,564,350.0169,560,354.0169,556,350.0169,560,359.0169" style="stroke:#008000;stroke-width:1;"/><path d="M113,214.2769 L113,304.2769 L431,304.2769 L431,224.2769 L421,214.2769 L113,214.2769" fill="#FEFFDD" style="stroke:#181818;stroke-width:0.5;"/><path d="M421,214.2769 L421,224.2769 L431,224.2769 L421,214.2769" fill="#FEFFDD" style="stroke:#181818;stroke-width:0.5;"/><text fill="#000000" font-family="sans-serif" font-size="13" font-weight="bold" lengthAdjust="spacing" textLength="136.4175" x="129" y="241.3438">Supervisor solicita</text><text fill="#000000" font-family="sans-serif" font-size="13" lengthAdjust="spacing" textLength="125.4995" x="269.5498" y="241.3438">reactivar una plaza</text><text fill="#000000" font-family="sans-serif" font-size="13" lengthAdjust="spacing" textLength="88.8799" x="129" y="256.4766">dada de baja.</text><text fill="#000000" font-family="sans-serif" font-size="13" font-weight="bold" lengthAdjust="spacing" textLength="128.7622" x="129" y="271.6094">Sistema presenta</text><text fill="#000000" font-family="sans-serif" font-size="13" lengthAdjust="spacing" textLength="122.0972" x="261.8945" y="271.6094">la ficha de la plaza</text><text fill="#000000" font-family="sans-serif" font-size="13" lengthAdjust="spacing" textLength="277.4561" x="129" y="286.7422">con la opción de confirmar la reactivación.</text><text fill="#000000" font-family="sans-serif" font-size="13" lengthAdjust="spacing" textLength="102.521" x="447.4561" y="264.043">reactivarPlaza()</text></g><!--link PLAZA_ABIERTA to PLAZAS_ABIERTO_FINAL--><g class="link" data-entity-1="PLAZA_ABIERTA" data-entity-2="PLAZAS_ABIERTO_FINAL" data-source-line="45" data-uid="lnk10" id="link_PLAZA_ABIERTA_PLAZAS_ABIERTO_FINAL"><path d="M533,773.4569 C533,811.6669 533,841.5069 533,867.0669" fill="none" id="PLAZA_ABIERTA-to-PLAZAS_ABIERTO_FINAL" style="stroke:#008000;stroke-width:1;"/><polygon fill="#008000" points="533,873.0669,537,864.0669,533,868.0669,529,864.0669,533,873.0669" style="stroke:#008000;stroke-width:1;"/><path d="M6,828.2569 L6,888.2569 L349,888.2569 L349,838.2569 L339,828.2569 L6,828.2569" fill="#FEFFDD" style="stroke:#181818;stroke-width:0.5;"/><path d="M339,828.2569 L339,838.2569 L349,838.2569 L339,828.2569" fill="#FEFFDD" style="stroke:#181818;stroke-width:0.5;"/><text fill="#000000" font-family="sans-serif" font-size="13" font-weight="bold" lengthAdjust="spacing" textLength="128.1655" x="22" y="855.3238">Sistema confirma</text><text fill="#000000" font-family="sans-serif" font-size="13" lengthAdjust="spacing" textLength="170.333" x="154.2979" y="855.3238">la reactivación de la plaza</text><text fill="#000000" font-family="sans-serif" font-size="13" lengthAdjust="spacing" textLength="194.6509" x="22" y="870.4566">y regresa al listado de plazas.</text><text fill="#000000" font-family="sans-serif" font-size="13" lengthAdjust="spacing" textLength="156.457" x="365.6309" y="862.8902">confirmarReactivacion()</text></g><!--link PLAZA_ABIERTA to PLAZAS_ABIERTO_FINAL--><g class="link" data-entity-1="PLAZA_ABIERTA" data-entity-2="PLAZAS_ABIERTO_FINAL" data-source-line="51" data-uid="lnk11" id="link_PLAZA_ABIERTA_PLAZAS_ABIERTO_FINAL"><path d="M587,773.4569 C587,811.6669 587,841.5069 587,867.0669" fill="none" id="PLAZA_ABIERTA-to-PLAZAS_ABIERTO_FINAL-1" style="stroke:#FF0000;stroke-width:1;"/><polygon fill="#FF0000" points="587,873.0669,591,864.0669,587,868.0669,583,864.0669,587,873.0669" style="stroke:#FF0000;stroke-width:1;"/><text fill="#000000" font-family="sans-serif" font-size="13" lengthAdjust="spacing" textLength="149.0303" x="598" y="878.023">cancelarReactivacion()</text><path d="M763.0303,828.2569 L763.0303,918.2569 L1088.0303,918.2569 L1088.0303,838.2569 L1078.0303,828.2569 L763.0303,828.2569" fill="#FEFFDD" style="stroke:#181818;stroke-width:0.5;"/><path d="M1078.0303,828.2569 L1078.0303,838.2569 L1088.0303,838.2569 L1078.0303,828.2569" fill="#FEFFDD" style="stroke:#181818;stroke-width:0.5;"/><text fill="#000000" font-family="sans-serif" font-size="13" font-weight="bold" lengthAdjust="spacing" textLength="82.4561" x="779.0303" y="855.3238">CANCELAR:</text><text fill="#000000" font-family="sans-serif" font-size="13" font-weight="bold" lengthAdjust="spacing" textLength="136.4175" x="779.0303" y="870.4566">Supervisor solicita</text><text fill="#000000" font-family="sans-serif" font-size="13" lengthAdjust="spacing" textLength="143.8633" x="919.5801" y="870.4566">cancelar la operación.</text><text fill="#000000" font-family="sans-serif" font-size="13" font-weight="bold" lengthAdjust="spacing" textLength="132.5645" x="779.0303" y="885.5894">Sistema mantiene</text><text fill="#000000" font-family="sans-serif" font-size="13" lengthAdjust="spacing" textLength="105.7964" x="915.7271" y="885.5894">la plaza inactiva</text><text fill="#000000" font-family="sans-serif" font-size="13" lengthAdjust="spacing" textLength="194.6509" x="779.0303" y="900.7222">y regresa al listado de plazas.</text></g><!--link PLAZAS_ABIERTO_FINAL to *end*--><g class="link" data-entity-1="PLAZAS_ABIERTO_FINAL" data-entity-2=".end." data-source-line="59" data-uid="lnk13" id="link_PLAZAS_ABIERTO_FINAL_.end."><path d="M560,949.6669 C560,982.7769 560,1022.4569 560,1043.2169" fill="none" id="PLAZAS_ABIERTO_FINAL-to-*end*" style="stroke:#0000FF;stroke-width:1;"/><polygon fill="#0000FF" points="560,1049.2169,564,1040.2169,560,1044.2169,556,1040.2169,560,1049.2169" style="stroke:#0000FF;stroke-width:1;"/></g><!--SRC=[dLJRQXin47tVhn3kIrA8cxwQODYQ50p6DKxfGqC8uzNOLYnhDvBMu9H-J3wWJ_q4_rX7yjulQQaVpAvcvipHERDZXPN8bWYH5GVGR27X1GAp4oe13NkcOeu64_Rn-hfoga7jsgTIABJ715cixJQk11R0kL0RIWy2Oy4YMyp2x-7TO_XfUhly-kLnEfzEfk6CWM63UcXGBSWEmp8lFnbqutwUpdjGW_lt3-pg_jr68wg7gt4Feo3eOTegBRYDcCxLz69UN0Og9ceIrvR5ogcq2nZzRbRZkpH1VH0crip4KaJ2mis7rRX4OAa2bdXFN0a73emZMy4J30iGOIpkAKsJKof3aC3M8jhwR5c5Y1m5O74IYTDlvS9qiXPwJyteFE_ieyC05MUEVT1fmm-FU8vy4oO5ALweCbR-ubxtod7MpiS6bSf9rjyLBelsHDFLby6iV5abI3uwdAQNRIu-pTkWnMPBFgpxaXgYxbCqLcUQneOSiEw_8Qhx7HdmWq1DFPvJR6b9RtJTL8C-lHOr3l5m-gMYr3sPr2GakE3qx6oYzo9pVtfzJeKYIOxC0ZrAYPhom8YD0geOrjYNSvMaI6ppwTB-8eNZ9Jno0OgeunD6AULLZRYuF8ENm-3UEWolUj3hwgYdHuT5VHYTHe6EYj7tpj0rzp4xLmsxId972dCxhIWgCql-rOgwMhroL3MZEGv-PYkd-CZUM5BdzJOg_MmeshztCWNombot-iGsf_n8SQ9YwCkM14VYyTWb-GnJNHQj6sZaR_475Q7iffyDGvt_99nFRcVXSkI8_ssPvkZdjOSwtssj0L9MeCBw397FdjB_2D2yAEcmaYbcJly1]--></g></svg>