<?plantuml 1.2026.2?>
<svg xmlns="http://www.w3.org/2000/svg" xmlns:xlink="http://www.w3.org/1999/xlink" contentStyleType="text/css" data-diagram-type="STATE" height="821px" preserveAspectRatio="none" style="width:1435px;height:821px;background:#FFFFFF;" version="1.1" viewBox="0 0 1435 821" width="1435px" zoomAndPan="magnify"><defs/><g><path d="M19.5,7 L1409.5,7 A12.5,12.5 0 0 1 1422,19.5 L1422,33.2969 L7,33.2969 L7,19.5 A12.5,12.5 0 0 1 19.5,7" fill="#F1F1F1"/><rect fill="none" height="663.2969" rx="12.5" ry="12.5" style="stroke:#181818;stroke-width:0.5;" width="1415" x="7" y="7"/><line style="stroke:#181818;stroke-width:0.5;" x1="7" x2="1422" y1="33.2969" y2="33.2969"/><text fill="#000000" font-family="sans-serif" font-size="14" lengthAdjust="spacing" textLength="225.374" x="601.813" y="24.9951">autorizarReembolso(reembolso)</text><g class="entity" data-qualified-name="autorizarReembolso.RequiringAction" id="ent0003"><rect fill="#F1F1F1" height="50" rx="12.5" ry="12.5" style="stroke:#181818;stroke-width:0.5;" width="50" x="414" y="135.2969"/><line style="stroke:#181818;stroke-width:0.5;" x1="414" x2="464" y1="161.5938" y2="161.5938"/><text fill="#000000" font-family="sans-serif" font-size="14" lengthAdjust="spacing" textLength="4.4502" x="436.7749" y="153.292"> </text></g><g class="entity" data-qualified-name="autorizarReembolso.ProvidingDetails" id="ent0004"><rect fill="#F1F1F1" height="50" rx="12.5" ry="12.5" style="stroke:#181818;stroke-width:0.5;" width="50" x="414" y="286.2969"/><line style="stroke:#181818;stroke-width:0.5;" x1="414" x2="464" y1="312.5938" y2="312.5938"/><text fill="#000000" font-family="sans-serif" font-size="14" lengthAdjust="spacing" textLength="4.4502" x="436.7749" y="304.292"> </text></g><g class="entity" data-qualified-name="autorizarReembolso.ValidatingRejection" id="ent0005"><rect fill="#F1F1F1" height="50" rx="12.5" ry="12.5" style="stroke:#181818;stroke-width:0.5;" width="50" x="19" y="407.2969"/><line style="stroke:#181818;stroke-width:0.5;" x1="19" x2="69" y1="433.5938" y2="433.5938"/><text fill="#000000" font-family="sans-serif" font-size="14" lengthAdjust="spacing" textLength="4.4502" x="41.7749" y="425.292"> </text></g><g class="entity" data-qualified-name="autorizarReembolso.c" id="ent0006"><polygon fill="#F1F1F1" points="105,543.2969,117,555.2969,105,567.2969,93,555.2969,105,543.2969" style="stroke:#181818;stroke-width:0.5;"/></g><g class="start_entity" data-qualified-name="autorizarReembolso..start.autorizarReembolso" data-source-line="10" id="ent0002"><ellipse cx="439" cy="54.2969" fill="#222222" rx="10" ry="10" style="stroke:#222222;stroke-width:1;"/></g><g class="end_entity" data-qualified-name="autorizarReembolso..end.autorizarReembolso" data-source-line="22" id="ent0005"><ellipse cx="414" cy="649.2969" fill="none" rx="11" ry="11" style="stroke:#222222;stroke-width:1;"/><ellipse cx="414" cy="649.2969" fill="#222222" rx="6" ry="6" style="stroke:#222222;stroke-width:1;"/></g><!--link *start*autorizarReembolso to RequiringAction--><g class="link" data-entity-1="ent0002" data-entity-2="ent0003" data-link-type="dependency" data-source-line="10" id="lnk3"><path d="M439,64.5269 C439,80.2369 439,106.6569 439,129.1669" fill="none" id="*start*autorizarReembolso-to-RequiringAction" style="stroke:#008000;stroke-width:1;"/><polygon fill="#008000" points="439,135.1669,443,126.1669,439,130.1669,435,126.1669,439,135.1669" style="stroke:#008000;stroke-width:1;"/><path d="M444,87.2969 L444,112.2969 L806,112.2969 L806,97.2969 L796,87.2969 L444,87.2969" fill="#FEFFDD" style="stroke:#181818;stroke-width:0.5;"/><path d="M796,87.2969 L796,97.2969 L806,97.2969 L796,87.2969" fill="#FEFFDD" style="stroke:#181818;stroke-width:0.5;"/><text fill="#000000" font-family="sans-serif" font-size="13" font-weight="bold" lengthAdjust="spacing" textLength="79.1616" x="450" y="104.3638">Supervisor</text><text fill="#000000" font-family="sans-serif" font-size="13" lengthAdjust="spacing" textLength="257.7466" x="533.2939" y="104.3638">solicita revisar un reembolso pendiente</text></g><!--link RequiringAction to ProvidingDetails--><g class="link" data-entity-1="ent0003" data-entity-2="ent0004" data-link-type="dependency" data-source-line="15" id="lnk4"><path d="M439,185.5669 C439,213.2769 439,252.3369 439,280.0369" fill="none" id="RequiringAction-to-ProvidingDetails" style="stroke:#008000;stroke-width:1;"/><polygon fill="#008000" points="439,286.0369,443,277.0369,439,281.0369,435,277.0369,439,286.0369" style="stroke:#008000;stroke-width:1;"/><path d="M444,208.2969 L444,263.2969 L1025,263.2969 L1025,218.2969 L1015,208.2969 L444,208.2969" fill="#FEFFDD" style="stroke:#181818;stroke-width:0.5;"/><path d="M1015,208.2969 L1015,218.2969 L1025,218.2969 L1015,208.2969" fill="#FEFFDD" style="stroke:#181818;stroke-width:0.5;"/><text fill="#000000" font-family="sans-serif" font-size="13" font-weight="bold" lengthAdjust="spacing" textLength="58.9063" x="450" y="225.3638">Sistema</text><text fill="#000000" font-family="sans-serif" font-size="13" lengthAdjust="spacing" textLength="497.9038" x="513.0386" y="225.3638">presenta detalle del reembolso (venta original, monto, motivo de anulación)</text><text fill="#000000" font-family="sans-serif" font-size="13" lengthAdjust="spacing" textLength="245.4956" x="450" y="240.4966">• Permite solicitar aprobar reembolso</text><text fill="#000000" font-family="sans-serif" font-size="13" lengthAdjust="spacing" textLength="369.4146" x="450" y="255.6294">• Permite solicitar rechazar reembolso (requiere motivo)</text></g><!--link ProvidingDetails to *end*autorizarReembolso--><g class="link" data-entity-1="ent0004" data-entity-2="ent0005" data-link-type="dependency" data-source-line="22" id="lnk6"><path d="M464.38,321.7569 C528.88,345.7869 694,407.2969 694,407.2969 C694,407.2969 710,585.2969 710,585.2969 C710,585.2969 710,620.2969 710,620.2969 C710,620.2969 484.2633,641.652 430.8633,646.702" fill="none" id="ProvidingDetails-to-*end*autorizarReembolso" style="stroke:#008000;stroke-width:1;"/><polygon fill="#008000" points="424.89,647.2669,434.2266,650.4018,429.8678,646.7961,433.4734,642.4373,424.89,647.2669" style="stroke:#008000;stroke-width:1;"/><path d="M709,480.2969 L709,520.2969 L1413,520.2969 L1413,490.2969 L1403,480.2969 L709,480.2969" fill="#FEFFDD" style="stroke:#181818;stroke-width:0.5;"/><path d="M1403,480.2969 L1403,490.2969 L1413,490.2969 L1403,480.2969" fill="#FEFFDD" style="stroke:#181818;stroke-width:0.5;"/><text fill="#000000" font-family="sans-serif" font-size="13" font-weight="bold" lengthAdjust="spacing" textLength="79.1616" x="715" y="497.3638">Supervisor</text><text fill="#000000" font-family="sans-serif" font-size="13" lengthAdjust="spacing" textLength="142.4414" x="798.2939" y="497.3638">aprueba el reembolso</text><text fill="#000000" font-family="sans-serif" font-size="13" font-weight="bold" lengthAdjust="spacing" textLength="58.9063" x="715" y="512.4966">Sistema</text><text fill="#000000" font-family="sans-serif" font-size="13" lengthAdjust="spacing" textLength="620.9595" x="778.0386" y="512.4966">marca el reembolso como aprobado, notifica al Taquillero para la devolución y guarda cambios</text></g><!--link ProvidingDetails to ValidatingRejection--><g class="link" data-entity-1="ent0004" data-entity-2="ent0005" data-link-type="dependency" data-source-line="28" id="lnk7"><path d="M413.71,315.0869 C328.61,324.4669 58,354.2969 58,354.2969 C58,354.2969 53.6029,378.4736 49.5029,401.0336" fill="none" id="ProvidingDetails-to-ValidatingRejection" style="stroke:#FF0000;stroke-width:1;"/><polygon fill="#FF0000" points="48.43,406.9369,53.9748,398.7972,49.324,402.0175,46.1037,397.3667,48.43,406.9369" style="stroke:#FF0000;stroke-width:1;"/><path d="M63,359.2969 L63,384.2969 L420,384.2969 L420,369.2969 L410,359.2969 L63,359.2969" fill="#FEFFDD" style="stroke:#181818;stroke-width:0.5;"/><path d="M410,359.2969 L410,369.2969 L420,369.2969 L410,359.2969" fill="#FEFFDD" style="stroke:#181818;stroke-width:0.5;"/><text fill="#000000" font-family="sans-serif" font-size="13" font-weight="bold" lengthAdjust="spacing" textLength="79.1616" x="69" y="376.3638">Supervisor</text><text fill="#000000" font-family="sans-serif" font-size="13" lengthAdjust="spacing" textLength="253.4619" x="152.2939" y="376.3638">rechaza el reembolso e ingresa motivo</text></g><!--link ValidatingRejection to c--><g class="link" data-entity-1="ent0005" data-entity-2="ent0006" data-link-type="dependency" data-source-line="33" id="lnk8"><path d="M37.02,457.7269 C34.38,466.9669 32,475.2969 32,475.2969 C32,475.2969 32,525.2969 32,525.2969 C32,525.2969 72.3237,541.3222 91.3337,548.8722" fill="none" id="ValidatingRejection-to-c" style="stroke:#FF0000;stroke-width:1;"/><polygon fill="#FF0000" points="96.91,551.0869,90.022,544.0473,92.2631,549.2413,87.0691,551.4824,96.91,551.0869" style="stroke:#FF0000;stroke-width:1;"/><path d="M37,487.7969 L37,512.7969 L420,512.7969 L420,497.7969 L410,487.7969 L37,487.7969" fill="#FEFFDD" style="stroke:#181818;stroke-width:0.5;"/><path d="M410,487.7969 L410,497.7969 L420,497.7969 L410,487.7969" fill="#FEFFDD" style="stroke:#181818;stroke-width:0.5;"/><text fill="#000000" font-family="sans-serif" font-size="13" font-weight="bold" lengthAdjust="spacing" textLength="58.9063" x="43" y="504.8638">Sistema</text><text fill="#000000" font-family="sans-serif" font-size="13" lengthAdjust="spacing" textLength="299.3872" x="106.0386" y="504.8638">valida que el motivo de rechazo no esté vacío</text></g><!--link c to ProvidingDetails--><g class="link" data-entity-1="ent0006" data-entity-2="ent0004" data-link-type="dependency" data-source-line="38" id="lnk9"><path d="M115.28,553.3669 C170.06,548.3969 425,525.2969 425,525.2969 C425,525.2969 433.3666,398.004 437.0266,342.304" fill="none" id="c-to-ProvidingDetails" style="stroke:#FF0000;stroke-width:1;"/><polygon fill="#FF0000" points="437.42,336.3169,432.8385,345.0352,437.0922,341.3061,440.8213,345.5598,437.42,336.3169" style="stroke:#FF0000;stroke-width:1;"/><path d="M438,419.7969 L438,444.7969 L685,444.7969 L685,429.7969 L675,419.7969 L438,419.7969" fill="#FEFFDD" style="stroke:#181818;stroke-width:0.5;"/><path d="M675,419.7969 L675,429.7969 L685,429.7969 L675,419.7969" fill="#FEFFDD" style="stroke:#181818;stroke-width:0.5;"/><text fill="#000000" font-family="sans-serif" font-size="13" lengthAdjust="spacing" textLength="226.624" x="444" y="436.8638">motivo de rechazo inválido o vacío</text></g><!--link c to *end*autorizarReembolso--><g class="link" data-entity-1="ent0006" data-entity-2="ent0005" data-link-type="dependency" data-source-line="43" id="lnk10"><path d="M105.17,567.1569 C105.45,585.4169 106,620.2969 106,620.2969 C106,620.2969 342.1946,641.7745 397.0646,646.7545" fill="none" id="c-to-*end*autorizarReembolso" style="stroke:#008000;stroke-width:1;"/><polygon fill="#008000" points="403.04,647.2969,394.4384,642.4998,398.0605,646.8449,393.7153,650.467,403.04,647.2969" style="stroke:#008000;stroke-width:1;"/><path d="M111,590.2969 L111,615.2969 L705,615.2969 L705,600.2969 L695,590.2969 L111,590.2969" fill="#FEFFDD" style="stroke:#181818;stroke-width:0.5;"/><path d="M695,590.2969 L695,600.2969 L705,600.2969 L695,590.2969" fill="#FEFFDD" style="stroke:#181818;stroke-width:0.5;"/><text fill="#000000" font-family="sans-serif" font-size="13" lengthAdjust="spacing" textLength="573.3394" x="117" y="607.3638">motivo válido, reembolso marcado como rechazado, notificado al Taquillero y guardado</text></g><g class="entity" data-qualified-name="REEMBOLSOS_ABIERTO" id="ent0011"><rect fill="#F1F1F1" height="50" rx="12.5" ry="12.5" style="stroke:#181818;stroke-width:0.5;" width="185.1699" x="622" y="765"/><line style="stroke:#181818;stroke-width:0.5;" x1="622" x2="807.1699" y1="791.2969" y2="791.2969"/><text fill="#000000" font-family="sans-serif" font-size="14" lengthAdjust="spacing" textLength="165.1699" x="632" y="782.9951">REEMBOLSOS_ABIERTO</text></g><!--link autorizarReembolso to REEMBOLSOS_ABIERTO--><g class="link" data-entity-1="ent0002" data-entity-2="ent0011" data-link-type="dependency" data-source-line="49" id="lnk12"><path d="M621.85,670.19 C616.66,688.74 613.5,700 613.5,700 C613.5,700 613.5,735 613.5,735 C613.5,735 637.1382,747.6421 664.0282,762.0121" fill="none" id="autorizarReembolso-to-REEMBOLSOS_ABIERTO" style="stroke:#008000;stroke-width:1;"/><polygon fill="#008000" points="669.32,764.84,663.2676,757.0703,664.9102,762.4834,659.4971,764.126,669.32,764.84" style="stroke:#008000;stroke-width:1;"/><path d="M618.5,705 L618.5,730 L764.5,730 L764.5,715 L754.5,705 L618.5,705" fill="#FEFFDD" style="stroke:#181818;stroke-width:0.5;"/><path d="M754.5,705 L754.5,715 L764.5,715 L754.5,705" fill="#FEFFDD" style="stroke:#181818;stroke-width:0.5;"/><text fill="#000000" font-family="sans-serif" font-size="13" lengthAdjust="spacing" textLength="125.9248" x="624.5" y="722.0669">completarGestion()</text></g><!--link autorizarReembolso to REEMBOLSOS_ABIERTO--><g class="link" data-entity-1="ent0002" data-entity-2="ent0011" data-link-type="dependency" data-source-line="54" id="lnk13"><path d="M768.62,670.19 C771.66,688.74 773.5,700 773.5,700 C773.5,700 773.5,735 773.5,735 C773.5,735 761.0273,746.4204 745.3173,760.7904" fill="none" id="autorizarReembolso-to-REEMBOLSOS_ABIERTO-1" style="stroke:#0000FF;stroke-width:1;"/><polygon fill="#0000FF" points="740.89,764.84,750.2306,761.7171,744.5794,761.4653,744.8311,755.8141,740.89,764.84" style="stroke:#0000FF;stroke-width:1;"/><path d="M778.5,705 L778.5,730 L909.5,730 L909.5,715 L899.5,705 L778.5,705" fill="#FEFFDD" style="stroke:#181818;stroke-width:0.5;"/><path d="M899.5,705 L899.5,715 L909.5,715 L899.5,705" fill="#FEFFDD" style="stroke:#181818;stroke-width:0.5;"/><text fill="#000000" font-family="sans-serif" font-size="13" lengthAdjust="spacing" textLength="110.7793" x="784.5" y="722.0669">cancelar revisión</text></g><?plantuml-src ZLJ1RjD04BtxAqRXag1M_40KgHKHGWAbIYekLON6wo4TkjvnrsjBAKBYL-36WHEVa3_XInWxJcedXZevhBsUUVFUssVdz-moz9Y2PKTXan5aOZVLJHJb0GC15a4yFw9V4gMns5m0SnYTRe_z_ceoWYzH1FhRGOpqhprBUYZOirjVcC3YJWkkl9ISQC5h2iWsFwtuW9OJ35gofCzq36DWEZLtmePciztycvUtS7xpOgtKtEtvh9U24sqLLpbmNszCuzcgoCYNd8kVlefda8jbmm71aswYXyB1GIrav18c5wZkrfiQSaVWQ627JA_SNZQS1qgnff9vodKMGg9DrfAkjiLbNDOFzMZMxD2UGIekIBK4BaMB0LrXqV3sjvlK-7--_O0hyYdhtBrE3vXvYNKz8F-drfEvmyTsCMWML3TvQWPFUgmvbj_nHWzkwE4erO9YXBOFVSwbw4st2eoaqaXDr2GTnfzOYz32DQe0zTVh-UeB0hPol1HRrDR11jO5-WJ1O1gpv0FrUKegTV-AyG2rZTbT7GGAfS70nkuUDZqZMuJCeEoLDGOy55IDVuhKZfDeFr0UjZ-rq6n_zR4mhPd3udywXLsv_Qv41EIPGS-dgK5l0CzQbjPfIPg8DAQtCwAFkYdP9o8velCrYde-ePsFqdp-_dBnRhLOVRouV3jVNY-Y3b6ba5droBzHT_NSnfFeIMm_TcmB6WIDpf2jNrsDM9Ni0_HV?></g></svg>