<?plantuml 1.2026.2?><svg xmlns="http://www.w3.org/2000/svg" xmlns:xlink="http://www.w3.org/1999/xlink" contentStyleType="text/css" data-diagram-type="STATE" height="605px" preserveAspectRatio="none" style="width:585px;height:605px;background:#FFFFFF;" version="1.1" viewBox="0 0 585 605" width="585px" zoomAndPan="magnify"><defs/><g><path d="M19.5,7 L447.5,7 A12.5,12.5 0 0 1 460,19.5 L460,33.2969 L7,33.2969 L7,19.5 A12.5,12.5 0 0 1 19.5,7" fill="#F1F1F1"/><rect fill="none" height="447.2969" rx="12.5" ry="12.5" style="stroke:#181818;stroke-width:0.5;" width="453" x="7" y="7"/><line style="stroke:#181818;stroke-width:0.5;" x1="7" x2="460" y1="33.2969" y2="33.2969"/><text fill="#000000" font-family="sans-serif" font-size="14" lengthAdjust="spacing" textLength="74.6143" x="196.1929" y="24.9951">abrirCaja()</text><g class="entity" data-qualified-name="abrirCaja.MostrandoEstado" id="ent0003"><rect fill="#F1F1F1" height="50" rx="12.5" ry="12.5" style="stroke:#181818;stroke-width:0.5;" width="50" x="19" y="135.2969"/><line style="stroke:#181818;stroke-width:0.5;" x1="19" x2="69" y1="161.5938" y2="161.5938"/><text fill="#000000" font-family="sans-serif" font-size="14" lengthAdjust="spacing" textLength="4.4502" x="41.7749" y="153.292">&#160;</text></g><g class="entity" data-qualified-name="abrirCaja.EsperandoAccion" id="ent0004"><rect fill="#F1F1F1" height="50" rx="12.5" ry="12.5" style="stroke:#181818;stroke-width:0.5;" width="50" x="19" y="301.2969"/><line style="stroke:#181818;stroke-width:0.5;" x1="19" x2="69" y1="327.5938" y2="327.5938"/><text fill="#000000" font-family="sans-serif" font-size="14" lengthAdjust="spacing" textLength="4.4502" x="41.7749" y="319.292">&#160;</text></g><g class="start_entity" data-qualified-name="abrirCaja..start.abrirCaja" data-source-line="8" id="ent0002"><ellipse cx="44" cy="54.2969" fill="#222222" rx="10" ry="10" style="stroke:#222222;stroke-width:1;"/></g><g class="end_entity" data-qualified-name="abrirCaja..end.abrirCaja" data-source-line="21" id="ent0005"><ellipse cx="44" cy="433.2969" fill="none" rx="11" ry="11" style="stroke:#222222;stroke-width:1;"/><ellipse cx="44" cy="433.2969" fill="#222222" rx="6" ry="6" style="stroke:#222222;stroke-width:1;"/></g><!--link *start*abrirCaja to MostrandoEstado--><g class="link" data-entity-1="ent0002" data-entity-2="ent0003" data-link-type="dependency" data-source-line="8" id="lnk3"><path d="M44,64.5269 C44,80.2369 44,106.6569 44,129.1669" fill="none" id="*start*abrirCaja-to-MostrandoEstado" style="stroke:#008000;stroke-width:1;"/><polygon fill="#008000" points="44,135.1669,48,126.1669,44,130.1669,40,126.1669,44,135.1669" style="stroke:#008000;stroke-width:1;"/><path d="M49,87.2969 L49,112.2969 L313,112.2969 L313,97.2969 L303,87.2969 L49,87.2969" fill="#FEFFDD" style="stroke:#181818;stroke-width:0.5;"/><path d="M303,87.2969 L303,97.2969 L313,97.2969 L303,87.2969" fill="#FEFFDD" style="stroke:#181818;stroke-width:0.5;"/><text fill="#000000" font-family="sans-serif" font-size="13" font-weight="bold" lengthAdjust="spacing" textLength="56.1196" x="55" y="104.3638">Usuario</text><text fill="#000000" font-family="sans-serif" font-size="13" lengthAdjust="spacing" textLength="183.6885" x="115.252" y="104.3638">solicita abrir gesti&#243;n de caja</text></g><!--link MostrandoEstado to EsperandoAccion--><g class="link" data-entity-1="ent0003" data-entity-2="ent0004" data-link-type="dependency" data-source-line="13" id="lnk4"><path d="M44,185.4969 C44,216.5869 44,264.2469 44,295.2669" fill="none" id="MostrandoEstado-to-EsperandoAccion" style="stroke:#008000;stroke-width:1;"/><polygon fill="#008000" points="44,301.2669,48,292.2669,44,296.2669,40,292.2669,44,301.2669" style="stroke:#008000;stroke-width:1;"/><path d="M49,208.2969 L49,278.2969 L451,278.2969 L451,218.2969 L441,208.2969 L49,208.2969" fill="#FEFFDD" style="stroke:#181818;stroke-width:0.5;"/><path d="M441,208.2969 L441,218.2969 L451,218.2969 L441,208.2969" fill="#FEFFDD" style="stroke:#181818;stroke-width:0.5;"/><text fill="#000000" font-family="sans-serif" font-size="13" font-weight="bold" lengthAdjust="spacing" textLength="58.9063" x="55" y="225.3638">Sistema</text><text fill="#000000" font-family="sans-serif" font-size="13" lengthAdjust="spacing" textLength="172.7578" x="118.0386" y="225.3638">presenta estado de la caja</text><text fill="#000000" font-family="sans-serif" font-size="13" lengthAdjust="spacing" textLength="381.2974" x="55" y="240.4966">&#8226; Saldo de apertura, total recaudado y resumen de ventas</text><text fill="#000000" font-family="sans-serif" font-size="13" lengthAdjust="spacing" textLength="259.251" x="55" y="255.6294">&#8226; Permite solicitar revisar cierre de caja</text><text fill="#000000" font-family="sans-serif" font-size="13" lengthAdjust="spacing" textLength="281.3726" x="55" y="270.7622">&#8226; Permite solicitar consolidar cierre de caja</text></g><!--link EsperandoAccion to *end*abrirCaja--><g class="link" data-entity-1="ent0004" data-entity-2="ent0005" data-link-type="dependency" data-source-line="21" id="lnk6"><path d="M44,351.3869 C44,373.7869 44,400.0669 44,416.2469" fill="none" id="EsperandoAccion-to-*end*abrirCaja" style="stroke:#008000;stroke-width:1;"/><polygon fill="#008000" points="44,422.2469,48,413.2469,44,417.2469,40,413.2469,44,422.2469" style="stroke:#008000;stroke-width:1;"/><path d="M49,374.2969 L49,399.2969 L309,399.2969 L309,384.2969 L299,374.2969 L49,374.2969" fill="#FEFFDD" style="stroke:#181818;stroke-width:0.5;"/><path d="M299,374.2969 L299,384.2969 L309,384.2969 L299,374.2969" fill="#FEFFDD" style="stroke:#181818;stroke-width:0.5;"/><text fill="#000000" font-family="sans-serif" font-size="13" font-weight="bold" lengthAdjust="spacing" textLength="56.1196" x="55" y="391.3638">Usuario</text><text fill="#000000" font-family="sans-serif" font-size="13" lengthAdjust="spacing" textLength="179.2769" x="115.252" y="391.3638">solicita una de las opciones</text></g><g class="entity" data-qualified-name="CAJA_ABIERTA" id="ent0007"><rect fill="#F1F1F1" height="50" rx="12.5" ry="12.5" style="stroke:#181818;stroke-width:0.5;" width="120.0713" x="67.5" y="549"/><line style="stroke:#181818;stroke-width:0.5;" x1="67.5" x2="187.5713" y1="575.2969" y2="575.2969"/><text fill="#000000" font-family="sans-serif" font-size="14" lengthAdjust="spacing" textLength="100.0713" x="77.5" y="566.9951">CAJA_ABIERTA</text></g><g class="entity" data-qualified-name="SISTEMA_DISPONIBLE" id="ent0010"><rect fill="#F1F1F1" height="50" rx="12.5" ry="12.5" style="stroke:#181818;stroke-width:0.5;" width="172.0654" x="381.5" y="549"/><line style="stroke:#181818;stroke-width:0.5;" x1="381.5" x2="553.5654" y1="575.2969" y2="575.2969"/><text fill="#000000" font-family="sans-serif" font-size="14" lengthAdjust="spacing" textLength="152.0654" x="391.5" y="566.9951">SISTEMA_DISPONIBLE</text></g><!--link abrirCaja to CAJA_ABIERTA--><g class="link" data-entity-1="ent0002" data-entity-2="ent0007" data-link-type="dependency" data-source-line="27" id="lnk8"><path d="M44.89,454.04 C29.38,472.35 19.5,484 19.5,484 C19.5,484 19.5,519 19.5,519 C19.5,519 45.0627,531.7882 73.8227,546.1582" fill="none" id="abrirCaja-to-CAJA_ABIERTA" style="stroke:#008000;stroke-width:1;"/><polygon fill="#008000" points="79.19,548.84,72.9269,541.2391,74.7172,546.6052,69.3512,548.3955,79.19,548.84" style="stroke:#008000;stroke-width:1;"/><path d="M24.5,489 L24.5,514 L185.5,514 L185.5,499 L175.5,489 L24.5,489" fill="#FEFFDD" style="stroke:#181818;stroke-width:0.5;"/><path d="M175.5,489 L175.5,499 L185.5,499 L175.5,489" fill="#FEFFDD" style="stroke:#181818;stroke-width:0.5;"/><text fill="#000000" font-family="sans-serif" font-size="13" lengthAdjust="spacing" textLength="140.8799" x="30.5" y="506.0669">revisarCierreDeCaja()</text></g><!--link abrirCaja to CAJA_ABIERTA--><g class="link" data-entity-1="ent0002" data-entity-2="ent0007" data-link-type="dependency" data-source-line="32" id="lnk9"><path d="M203.3,454.12 C198.19,491.79 194.5,519 194.5,519 C194.5,519 179.9827,530.7062 162.1427,545.0762" fill="none" id="abrirCaja-to-CAJA_ABIERTA-1" style="stroke:#008000;stroke-width:1;"/><polygon fill="#008000" points="157.47,548.84,166.9882,546.3094,161.3639,545.7035,161.9698,540.0792,157.47,548.84" style="stroke:#008000;stroke-width:1;"/><path d="M204.5,489 L204.5,514 L388.5,514 L388.5,499 L378.5,489 L204.5,489" fill="#FEFFDD" style="stroke:#181818;stroke-width:0.5;"/><path d="M378.5,489 L378.5,499 L388.5,499 L378.5,489" fill="#FEFFDD" style="stroke:#181818;stroke-width:0.5;"/><text fill="#000000" font-family="sans-serif" font-size="13" lengthAdjust="spacing" textLength="163.0015" x="210.5" y="506.0669">consolidarCierreDeCaja()</text></g><!--link abrirCaja to SISTEMA_DISPONIBLE--><g class="link" data-entity-1="ent0002" data-entity-2="ent0010" data-link-type="dependency" data-source-line="37" id="lnk11"><path d="M385.99,454.04 C412.26,492.39 432.5088,521.9303 447.4788,543.7803" fill="none" id="abrirCaja-to-SISTEMA_DISPONIBLE" style="stroke:#008000;stroke-width:1;"/><polygon fill="#008000" points="450.87,548.73,449.083,539.0446,448.044,544.6052,442.4834,543.5662,450.87,548.73" style="stroke:#008000;stroke-width:1;"/><path d="M432.5,489 L432.5,514 L578.5,514 L578.5,499 L568.5,489 L432.5,489" fill="#FEFFDD" style="stroke:#181818;stroke-width:0.5;"/><path d="M568.5,489 L568.5,499 L578.5,499 L568.5,489" fill="#FEFFDD" style="stroke:#181818;stroke-width:0.5;"/><text fill="#000000" font-family="sans-serif" font-size="13" lengthAdjust="spacing" textLength="125.9248" x="438.5" y="506.0669">completarGestion()</text></g><?plantuml-src bP9HJi9048RVznGJV54ZyGA4f41ZQaI9nIT2oD1Eo4gxs-nkIOWnyInUmIDu4q_YjAj0ApxGFdHtE_Fz_yoENKjLeC4SCgd8RGk2GcVRQYE4TUW8S6ca6U8p0bhex7Rd5nru4GBuyN4TVZbYhAqpg58Tyd6g_mQ4jg0w84WIgPL7p2xdq9sThGoHcdVxHobACqIhokcwFkWj-q-sH2DrxthP1wipcKY7tZ6io3hv-Q4W9KZOS9r2AgqvNhMbqd3GjlcVWrXQHpdM3Wf3bXGx8CzZvGptubzlxn1ZvdyWurrfy0gSTfY1eGJBjChQyjgMETNEDnNFxj8dP7B99dvhDHoxaPQ_YIHZg57iyOH4gsgJ7izfDgZLX4Q3-CfEkvPIeU-81LrKEB9DoLSXziDsA3KCReD5C8Z2nsaW6de_rG_hGaRa1rFiYpYLjs_EYSWuYgVXE5YCedZoS1yDxi8sE2youlxVL6EfrG7o6m00?></g></svg>