<?plantuml 1.2026.2?>
<svg xmlns="http://www.w3.org/2000/svg" xmlns:xlink="http://www.w3.org/1999/xlink" contentStyleType="text/css" data-diagram-type="STATE" height="620px" preserveAspectRatio="none" style="width:574px;height:620px;background:#FFFFFF;" version="1.1" viewBox="0 0 574 620" width="574px" zoomAndPan="magnify"><defs/><g><path d="M19.5,7 L548.5,7 A12.5,12.5 0 0 1 561,19.5 L561,33.2969 L7,33.2969 L7,19.5 A12.5,12.5 0 0 1 19.5,7" fill="#F1F1F1"/><rect fill="none" height="462.2969" rx="12.5" ry="12.5" style="stroke:#181818;stroke-width:0.5;" width="554" x="7" y="7"/><line style="stroke:#181818;stroke-width:0.5;" x1="7" x2="561" y1="33.2969" y2="33.2969"/><text fill="#000000" font-family="sans-serif" font-size="14" lengthAdjust="spacing" textLength="215.9746" x="176.0127" y="24.9951">asignarTaquilleroAPlaza(plaza)</text><g class="entity" data-qualified-name="asignarTaquilleroAPlaza.SolicitandoAsignacion" id="ent0003"><rect fill="#F1F1F1" height="50" rx="12.5" ry="12.5" style="stroke:#181818;stroke-width:0.5;" width="50" x="19" y="135.2969"/><line style="stroke:#181818;stroke-width:0.5;" x1="19" x2="69" y1="161.5938" y2="161.5938"/><text fill="#000000" font-family="sans-serif" font-size="14" lengthAdjust="spacing" textLength="4.4502" x="41.7749" y="153.292"> </text></g><g class="entity" data-qualified-name="asignarTaquilleroAPlaza.ProcesandoAsignacion" id="ent0004"><rect fill="#F1F1F1" height="50" rx="12.5" ry="12.5" style="stroke:#181818;stroke-width:0.5;" width="50" x="19" y="301.2969"/><line style="stroke:#181818;stroke-width:0.5;" x1="19" x2="69" y1="327.5938" y2="327.5938"/><text fill="#000000" font-family="sans-serif" font-size="14" lengthAdjust="spacing" textLength="4.4502" x="41.7749" y="319.292"> </text></g><g class="start_entity" data-qualified-name="asignarTaquilleroAPlaza..start.asignarTaquilleroAPlaza" data-source-line="8" id="ent0002"><ellipse cx="44" cy="54.2969" fill="#222222" rx="10" ry="10" style="stroke:#222222;stroke-width:1;"/></g><g class="end_entity" data-qualified-name="asignarTaquilleroAPlaza..end.asignarTaquilleroAPlaza" data-source-line="21" id="ent0005"><ellipse cx="44" cy="448.2969" fill="none" rx="11" ry="11" style="stroke:#222222;stroke-width:1;"/><ellipse cx="44" cy="448.2969" fill="#222222" rx="6" ry="6" style="stroke:#222222;stroke-width:1;"/></g><!--link *start*asignarTaquilleroAPlaza to SolicitandoAsignacion--><g class="link" data-entity-1="ent0002" data-entity-2="ent0003" data-link-type="dependency" data-source-line="8" id="lnk3"><path d="M44,64.5269 C44,80.2369 44,106.6569 44,129.1669" fill="none" id="*start*asignarTaquilleroAPlaza-to-SolicitandoAsignacion" style="stroke:#008000;stroke-width:1;"/><polygon fill="#008000" points="44,135.1669,48,126.1669,44,130.1669,40,126.1669,44,135.1669" style="stroke:#008000;stroke-width:1;"/><path d="M49,87.2969 L49,112.2969 L417,112.2969 L417,97.2969 L407,87.2969 L49,87.2969" fill="#FEFFDD" style="stroke:#181818;stroke-width:0.5;"/><path d="M407,87.2969 L407,97.2969 L417,97.2969 L407,87.2969" fill="#FEFFDD" style="stroke:#181818;stroke-width:0.5;"/><text fill="#000000" font-family="sans-serif" font-size="13" font-weight="bold" lengthAdjust="spacing" textLength="79.1616" x="55" y="104.3638">Supervisor</text><text fill="#000000" font-family="sans-serif" font-size="13" lengthAdjust="spacing" textLength="263.9165" x="138.2939" y="104.3638">solicita asignar un taquillero a una plaza</text></g><!--link SolicitandoAsignacion to ProcesandoAsignacion--><g class="link" data-entity-1="ent0003" data-entity-2="ent0004" data-link-type="dependency" data-source-line="13" id="lnk4"><path d="M44,185.4969 C44,216.5869 44,264.2469 44,295.2669" fill="none" id="SolicitandoAsignacion-to-ProcesandoAsignacion" style="stroke:#008000;stroke-width:1;"/><polygon fill="#008000" points="44,301.2669,48,292.2669,44,296.2669,40,292.2669,44,301.2669" style="stroke:#008000;stroke-width:1;"/><path d="M49,208.2969 L49,278.2969 L515,278.2969 L515,218.2969 L505,208.2969 L49,208.2969" fill="#FEFFDD" style="stroke:#181818;stroke-width:0.5;"/><path d="M505,208.2969 L505,218.2969 L515,218.2969 L505,208.2969" fill="#FEFFDD" style="stroke:#181818;stroke-width:0.5;"/><text fill="#000000" font-family="sans-serif" font-size="13" font-weight="bold" lengthAdjust="spacing" textLength="58.9063" x="55" y="225.3638">Sistema</text><text fill="#000000" font-family="sans-serif" font-size="13" lengthAdjust="spacing" textLength="382.7319" x="118.0386" y="225.3638">presenta la lista de taquilleros activos disponibles y plazas</text><text fill="#000000" font-family="sans-serif" font-size="13" lengthAdjust="spacing" textLength="324.7588" x="55" y="240.4966">• Permite seleccionar taquillero y plaza a vincular</text><text fill="#000000" font-family="sans-serif" font-size="13" lengthAdjust="spacing" textLength="258.4766" x="55" y="255.6294">• Permite solicitar confirmar asignación</text><text fill="#000000" font-family="sans-serif" font-size="13" lengthAdjust="spacing" textLength="245.7559" x="55" y="270.7622">• Permite solicitar cancelar operación</text></g><!--link ProcesandoAsignacion to *end*asignarTaquilleroAPlaza--><g class="link" data-entity-1="ent0004" data-entity-2="ent0005" data-link-type="dependency" data-source-line="21" id="lnk6"><path d="M44,351.5769 C44,377.8769 44,412.5669 44,431.2769" fill="none" id="ProcesandoAsignacion-to-*end*asignarTaquilleroAPlaza" style="stroke:#008000;stroke-width:1;"/><polygon fill="#008000" points="44,437.2769,48,428.2769,44,432.2769,40,428.2769,44,437.2769" style="stroke:#008000;stroke-width:1;"/><path d="M49,374.2969 L49,414.2969 L552,414.2969 L552,384.2969 L542,374.2969 L49,374.2969" fill="#FEFFDD" style="stroke:#181818;stroke-width:0.5;"/><path d="M542,374.2969 L542,384.2969 L552,384.2969 L542,374.2969" fill="#FEFFDD" style="stroke:#181818;stroke-width:0.5;"/><text fill="#000000" font-family="sans-serif" font-size="13" font-weight="bold" lengthAdjust="spacing" textLength="79.1616" x="55" y="391.3638">Supervisor</text><text fill="#000000" font-family="sans-serif" font-size="13" lengthAdjust="spacing" textLength="147.1069" x="138.2939" y="391.3638">confirma la asignación</text><text fill="#000000" font-family="sans-serif" font-size="13" font-weight="bold" lengthAdjust="spacing" textLength="58.9063" x="55" y="406.4966">Sistema</text><text fill="#000000" font-family="sans-serif" font-size="13" lengthAdjust="spacing" textLength="419.2817" x="118.0386" y="406.4966">vincula el taquillero con la plaza seleccionada y guarda cambios</text></g><g class="entity" data-qualified-name="PLAZAS_ABIERTO" id="ent0007"><rect fill="#F1F1F1" height="50" rx="12.5" ry="12.5" style="stroke:#181818;stroke-width:0.5;" width="142.3291" x="213" y="564"/><line style="stroke:#181818;stroke-width:0.5;" x1="213" x2="355.3291" y1="590.2969" y2="590.2969"/><text fill="#000000" font-family="sans-serif" font-size="14" lengthAdjust="spacing" textLength="122.3291" x="223" y="581.9951">PLAZAS_ABIERTO</text></g><!--link asignarTaquilleroAPlaza to PLAZAS_ABIERTO--><g class="link" data-entity-1="ent0002" data-entity-2="ent0007" data-link-type="dependency" data-source-line="28" id="lnk8"><path d="M194.59,469.17 C187.49,487.43 183,499 183,499 C183,499 183,534 183,534 C183,534 206.6382,546.6421 233.5282,561.0121" fill="none" id="asignarTaquilleroAPlaza-to-PLAZAS_ABIERTO" style="stroke:#008000;stroke-width:1;"/><polygon fill="#008000" points="238.82,563.84,232.7676,556.0703,234.4102,561.4834,228.9971,563.126,238.82,563.84" style="stroke:#008000;stroke-width:1;"/><path d="M188,504 L188,529 L334,529 L334,514 L324,504 L188,504" fill="#FEFFDD" style="stroke:#181818;stroke-width:0.5;"/><path d="M324,504 L324,514 L334,514 L324,504" fill="#FEFFDD" style="stroke:#181818;stroke-width:0.5;"/><text fill="#000000" font-family="sans-serif" font-size="13" lengthAdjust="spacing" textLength="125.9248" x="194" y="521.0669">completarGestion()</text></g><!--link asignarTaquilleroAPlaza to PLAZAS_ABIERTO--><g class="link" data-entity-1="ent0002" data-entity-2="ent0007" data-link-type="dependency" data-source-line="33" id="lnk9"><path d="M336.23,469.17 C340.37,487.43 343,499 343,499 C343,499 343,534 343,534 C343,534 330.5273,545.4204 314.8173,559.7904" fill="none" id="asignarTaquilleroAPlaza-to-PLAZAS_ABIERTO-1" style="stroke:#0000FF;stroke-width:1;"/><polygon fill="#0000FF" points="310.39,563.84,319.7306,560.7171,314.0794,560.4653,314.3311,554.8141,310.39,563.84" style="stroke:#0000FF;stroke-width:1;"/><path d="M348,504 L348,529 L498,529 L498,514 L488,504 L348,504" fill="#FEFFDD" style="stroke:#181818;stroke-width:0.5;"/><path d="M488,504 L488,514 L498,514 L488,504" fill="#FEFFDD" style="stroke:#181818;stroke-width:0.5;"/><text fill="#000000" font-family="sans-serif" font-size="13" lengthAdjust="spacing" textLength="129.3145" x="354" y="521.0669">cancelar asignación</text></g><?plantuml-src ZLDjIiD04Fs_fnZgdoeKBr0A4KG4mMBxor9aiXdBqitkkhifL14yYrVm2Dx4apX94qtwfKb8TYSpRzvxauIbCWuzvg2LeRXs1CxgTRaH8aIC11ZKmg2VubEXj2Plax76P-Guz0wywxloVjg35o60ZmrGZqykcbYjf8feCfjKvL9PiviszbPIsCggqcPdSnZCJXQUoCm7eoE0nZAUDQMsPHKOfgD9uSYlLB1-U9wE8DJ5ZKme3CGVEO2yHwZaL01aiWfrmsHlvmwtlIeEKbCXKeuLB-Sfa65UcY-E8sJK8XO0PLGhVcOgE6jKgYd0UiCqL81VR-ym9fyhRXH8aonxiy2MkZgVLQwKaOL6lrjPI_GWhNbKFkSLrb8-FyonV3II618i6zxAxbgupw2EWppj_ywoOLXwjirnozvQBv1k-o5B_7hSBSyoPASM1NfUICnJPKDNoQiGX_wIpiTmazmdauVaulhoRdehEegapPqczksAGkIc_LFnQzGHy5GNz2TsCucsAGtwDm00?></g></svg>