<?plantuml 1.2026.2?>
<svg xmlns="http://www.w3.org/2000/svg" xmlns:xlink="http://www.w3.org/1999/xlink" contentStyleType="text/css" data-diagram-type="STATE" height="620px" preserveAspectRatio="none" style="width:761px;height:620px;background:#FFFFFF;" version="1.1" viewBox="0 0 761 620" width="761px" zoomAndPan="magnify"><defs/><g><path d="M19.5,7 L735.5,7 A12.5,12.5 0 0 1 748,19.5 L748,33.2969 L7,33.2969 L7,19.5 A12.5,12.5 0 0 1 19.5,7" fill="#F1F1F1"/><rect fill="none" height="462.2969" rx="12.5" ry="12.5" style="stroke:#181818;stroke-width:0.5;" width="741" x="7" y="7"/><line style="stroke:#181818;stroke-width:0.5;" x1="7" x2="748" y1="33.2969" y2="33.2969"/><text fill="#000000" font-family="sans-serif" font-size="14" lengthAdjust="spacing" textLength="240.8506" x="257.0747" y="24.9951">desasignarMaquinaDePlaza(plaza)</text><g class="entity" data-qualified-name="desasignarMaquinaDePlaza.SolicitandoConfirmacion" id="ent0003"><rect fill="#F1F1F1" height="50" rx="12.5" ry="12.5" style="stroke:#181818;stroke-width:0.5;" width="50" x="19" y="135.2969"/><line style="stroke:#181818;stroke-width:0.5;" x1="19" x2="69" y1="161.5938" y2="161.5938"/><text fill="#000000" font-family="sans-serif" font-size="14" lengthAdjust="spacing" textLength="4.4502" x="41.7749" y="153.292"> </text></g><g class="entity" data-qualified-name="desasignarMaquinaDePlaza.ProcesandoDesasignacion" id="ent0004"><rect fill="#F1F1F1" height="50" rx="12.5" ry="12.5" style="stroke:#181818;stroke-width:0.5;" width="50" x="19" y="301.2969"/><line style="stroke:#181818;stroke-width:0.5;" x1="19" x2="69" y1="327.5938" y2="327.5938"/><text fill="#000000" font-family="sans-serif" font-size="14" lengthAdjust="spacing" textLength="4.4502" x="41.7749" y="319.292"> </text></g><g class="start_entity" data-qualified-name="desasignarMaquinaDePlaza..start.desasignarMaquinaDePlaza" data-source-line="8" id="ent0002"><ellipse cx="44" cy="54.2969" fill="#222222" rx="10" ry="10" style="stroke:#222222;stroke-width:1;"/></g><g class="end_entity" data-qualified-name="desasignarMaquinaDePlaza..end.desasignarMaquinaDePlaza" data-source-line="21" id="ent0005"><ellipse cx="44" cy="448.2969" fill="none" rx="11" ry="11" style="stroke:#222222;stroke-width:1;"/><ellipse cx="44" cy="448.2969" fill="#222222" rx="6" ry="6" style="stroke:#222222;stroke-width:1;"/></g><!--link *start*desasignarMaquinaDePlaza to SolicitandoConfirmacion--><g class="link" data-entity-1="ent0002" data-entity-2="ent0003" data-link-type="dependency" data-source-line="8" id="lnk3"><path d="M44,64.5269 C44,80.2369 44,106.6569 44,129.1669" fill="none" id="*start*desasignarMaquinaDePlaza-to-SolicitandoConfirmacion" style="stroke:#008000;stroke-width:1;"/><polygon fill="#008000" points="44,135.1669,48,126.1669,44,130.1669,40,126.1669,44,135.1669" style="stroke:#008000;stroke-width:1;"/><path d="M49,87.2969 L49,112.2969 L486,112.2969 L486,97.2969 L476,87.2969 L49,87.2969" fill="#FEFFDD" style="stroke:#181818;stroke-width:0.5;"/><path d="M476,87.2969 L476,97.2969 L486,97.2969 L476,87.2969" fill="#FEFFDD" style="stroke:#181818;stroke-width:0.5;"/><text fill="#000000" font-family="sans-serif" font-size="13" font-weight="bold" lengthAdjust="spacing" textLength="79.1616" x="55" y="104.3638">Supervisor</text><text fill="#000000" font-family="sans-serif" font-size="13" lengthAdjust="spacing" textLength="333.1694" x="138.2939" y="104.3638">solicita desasignar una máquina de su plaza actual</text></g><!--link SolicitandoConfirmacion to ProcesandoDesasignacion--><g class="link" data-entity-1="ent0003" data-entity-2="ent0004" data-link-type="dependency" data-source-line="13" id="lnk4"><path d="M44,185.4969 C44,216.5869 44,264.2469 44,295.2669" fill="none" id="SolicitandoConfirmacion-to-ProcesandoDesasignacion" style="stroke:#008000;stroke-width:1;"/><polygon fill="#008000" points="44,301.2669,48,292.2669,44,296.2669,40,292.2669,44,301.2669" style="stroke:#008000;stroke-width:1;"/><path d="M49,208.2969 L49,278.2969 L531,278.2969 L531,218.2969 L521,208.2969 L49,208.2969" fill="#FEFFDD" style="stroke:#181818;stroke-width:0.5;"/><path d="M521,208.2969 L521,218.2969 L531,218.2969 L521,208.2969" fill="#FEFFDD" style="stroke:#181818;stroke-width:0.5;"/><text fill="#000000" font-family="sans-serif" font-size="13" font-weight="bold" lengthAdjust="spacing" textLength="58.9063" x="55" y="225.3638">Sistema</text><text fill="#000000" font-family="sans-serif" font-size="13" lengthAdjust="spacing" textLength="398.9058" x="118.0386" y="225.3638">presenta la ficha de la máquina con su plaza asignada actual</text><text fill="#000000" font-family="sans-serif" font-size="13" lengthAdjust="spacing" textLength="454.4858" x="55" y="240.4966">• Muestra advertencia de que la máquina quedará sin plaza asignada</text><text fill="#000000" font-family="sans-serif" font-size="13" lengthAdjust="spacing" textLength="281.4995" x="55" y="255.6294">• Permite solicitar confirmar desasignación</text><text fill="#000000" font-family="sans-serif" font-size="13" lengthAdjust="spacing" textLength="245.7559" x="55" y="270.7622">• Permite solicitar cancelar operación</text></g><!--link ProcesandoDesasignacion to *end*desasignarMaquinaDePlaza--><g class="link" data-entity-1="ent0004" data-entity-2="ent0005" data-link-type="dependency" data-source-line="21" id="lnk6"><path d="M44,351.5769 C44,377.8769 44,412.5669 44,431.2769" fill="none" id="ProcesandoDesasignacion-to-*end*desasignarMaquinaDePlaza" style="stroke:#008000;stroke-width:1;"/><polygon fill="#008000" points="44,437.2769,48,428.2769,44,432.2769,40,428.2769,44,437.2769" style="stroke:#008000;stroke-width:1;"/><path d="M49,374.2969 L49,414.2969 L739,414.2969 L739,384.2969 L729,374.2969 L49,374.2969" fill="#FEFFDD" style="stroke:#181818;stroke-width:0.5;"/><path d="M729,374.2969 L729,384.2969 L739,384.2969 L729,374.2969" fill="#FEFFDD" style="stroke:#181818;stroke-width:0.5;"/><text fill="#000000" font-family="sans-serif" font-size="13" font-weight="bold" lengthAdjust="spacing" textLength="79.1616" x="55" y="391.3638">Supervisor</text><text fill="#000000" font-family="sans-serif" font-size="13" lengthAdjust="spacing" textLength="170.1299" x="138.2939" y="391.3638">confirma la desasignación</text><text fill="#000000" font-family="sans-serif" font-size="13" font-weight="bold" lengthAdjust="spacing" textLength="58.9063" x="55" y="406.4966">Sistema</text><text fill="#000000" font-family="sans-serif" font-size="13" lengthAdjust="spacing" textLength="606.0298" x="118.0386" y="406.4966">desvincula la máquina de su plaza actual, actualiza su estado a disponible y guarda cambios</text></g><g class="entity" data-qualified-name="PLAZAS_ABIERTO" id="ent0007"><rect fill="#F1F1F1" height="50" rx="12.5" ry="12.5" style="stroke:#181818;stroke-width:0.5;" width="142.3291" x="306.5" y="564"/><line style="stroke:#181818;stroke-width:0.5;" x1="306.5" x2="448.8291" y1="590.2969" y2="590.2969"/><text fill="#000000" font-family="sans-serif" font-size="14" lengthAdjust="spacing" textLength="122.3291" x="316.5" y="581.9951">PLAZAS_ABIERTO</text></g><!--link desasignarMaquinaDePlaza to PLAZAS_ABIERTO--><g class="link" data-entity-1="ent0002" data-entity-2="ent0007" data-link-type="dependency" data-source-line="28" id="lnk8"><path d="M288.09,469.17 C280.99,487.43 276.5,499 276.5,499 C276.5,499 276.5,534 276.5,534 C276.5,534 300.1382,546.6421 327.0282,561.0121" fill="none" id="desasignarMaquinaDePlaza-to-PLAZAS_ABIERTO" style="stroke:#008000;stroke-width:1;"/><polygon fill="#008000" points="332.32,563.84,326.2676,556.0703,327.9102,561.4834,322.4971,563.126,332.32,563.84" style="stroke:#008000;stroke-width:1;"/><path d="M281.5,504 L281.5,529 L427.5,529 L427.5,514 L417.5,504 L281.5,504" fill="#FEFFDD" style="stroke:#181818;stroke-width:0.5;"/><path d="M417.5,504 L417.5,514 L427.5,514 L417.5,504" fill="#FEFFDD" style="stroke:#181818;stroke-width:0.5;"/><text fill="#000000" font-family="sans-serif" font-size="13" lengthAdjust="spacing" textLength="125.9248" x="287.5" y="521.0669">completarGestion()</text></g><!--link desasignarMaquinaDePlaza to PLAZAS_ABIERTO--><g class="link" data-entity-1="ent0002" data-entity-2="ent0007" data-link-type="dependency" data-source-line="33" id="lnk9"><path d="M429.73,469.17 C433.87,487.43 436.5,499 436.5,499 C436.5,499 436.5,534 436.5,534 C436.5,534 424.0273,545.4204 408.3173,559.7904" fill="none" id="desasignarMaquinaDePlaza-to-PLAZAS_ABIERTO-1" style="stroke:#0000FF;stroke-width:1;"/><polygon fill="#0000FF" points="403.89,563.84,413.2306,560.7171,407.5794,560.4653,407.8311,554.8141,403.89,563.84" style="stroke:#0000FF;stroke-width:1;"/><path d="M441.5,504 L441.5,529 L614.5,529 L614.5,514 L604.5,504 L441.5,504" fill="#FEFFDD" style="stroke:#181818;stroke-width:0.5;"/><path d="M604.5,504 L604.5,514 L614.5,514 L604.5,504" fill="#FEFFDD" style="stroke:#181818;stroke-width:0.5;"/><text fill="#000000" font-family="sans-serif" font-size="13" lengthAdjust="spacing" textLength="152.3374" x="447.5" y="521.0669">cancelar desasignación</text></g><?plantuml-src ZLDHRjD04FttAKRXfqLKNA2A52X2I5H4X2-g2etNqp3gUdQxwuqK419NALVW2Ba99s6ygKasnG5RihspCs_UUxEEjomU0xPWMQXRUmBlxBfVL5Nii2DeA6BafM2unBl4WXSqj_W50IDCnZPFVFyydS3NgWAzjb0JlRLguImRxb0QzzB93OSM3Jjvd3WFpcW3pRiO-kJ4d7drz1hEhfui0v5SdqsFeefJK2UzoDiSEA-dY-Gfh3YwSFwyda9yAD_J2qaGsirz5gPnY0dyLhhf4jgCHD9a-2sf4H85qJ5LeqGvTjHYPka3HH9bQH5ks7pEjEmUIwF5EvePl2du_lh-0ouJnIvek5bHw4WCPvoxL6Bfki6mkOV8Se3u1sfEeMNbFDWNUWPPTzWvQNZpKuwLe1Yo-k5q97lPfRSZlXNUwg7utu4FF7l9Vs5wOBnch5XCibXOzFXGF7juiqPqIut6ne5cSlHEkBO4QrWc33eMWstDBfPQlrNLw2zN7AEtiu-pnQVPYpUltdzuLnMAZMkz9RNsjVPNZqvEgvsNnz1hc-YVuCEq3bmRElm6?></g></svg>