<svg xmlns="http://www.w3.org/2000/svg" xmlns:xlink="http://www.w3.org/1999/xlink" contentStyleType="text/css" data-diagram-type="STATE" height="1092px" preserveAspectRatio="none" style="width:1118px;height:1092px;background:#FFFFFF;" version="1.1" viewBox="0 0 1118 1092" width="1118px" zoomAndPan="magnify"><title>Desasignar Taquillero de Plaza</title><defs/><g><g class="title" data-source-line="1"><text fill="#000000" font-family="sans-serif" font-size="14" font-weight="bold" lengthAdjust="spacing" textLength="244.0088" x="430.0491" y="32.9951">Desasignar Taquillero de Plaza</text></g><g id="PLAZAS_ABIERTO_INICIAL"><rect fill="#F1F1F1" height="76.2969" rx="12.5" ry="12.5" style="stroke:#181818;stroke-width:0.5;" width="162.3291" x="491" y="183.2969"/><line style="stroke:#181818;stroke-width:0.5;" x1="491" x2="653.3291" y1="229.5938" y2="229.5938"/><text fill="#000000" font-family="sans-serif" font-size="14" lengthAdjust="spacing" textLength="122.3291" x="511" y="211.292">PLAZAS_ABIERTO</text></g><path d="M267,359.2969 L877.335,359.2969 A12.5,12.5 0 0 1 889.835,371.7969 L889.835,405.5938 L254.5,405.5938 L254.5,371.7969 A12.5,12.5 0 0 1 267,359.2969" fill="#F1F1F1"/><rect fill="none" height="429.2969" rx="12.5" ry="12.5" style="stroke:#181818;stroke-width:0.5;" width="635.335" x="254.5" y="359.2969"/><line style="stroke:#181818;stroke-width:0.5;" x1="254.5" x2="889.835" y1="405.5938" y2="405.5938"/><text fill="#000000" font-family="sans-serif" font-size="14" lengthAdjust="spacing" textLength="155.9004" x="494.2173" y="387.292">ASIGNACION_ABIERTA</text><g id="ASIGNACION_ABIERTA.VisualizacionAsignacion"><rect fill="#F1F1F1" height="76.2969" rx="12.5" ry="12.5" style="stroke:#181818;stroke-width:0.5;" width="233.4707" x="329" y="495.0938"/><line style="stroke:#181818;stroke-width:0.5;" x1="329" x2="562.4707" y1="541.3906" y2="541.3906"/><text fill="#000000" font-family="sans-serif" font-size="14" lengthAdjust="spacing" textLength="193.4707" x="349" y="523.0889">Visualización de Asignación</text></g><g id="ASIGNACION_ABIERTA.ConfirmacionDesasignacion"><rect fill="#F1F1F1" height="76.2969" rx="12.5" ry="12.5" style="stroke:#181818;stroke-width:0.5;" width="261.2451" x="315" y="637.0938"/><line style="stroke:#181818;stroke-width:0.5;" x1="315" x2="576.2451" y1="683.3906" y2="683.3906"/><text fill="#000000" font-family="sans-serif" font-size="14" lengthAdjust="spacing" textLength="221.2451" x="335" y="665.0889">Confirmación de Desasignación</text></g><ellipse cx="445.5" cy="426.5938" fill="#222222" rx="10" ry="10" style="stroke:#222222;stroke-width:1;"/><ellipse cx="445.5" cy="767.5938" fill="none" rx="11" ry="11" style="stroke:#222222;stroke-width:1;"/><ellipse cx="445.5" cy="767.5938" fill="#222222" rx="6" ry="6" style="stroke:#222222;stroke-width:1;"/><g class="entity" data-entity="GMN2" data-source-line="27" data-uid="ent0003" id="entity_GMN2"><path d="M580,472.5938 L580,529.5938 L562.24,533.5938 L580,537.5938 L580,593.3906 A0,0 0 0 0 580,593.3906 L880.835,593.3906 A0,0 0 0 0 880.835,593.3906 L880.835,482.5938 L870.835,472.5938 L580,472.5938 A0,0 0 0 0 580,472.5938" fill="#FEFFDD" style="stroke:#181818;stroke-width:0.5;"/><path d="M870.835,472.5938 L870.835,482.5938 L880.835,482.5938 L870.835,472.5938" fill="#FEFFDD" style="stroke:#181818;stroke-width:0.5;"/><text fill="#000000" font-family="sans-serif" font-size="13" font-weight="bold" lengthAdjust="spacing" textLength="124.1855" x="596" y="499.6606">Sistema muestra</text><text fill="#000000" font-family="sans-serif" font-size="13" lengthAdjust="spacing" textLength="108.3989" x="724.3179" y="499.6606">el taquillero y su</text><text fill="#000000" font-family="sans-serif" font-size="13" lengthAdjust="spacing" textLength="146.0723" x="596" y="514.7935">plaza asignada actual.</text><text fill="#000000" font-family="sans-serif" font-size="13" font-weight="bold" lengthAdjust="spacing" textLength="124.6997" x="596" y="529.9263">Sistema advierte</text><text fill="#000000" font-family="sans-serif" font-size="13" lengthAdjust="spacing" textLength="106.0503" x="724.832" y="529.9263">que el taquillero</text><text fill="#000000" font-family="sans-serif" font-size="13" lengthAdjust="spacing" textLength="182.8188" x="596" y="545.0591">quedará sin plaza asignada.</text><text fill="#000000" font-family="sans-serif" font-size="13" font-weight="bold" lengthAdjust="spacing" textLength="192.8545" x="596" y="560.1919">Supervisor puede solicitar</text><text fill="#000000" font-family="sans-serif" font-size="13" lengthAdjust="spacing" textLength="62.8481" x="792.9868" y="560.1919">confirmar</text><text fill="#000000" font-family="sans-serif" font-size="13" lengthAdjust="spacing" textLength="228.1792" x="596" y="575.3247">mediante ejecutarDesasignacion().</text></g><g class="entity" data-entity="GMN5" data-source-line="37" data-uid="ent0006" id="entity_GMN5"><path d="M594,629.5938 L594,671.5938 L576.28,675.5938 L594,679.5938 L594,720.125 A0,0 0 0 0 594,720.125 L865.0518,720.125 A0,0 0 0 0 865.0518,720.125 L865.0518,639.5938 L855.0518,629.5938 L594,629.5938 A0,0 0 0 0 594,629.5938" fill="#FEFFDD" style="stroke:#181818;stroke-width:0.5;"/><path d="M855.0518,629.5938 L855.0518,639.5938 L865.0518,639.5938 L855.0518,629.5938" fill="#FEFFDD" style="stroke:#181818;stroke-width:0.5;"/><text fill="#000000" font-family="sans-serif" font-size="13" font-weight="bold" lengthAdjust="spacing" textLength="141.667" x="610" y="656.6606">Sistema desvincula</text><text fill="#000000" font-family="sans-serif" font-size="13" lengthAdjust="spacing" textLength="77.4287" x="755.7993" y="656.6606">el taquillero</text><text fill="#000000" font-family="sans-serif" font-size="13" lengthAdjust="spacing" textLength="122.4399" x="610" y="671.7935">de su plaza actual.</text><text fill="#000000" font-family="sans-serif" font-size="13" font-weight="bold" lengthAdjust="spacing" textLength="108.6401" x="610" y="686.9263">Sistema marca</text><text fill="#000000" font-family="sans-serif" font-size="13" lengthAdjust="spacing" textLength="117.2793" x="722.7725" y="686.9263">el taquillero como</text><text fill="#000000" font-family="sans-serif" font-size="13" lengthAdjust="spacing" textLength="222.5107" x="610" y="702.0591">disponible para nueva asignación.</text></g><!--link *start*ASIGNACION_ABIERTA to VisualizacionAsignacion--><g class="link" data-entity-1=".start.ASIGNACION_ABIERTA" data-entity-2="VisualizacionAsignacion" data-source-line="25" data-uid="lnk6" id="link_.start.ASIGNACION_ABIERTA_VisualizacionAsignacion"><path d="M445.5,436.8038 C445.5,450.1338 445.5,468.2038 445.5,488.9438" fill="none" id="*start*ASIGNACION_ABIERTA-to-VisualizacionAsignacion" style="stroke:#008000;stroke-width:1;"/><polygon fill="#008000" points="445.5,494.9438,449.5,485.9438,445.5,489.9438,441.5,485.9438,445.5,494.9438" style="stroke:#008000;stroke-width:1;"/></g><!--link VisualizacionAsignacion to ConfirmacionDesasignacion--><g class="link" data-entity-1="VisualizacionAsignacion" data-entity-2="ConfirmacionDesasignacion" data-source-line="35" data-uid="lnk7" id="link_VisualizacionAsignacion_ConfirmacionDesasignacion"><path d="M445.5,571.1438 C445.5,591.5238 445.5,610.5438 445.5,630.9338" fill="none" id="VisualizacionAsignacion-to-ConfirmacionDesasignacion" style="stroke:#008000;stroke-width:1;"/><polygon fill="#008000" points="445.5,636.9338,449.5,627.9338,445.5,631.9338,441.5,627.9338,445.5,636.9338" style="stroke:#008000;stroke-width:1;"/><text fill="#000000" font-family="sans-serif" font-size="13" lengthAdjust="spacing" textLength="158.0884" x="276.5" y="590.1106">ejecutarDesasignacion()</text></g><!--link ConfirmacionDesasignacion to *end*ASIGNACION_ABIERTA--><g class="link" data-entity-1="ConfirmacionDesasignacion" data-entity-2=".end.ASIGNACION_ABIERTA" data-source-line="43" data-uid="lnk9" id="link_ConfirmacionDesasignacion_.end.ASIGNACION_ABIERTA"><path d="M445.5,713.2538 C445.5,728.7738 445.5,739.5638 445.5,750.3038" fill="none" id="ConfirmacionDesasignacion-to-*end*ASIGNACION_ABIERTA" style="stroke:#008000;stroke-width:1;"/><polygon fill="#008000" points="445.5,756.3038,449.5,747.3038,445.5,751.3038,441.5,747.3038,445.5,756.3038" style="stroke:#008000;stroke-width:1;"/></g><g id="PLAZAS_ABIERTO_FINAL"><rect fill="#F1F1F1" height="76.2969" rx="12.5" ry="12.5" style="stroke:#181818;stroke-width:0.5;" width="162.3291" x="491" y="888.2969"/><line style="stroke:#181818;stroke-width:0.5;" x1="491" x2="653.3291" y1="934.5938" y2="934.5938"/><text fill="#000000" font-family="sans-serif" font-size="14" lengthAdjust="spacing" textLength="122.3291" x="511" y="916.292">PLAZAS_ABIERTO</text></g><ellipse cx="572" cy="73.2969" fill="#222222" rx="10" ry="10" style="stroke:#222222;stroke-width:1;"/><ellipse cx="572" cy="1075.2969" fill="none" rx="11" ry="11" style="stroke:#222222;stroke-width:1;"/><ellipse cx="572" cy="1075.2969" fill="#222222" rx="6" ry="6" style="stroke:#222222;stroke-width:1;"/><!--link *start* to PLAZAS_ABIERTO_INICIAL--><g class="link" data-entity-1=".start." data-entity-2="PLAZAS_ABIERTO_INICIAL" data-source-line="11" data-uid="lnk3" id="link_.start._PLAZAS_ABIERTO_INICIAL"><path d="M572,83.4669 C572,103.6469 572,143.6769 572,176.9969" fill="none" id="*start*-to-PLAZAS_ABIERTO_INICIAL" style="stroke:#008000;stroke-width:1;"/><polygon fill="#008000" points="572,182.9969,576,173.9969,572,177.9969,568,173.9969,572,182.9969" style="stroke:#008000;stroke-width:1;"/></g><!--link PLAZAS_ABIERTO_INICIAL to ASIGNACION_ABIERTA--><g class="link" data-entity-1="PLAZAS_ABIERTO_INICIAL" data-entity-2="ASIGNACION_ABIERTA" data-source-line="13" data-uid="lnk4" id="link_PLAZAS_ABIERTO_INICIAL_ASIGNACION_ABIERTA"><path d="M572,259.3569 C572,284.8169 572,314.5769 572,352.9069" fill="none" id="PLAZAS_ABIERTO_INICIAL-to-ASIGNACION_ABIERTA" style="stroke:#008000;stroke-width:1;"/><polygon fill="#008000" points="572,358.9069,576,349.9069,572,353.9069,568,349.9069,572,358.9069" style="stroke:#008000;stroke-width:1;"/><path d="M8,214.1369 L8,304.1369 L347,304.1369 L347,224.1369 L337,214.1369 L8,214.1369" fill="#FEFFDD" style="stroke:#181818;stroke-width:0.5;"/><path d="M337,214.1369 L337,224.1369 L347,224.1369 L337,214.1369" fill="#FEFFDD" style="stroke:#181818;stroke-width:0.5;"/><text fill="#000000" font-family="sans-serif" font-size="13" font-weight="bold" lengthAdjust="spacing" textLength="136.4175" x="24" y="241.2038">Supervisor solicita</text><text fill="#000000" font-family="sans-serif" font-size="13" lengthAdjust="spacing" textLength="157.606" x="164.5498" y="241.2038">desasignar un taquillero</text><text fill="#000000" font-family="sans-serif" font-size="13" lengthAdjust="spacing" textLength="122.4399" x="24" y="256.3366">de su plaza actual.</text><text fill="#000000" font-family="sans-serif" font-size="13" font-weight="bold" lengthAdjust="spacing" textLength="128.7622" x="24" y="271.4694">Sistema presenta</text><text fill="#000000" font-family="sans-serif" font-size="13" lengthAdjust="spacing" textLength="137.0649" x="156.8945" y="271.4694">la ficha del taquillero</text><text fill="#000000" font-family="sans-serif" font-size="13" lengthAdjust="spacing" textLength="192.6895" x="24" y="286.6022">con su plaza asignada actual.</text><text fill="#000000" font-family="sans-serif" font-size="13" lengthAdjust="spacing" textLength="198.0659" x="363.1558" y="263.903">desasignarTaquilleroDePlaza()</text></g><!--link ASIGNACION_ABIERTA to PLAZAS_ABIERTO_FINAL--><g class="link" data-entity-1="ASIGNACION_ABIERTA" data-entity-2="PLAZAS_ABIERTO_FINAL" data-source-line="46" data-uid="lnk10" id="link_ASIGNACION_ABIERTA_PLAZAS_ABIERTO_FINAL"><path d="M545,788.4969 C545,826.8769 545,856.7069 545,882.1969" fill="none" id="ASIGNACION_ABIERTA-to-PLAZAS_ABIERTO_FINAL" style="stroke:#008000;stroke-width:1;"/><polygon fill="#008000" points="545,888.1969,549,879.1969,545,883.1969,541,879.1969,545,888.1969" style="stroke:#008000;stroke-width:1;"/><path d="M6,843.3469 L6,903.3469 L351,903.3469 L351,853.3469 L341,843.3469 L6,843.3469" fill="#FEFFDD" style="stroke:#181818;stroke-width:0.5;"/><path d="M341,843.3469 L341,853.3469 L351,853.3469 L341,843.3469" fill="#FEFFDD" style="stroke:#181818;stroke-width:0.5;"/><text fill="#000000" font-family="sans-serif" font-size="13" font-weight="bold" lengthAdjust="spacing" textLength="128.1655" x="22" y="870.4138">Sistema confirma</text><text fill="#000000" font-family="sans-serif" font-size="13" lengthAdjust="spacing" textLength="172.1675" x="154.2979" y="870.4138">la desasignación realizada</text><text fill="#000000" font-family="sans-serif" font-size="13" lengthAdjust="spacing" textLength="194.6509" x="22" y="885.5466">y regresa al listado de plazas.</text><text fill="#000000" font-family="sans-serif" font-size="13" lengthAdjust="spacing" textLength="167.5337" x="367.4653" y="877.9802">confirmarDesasignacion()</text></g><!--link ASIGNACION_ABIERTA to PLAZAS_ABIERTO_FINAL--><g class="link" data-entity-1="ASIGNACION_ABIERTA" data-entity-2="PLAZAS_ABIERTO_FINAL" data-source-line="52" data-uid="lnk11" id="link_ASIGNACION_ABIERTA_PLAZAS_ABIERTO_FINAL"><path d="M599,788.4969 C599,826.8769 599,856.7069 599,882.1969" fill="none" id="ASIGNACION_ABIERTA-to-PLAZAS_ABIERTO_FINAL-1" style="stroke:#FF0000;stroke-width:1;"/><polygon fill="#FF0000" points="599,888.1969,603,879.1969,599,883.1969,595,879.1969,599,888.1969" style="stroke:#FF0000;stroke-width:1;"/><text fill="#000000" font-family="sans-serif" font-size="13" lengthAdjust="spacing" textLength="160.1069" x="610" y="893.113">cancelarDesasignacion()</text><path d="M786.1069,843.3469 L786.1069,933.3469 L1111.1069,933.3469 L1111.1069,853.3469 L1101.1069,843.3469 L786.1069,843.3469" fill="#FEFFDD" style="stroke:#181818;stroke-width:0.5;"/><path d="M1101.1069,843.3469 L1101.1069,853.3469 L1111.1069,853.3469 L1101.1069,843.3469" fill="#FEFFDD" style="stroke:#181818;stroke-width:0.5;"/><text fill="#000000" font-family="sans-serif" font-size="13" font-weight="bold" lengthAdjust="spacing" textLength="82.4561" x="802.1069" y="870.4138">CANCELAR:</text><text fill="#000000" font-family="sans-serif" font-size="13" font-weight="bold" lengthAdjust="spacing" textLength="136.4175" x="802.1069" y="885.5466">Supervisor solicita</text><text fill="#000000" font-family="sans-serif" font-size="13" lengthAdjust="spacing" textLength="143.8633" x="942.6567" y="885.5466">cancelar la operación.</text><text fill="#000000" font-family="sans-serif" font-size="13" font-weight="bold" lengthAdjust="spacing" textLength="132.5645" x="802.1069" y="900.6794">Sistema mantiene</text><text fill="#000000" font-family="sans-serif" font-size="13" lengthAdjust="spacing" textLength="106.3994" x="938.8037" y="900.6794">el vínculo actual</text><text fill="#000000" font-family="sans-serif" font-size="13" lengthAdjust="spacing" textLength="194.6509" x="802.1069" y="915.8122">y regresa al listado de plazas.</text></g><!--link PLAZAS_ABIERTO_FINAL to *end*--><g class="link" data-entity-1="PLAZAS_ABIERTO_FINAL" data-entity-2=".end." data-source-line="60" data-uid="lnk13" id="link_PLAZAS_ABIERTO_FINAL_.end."><path d="M572,964.6669 C572,997.7769 572,1037.4569 572,1058.2169" fill="none" id="PLAZAS_ABIERTO_FINAL-to-*end*" style="stroke:#0000FF;stroke-width:1;"/><polygon fill="#0000FF" points="572,1064.2169,576,1055.2169,572,1059.2169,568,1055.2169,572,1064.2169" style="stroke:#0000FF;stroke-width:1;"/></g><!--SRC=[bLNDRjim3BxxAOZiqWxerbs38e2NTeE18YsQOeSLHQ5OJA95aLn93j0EUvWzm4vzXBpOQCN_jJhCfqWaFvBVHp5EE8bmZfPPiLBCm2rxp8MKQ3HmX6l9dbbaDq9bpB0jACtHOWQVJazRjuQfpUjRAHIwfmn16xVMBSCruroe5Rb7aNNCKPhB-7iyVuW_9nStjrSFoIoP9l4bC0kZhcbK1iJpvEiidYPNiz8IU-VNrwFX35-IMG0_kdj_3oTtxrO6KTsVJ0ArHL6WvdReG9LZOhNYkg7w73tHHyUHqbIinAK3hGe6Dn7GTxQOpFCCpKvORS1gALBXsDd7nQG51xa2LqFwE5BGvf0LsC1IbpFveSOJrk6MGMP8K5M2IGPBaQuP1Se-Lae5DM0-9MzGKN4eQe_20ltqC0VpDs4fJ3opL6WLUx3YbrUaPTk_gAA7oe6EenR8LAkbC5iVMKzm3TDOIvIMYmVoI7sr0uLvNw-D4QirYRDyqxF7yJP7wyo1uWwny4IKrX41QWS06Ty9D0uzucEEy5gkuYCBPsR_6wnGFVGkR3DR6OLWFM769qXB9aqTiqKkc28sy0UcEVbrw3ywFg0tCr6SGfAtsGyhEWwb6b0cY3949RsVdL1fBWVagVr3xwYlCpFfaCgfthQmXCsq4WjQkyKw19NZhjB5J-OGUM5YslJHC4U_ecZWxRsnq0whSDoet2Sul9BAjgl8QeNmpaC3WrvspdpS4vsf54ijIqAZbypzFuqdrxONoN0R1lbRJJ2LeWpqK0v8jubfF9jUNCOtuwBwVotR2hxeKfDBMx3E72WdK64r2hlzdsB2T3ax_yd3OAl4n4BcMAh-5m00]--></g></svg>