<?plantuml 1.2026.2?>
<svg xmlns="http://www.w3.org/2000/svg" xmlns:xlink="http://www.w3.org/1999/xlink" contentStyleType="text/css" data-diagram-type="STATE" height="791px" preserveAspectRatio="none" style="width:632px;height:791px;background:#FFFFFF;" version="1.1" viewBox="0 0 632 791" width="632px" zoomAndPan="magnify"><defs/><g><path d="M19.5,7 L606.4745,7 A12.5,12.5 0 0 1 618.9745,19.5 L618.9745,33.2969 L7,33.2969 L7,19.5 A12.5,12.5 0 0 1 19.5,7" fill="#F1F1F1"/><rect fill="none" height="633.2969" rx="12.5" ry="12.5" style="stroke:#181818;stroke-width:0.5;" width="611.9745" x="7" y="7"/><line style="stroke:#181818;stroke-width:0.5;" x1="7" x2="618.9745" y1="33.2969" y2="33.2969"/><text fill="#000000" font-family="sans-serif" font-size="14" lengthAdjust="spacing" textLength="107.7822" x="259.0961" y="24.9951">registrarPlaza()</text><g class="entity" data-qualified-name="registrarPlaza.RequiringData" id="ent0003"><rect fill="#F1F1F1" height="50" rx="12.5" ry="12.5" style="stroke:#181818;stroke-width:0.5;" width="50" x="179.9745" y="135.2969"/><line style="stroke:#181818;stroke-width:0.5;" x1="179.9745" x2="229.9745" y1="161.5938" y2="161.5938"/><text fill="#000000" font-family="sans-serif" font-size="14" lengthAdjust="spacing" textLength="4.4502" x="202.7494" y="153.292"> </text></g><g class="entity" data-qualified-name="registrarPlaza.ProvidingForm" id="ent0004"><rect fill="#F1F1F1" height="50" rx="12.5" ry="12.5" style="stroke:#181818;stroke-width:0.5;" width="50" x="179.9745" y="271.2969"/><line style="stroke:#181818;stroke-width:0.5;" x1="179.9745" x2="229.9745" y1="297.5938" y2="297.5938"/><text fill="#000000" font-family="sans-serif" font-size="14" lengthAdjust="spacing" textLength="4.4502" x="202.7494" y="289.292"> </text></g><g class="entity" data-qualified-name="registrarPlaza.ValidatingData" id="ent0005"><rect fill="#F1F1F1" height="50" rx="12.5" ry="12.5" style="stroke:#181818;stroke-width:0.5;" width="50" x="19.9745" y="392.2969"/><line style="stroke:#181818;stroke-width:0.5;" x1="19.9745" x2="69.9745" y1="418.5938" y2="418.5938"/><text fill="#000000" font-family="sans-serif" font-size="14" lengthAdjust="spacing" textLength="4.4502" x="42.7494" y="410.292"> </text></g><g class="entity" data-qualified-name="registrarPlaza.c" id="ent0006"><polygon fill="#F1F1F1" points="222.9745,513.2969,234.9745,525.2969,222.9745,537.2969,210.9745,525.2969,222.9745,513.2969" style="stroke:#181818;stroke-width:0.5;"/></g><g class="start_entity" data-qualified-name="registrarPlaza..start.registrarPlaza" data-source-line="10" id="ent0002"><ellipse cx="204.9745" cy="54.2969" fill="#222222" rx="10" ry="10" style="stroke:#222222;stroke-width:1;"/></g><g class="end_entity" data-qualified-name="registrarPlaza..end.registrarPlaza" data-source-line="36" id="ent0008"><ellipse cx="222.9745" cy="619.2969" fill="none" rx="11" ry="11" style="stroke:#222222;stroke-width:1;"/><ellipse cx="222.9745" cy="619.2969" fill="#222222" rx="6" ry="6" style="stroke:#222222;stroke-width:1;"/></g><!--link *start*registrarPlaza to RequiringData--><g class="link" data-entity-1="ent0002" data-entity-2="ent0003" data-link-type="dependency" data-source-line="10" id="lnk3"><path d="M204.9745,64.5269 C204.9745,80.2369 204.9745,106.6569 204.9745,129.1669" fill="none" id="*start*registrarPlaza-to-RequiringData" style="stroke:#008000;stroke-width:1;"/><polygon fill="#008000" points="204.9745,135.1669,208.9745,126.1669,204.9745,130.1669,200.9745,126.1669,204.9745,135.1669" style="stroke:#008000;stroke-width:1;"/><path d="M209.9745,87.2969 L209.9745,112.2969 L530.9745,112.2969 L530.9745,97.2969 L520.9745,87.2969 L209.9745,87.2969" fill="#FEFFDD" style="stroke:#181818;stroke-width:0.5;"/><path d="M520.9745,87.2969 L520.9745,97.2969 L530.9745,97.2969 L520.9745,87.2969" fill="#FEFFDD" style="stroke:#181818;stroke-width:0.5;"/><text fill="#000000" font-family="sans-serif" font-size="13" font-weight="bold" lengthAdjust="spacing" textLength="79.1616" x="215.9745" y="104.3638">Supervisor</text><text fill="#000000" font-family="sans-serif" font-size="13" lengthAdjust="spacing" textLength="217.2358" x="299.2685" y="104.3638">solicita registrar una nueva plaza</text></g><!--link RequiringData to ProvidingForm--><g class="link" data-entity-1="ent0003" data-entity-2="ent0004" data-link-type="dependency" data-source-line="15" id="lnk4"><path d="M204.9745,185.5669 C204.9745,209.8469 204.9745,240.9869 204.9745,265.2069" fill="none" id="RequiringData-to-ProvidingForm" style="stroke:#008000;stroke-width:1;"/><polygon fill="#008000" points="204.9745,271.2069,208.9745,262.2069,204.9745,266.2069,200.9745,262.2069,204.9745,271.2069" style="stroke:#008000;stroke-width:1;"/><path d="M209.9745,208.2969 L209.9745,248.2969 L571.9745,248.2969 L571.9745,218.2969 L561.9745,208.2969 L209.9745,208.2969" fill="#FEFFDD" style="stroke:#181818;stroke-width:0.5;"/><path d="M561.9745,208.2969 L561.9745,218.2969 L571.9745,218.2969 L561.9745,208.2969" fill="#FEFFDD" style="stroke:#181818;stroke-width:0.5;"/><text fill="#000000" font-family="sans-serif" font-size="13" font-weight="bold" lengthAdjust="spacing" textLength="58.9063" x="215.9745" y="225.3638">Sistema</text><text fill="#000000" font-family="sans-serif" font-size="13" lengthAdjust="spacing" textLength="278.8335" x="279.0131" y="225.3638">presenta el formulario de registro de plaza</text><text fill="#000000" font-family="sans-serif" font-size="13" lengthAdjust="spacing" textLength="167.7749" x="215.9745" y="240.4966">• Nombre, ciudad, estado</text></g><!--link ProvidingForm to ValidatingData--><g class="link" data-entity-1="ent0004" data-entity-2="ent0005" data-link-type="dependency" data-source-line="21" id="lnk5"><path d="M179.6145,303.3169 C130.6745,314.9269 27.9745,339.2969 27.9745,339.2969 C27.9745,339.2969 27.9745,374.2969 27.9745,374.2969 C27.9745,374.2969 29.0934,377.0652 32.8334,386.3052" fill="none" id="ProvidingForm-to-ValidatingData" style="stroke:#008000;stroke-width:1;"/><polygon fill="#008000" points="35.0845,391.8669,35.4156,382.0236,33.2086,387.2321,28,385.0251,35.0845,391.8669" style="stroke:#008000;stroke-width:1;"/><path d="M32.9745,344.2969 L32.9745,369.2969 L364.9745,369.2969 L364.9745,354.2969 L354.9745,344.2969 L32.9745,344.2969" fill="#FEFFDD" style="stroke:#181818;stroke-width:0.5;"/><path d="M354.9745,344.2969 L354.9745,354.2969 L364.9745,354.2969 L354.9745,344.2969" fill="#FEFFDD" style="stroke:#181818;stroke-width:0.5;"/><text fill="#000000" font-family="sans-serif" font-size="13" font-weight="bold" lengthAdjust="spacing" textLength="79.1616" x="38.9745" y="361.3638">Supervisor</text><text fill="#000000" font-family="sans-serif" font-size="13" lengthAdjust="spacing" textLength="228.0586" x="122.2685" y="361.3638">ingresa los datos y solicita guardar</text></g><!--link ValidatingData to c--><g class="link" data-entity-1="ent0005" data-entity-2="ent0006" data-link-type="dependency" data-source-line="26" id="lnk6"><path d="M62.0645,442.6569 C77.8845,465.2169 98.9745,495.2969 98.9745,495.2969 C98.9745,495.2969 179.7822,514.1903 208.2122,520.8403" fill="none" id="ValidatingData-to-c" style="stroke:#008000;stroke-width:1;"/><polygon fill="#008000" points="214.0545,522.2069,206.2021,516.2622,209.1859,521.0681,204.38,524.0519,214.0545,522.2069" style="stroke:#008000;stroke-width:1;"/><path d="M103.9745,465.2969 L103.9745,490.2969 L364.9745,490.2969 L364.9745,475.2969 L354.9745,465.2969 L103.9745,465.2969" fill="#FEFFDD" style="stroke:#181818;stroke-width:0.5;"/><path d="M354.9745,465.2969 L354.9745,475.2969 L364.9745,475.2969 L354.9745,465.2969" fill="#FEFFDD" style="stroke:#181818;stroke-width:0.5;"/><text fill="#000000" font-family="sans-serif" font-size="13" font-weight="bold" lengthAdjust="spacing" textLength="58.9063" x="109.9745" y="482.3638">Sistema</text><text fill="#000000" font-family="sans-serif" font-size="13" lengthAdjust="spacing" textLength="177.0425" x="173.0131" y="482.3638">valida los datos ingresados</text></g><!--link c to ProvidingForm--><g class="link" data-entity-1="ent0006" data-entity-2="ent0004" data-link-type="dependency" data-source-line="31" id="lnk7"><path d="M232.1745,522.4869 C264.3545,516.1369 369.9745,495.2969 369.9745,495.2969 C369.9745,495.2969 369.9745,339.2969 369.9745,339.2969 C369.9745,339.2969 282.0091,316.907 235.8491,305.157" fill="none" id="c-to-ProvidingForm" style="stroke:#FF0000;stroke-width:1;"/><polygon fill="#FF0000" points="230.0345,303.6769,237.7697,309.7734,234.88,304.9103,239.7431,302.0206,230.0345,303.6769" style="stroke:#FF0000;stroke-width:1;"/><path d="M374.9745,404.7969 L374.9745,429.7969 L566.9745,429.7969 L566.9745,414.7969 L556.9745,404.7969 L374.9745,404.7969" fill="#FEFFDD" style="stroke:#181818;stroke-width:0.5;"/><path d="M556.9745,404.7969 L556.9745,414.7969 L566.9745,414.7969 L556.9745,404.7969" fill="#FEFFDD" style="stroke:#181818;stroke-width:0.5;"/><text fill="#000000" font-family="sans-serif" font-size="13" lengthAdjust="spacing" textLength="171.4312" x="380.9745" y="421.8638">datos inválidos o faltantes</text></g><!--link c to *end*registrarPlaza--><g class="link" data-entity-1="ent0006" data-entity-2="ent0008" data-link-type="dependency" data-source-line="36" id="lnk9"><path d="M222.9745,537.5769 C222.9745,555.6169 222.9745,584.6969 222.9745,602.0569" fill="none" id="c-to-*end*registrarPlaza" style="stroke:#008000;stroke-width:1;"/><polygon fill="#008000" points="222.9745,608.0569,226.9745,599.0569,222.9745,603.0569,218.9745,599.0569,222.9745,608.0569" style="stroke:#008000;stroke-width:1;"/><path d="M227.9745,560.2969 L227.9745,585.2969 L609.9745,585.2969 L609.9745,570.2969 L599.9745,560.2969 L227.9745,560.2969" fill="#FEFFDD" style="stroke:#181818;stroke-width:0.5;"/><path d="M599.9745,560.2969 L599.9745,570.2969 L609.9745,570.2969 L599.9745,560.2969" fill="#FEFFDD" style="stroke:#181818;stroke-width:0.5;"/><text fill="#000000" font-family="sans-serif" font-size="13" lengthAdjust="spacing" textLength="361.3213" x="233.9745" y="577.3638">datos válidos, plaza registrada como activa y guardada</text></g><g class="entity" data-qualified-name="PLAZAS_ABIERTO" id="ent0010"><rect fill="#F1F1F1" height="50" rx="12.5" ry="12.5" style="stroke:#181818;stroke-width:0.5;" width="142.3291" x="242" y="735"/><line style="stroke:#181818;stroke-width:0.5;" x1="242" x2="384.3291" y1="761.2969" y2="761.2969"/><text fill="#000000" font-family="sans-serif" font-size="14" lengthAdjust="spacing" textLength="122.3291" x="252" y="752.9951">PLAZAS_ABIERTO</text></g><!--link registrarPlaza to PLAZAS_ABIERTO--><g class="link" data-entity-1="ent0002" data-entity-2="ent0010" data-link-type="dependency" data-source-line="42" id="lnk11"><path d="M220.7,640.24 C215.3,658.72 212,670 212,670 C212,670 212,705 212,705 C212,705 235.6382,717.6421 262.5282,732.0121" fill="none" id="registrarPlaza-to-PLAZAS_ABIERTO" style="stroke:#008000;stroke-width:1;"/><polygon fill="#008000" points="267.82,734.84,261.7676,727.0703,263.4102,732.4834,257.9971,734.126,267.82,734.84" style="stroke:#008000;stroke-width:1;"/><path d="M217,675 L217,700 L363,700 L363,685 L353,675 L217,675" fill="#FEFFDD" style="stroke:#181818;stroke-width:0.5;"/><path d="M353,675 L353,685 L363,685 L353,675" fill="#FEFFDD" style="stroke:#181818;stroke-width:0.5;"/><text fill="#000000" font-family="sans-serif" font-size="13" lengthAdjust="spacing" textLength="125.9248" x="223" y="692.0669">completarGestion()</text></g><!--link registrarPlaza to PLAZAS_ABIERTO--><g class="link" data-entity-1="ent0002" data-entity-2="ent0010" data-link-type="dependency" data-source-line="47" id="lnk12"><path d="M366.92,640.24 C370.07,658.72 372,670 372,670 C372,670 372,705 372,705 C372,705 359.5273,716.4204 343.8173,730.7904" fill="none" id="registrarPlaza-to-PLAZAS_ABIERTO-1" style="stroke:#0000FF;stroke-width:1;"/><polygon fill="#0000FF" points="339.39,734.84,348.7306,731.7171,343.0794,731.4653,343.3311,725.8141,339.39,734.84" style="stroke:#0000FF;stroke-width:1;"/><path d="M377,675 L377,700 L507,700 L507,685 L497,675 L377,675" fill="#FEFFDD" style="stroke:#181818;stroke-width:0.5;"/><path d="M497,675 L497,685 L507,685 L497,675" fill="#FEFFDD" style="stroke:#181818;stroke-width:0.5;"/><text fill="#000000" font-family="sans-serif" font-size="13" lengthAdjust="spacing" textLength="109.9287" x="383" y="692.0669">cancelar registro</text></g><?plantuml-src ZLDHQjmm4FttAORjJr8sv0ABOKkJKYXDI4e-4aAPbIOR4LdZZcJ3jWHobVOglKbFqbbluerYjraRZApHlFTcvYdUkL2ZO0NU1Kghcg1clrh_54LCc0Y4bYucGJdr-1q18qpohRtz2Vme2j1dap7HLu-TqRV6YGlBzvXm63uLRftLy35BDGnVe7SMqp3Tm6ncRjaPAiiDwzNRQpYuUhCKed1zK8uG1zP43kiYxxgDsQ8yRsgIraMMsU6YXCZU6PTmMoyq0I4qr2BKwpgxH0gsGzimPqoPXc5rengKYIhi1DH2aOB2a8SRJMeyYcEm_GIwzLR9duTVy9chXT0KZ6iisYcGjiZoYD1CJYPqfCyxT4kFgrm4pn4qMx-hRGUN3Of56P6HasKwp4vDQZk0PxIFGYp74JgpPX2oEmxa2R7z_LDPTCbmWpvXIFHFz5w_cl1_g4-Oqyq4UvTfCOOh1ZJ9gT5MZyspBznsNnGlxc5cja_po_dvr_cxZqTdNqwAJ8AYrvuIoWSrX-EmjrzionXYBdn3hq9YCAJkx8tP8_u5?></g></svg>