<svg xmlns="http://www.w3.org/2000/svg" xmlns:xlink="http://www.w3.org/1999/xlink" contentStyleType="text/css" data-diagram-type="STATE" height="950px" preserveAspectRatio="none" style="width:774px;height:950px;background:#FFFFFF;" version="1.1" viewBox="0 0 774 950" width="774px" zoomAndPan="magnify"><title>Consultar Máquina</title><defs/><g><g class="title" data-source-line="1"><text fill="#000000" font-family="sans-serif" font-size="14" font-weight="bold" lengthAdjust="spacing" textLength="148.4561" x="302.709" y="32.9951">Consultar Máquina</text></g><g id="MAQUINAS_ABIERTO_INICIAL"><rect fill="#F1F1F1" height="76.2969" rx="12.5" ry="12.5" style="stroke:#181818;stroke-width:0.5;" width="184.4434" x="376" y="183.2969"/><line style="stroke:#181818;stroke-width:0.5;" x1="376" x2="560.4434" y1="229.5938" y2="229.5938"/><text fill="#000000" font-family="sans-serif" font-size="14" lengthAdjust="spacing" textLength="144.4434" x="396" y="211.292">MAQUINAS_ABIERTO</text></g><path d="M188,359.2969 L748.374,359.2969 A12.5,12.5 0 0 1 760.874,371.7969 L760.874,405.5938 L175.5,405.5938 L175.5,371.7969 A12.5,12.5 0 0 1 188,359.2969" fill="#F1F1F1"/><rect fill="none" height="287.2969" rx="12.5" ry="12.5" style="stroke:#181818;stroke-width:0.5;" width="585.374" x="175.5" y="359.2969"/><line style="stroke:#181818;stroke-width:0.5;" x1="175.5" x2="760.874" y1="405.5938" y2="405.5938"/><text fill="#000000" font-family="sans-serif" font-size="14" lengthAdjust="spacing" textLength="134.1143" x="401.1299" y="387.292">MAQUINA_ABIERTA</text><g id="MAQUINA_ABIERTA.VisualizacionMaquina"><rect fill="#F1F1F1" height="76.2969" rx="12.5" ry="12.5" style="stroke:#181818;stroke-width:0.5;" width="217.1055" x="187.5" y="487.5938"/><line style="stroke:#181818;stroke-width:0.5;" x1="187.5" x2="404.6055" y1="533.8906" y2="533.8906"/><text fill="#000000" font-family="sans-serif" font-size="14" lengthAdjust="spacing" textLength="177.1055" x="207.5" y="515.5889">Visualización de Máquina</text></g><ellipse cx="296" cy="426.5938" fill="#222222" rx="10" ry="10" style="stroke:#222222;stroke-width:1;"/><ellipse cx="296" cy="625.5938" fill="none" rx="11" ry="11" style="stroke:#222222;stroke-width:1;"/><ellipse cx="296" cy="625.5938" fill="#222222" rx="6" ry="6" style="stroke:#222222;stroke-width:1;"/><g class="entity" data-entity="GMN2" data-source-line="26" data-uid="ent0003" id="entity_GMN2"><path d="M422.5,472.5938 L422.5,521.5938 L404.77,525.5938 L422.5,529.5938 L422.5,578.2578 A0,0 0 0 0 422.5,578.2578 L751.874,578.2578 A0,0 0 0 0 751.874,578.2578 L751.874,482.5938 L741.874,472.5938 L422.5,472.5938 A0,0 0 0 0 422.5,472.5938" fill="#FEFFDD" style="stroke:#181818;stroke-width:0.5;"/><path d="M741.874,472.5938 L741.874,482.5938 L751.874,482.5938 L741.874,472.5938" fill="#FEFFDD" style="stroke:#181818;stroke-width:0.5;"/><text fill="#000000" font-family="sans-serif" font-size="13" font-weight="bold" lengthAdjust="spacing" textLength="124.1855" x="438.5" y="499.6606">Sistema muestra</text><text fill="#000000" font-family="sans-serif" font-size="13" lengthAdjust="spacing" textLength="160.0562" x="566.8179" y="499.6606">los datos de la máquina:</text><text fill="#000000" font-family="sans-serif" font-size="13" lengthAdjust="spacing" textLength="260.6665" x="438.5" y="514.7935">nombre, tipoRestriccion, tipos de ticket,</text><text fill="#000000" font-family="sans-serif" font-size="13" lengthAdjust="spacing" textLength="188.519" x="438.5" y="529.9263">plaza y motorario asignados.</text><text fill="#000000" font-family="sans-serif" font-size="13" font-weight="bold" lengthAdjust="spacing" textLength="184.666" x="438.5" y="545.0591">Sistema permite solicitar</text><text fill="#000000" font-family="sans-serif" font-size="13" lengthAdjust="spacing" textLength="38.27" x="627.2983" y="545.0591">editar</text><text fill="#000000" font-family="sans-serif" font-size="13" lengthAdjust="spacing" textLength="173.9956" x="438.5" y="560.1919">mediante editarMaquina().</text></g><!--link *start*MAQUINA_ABIERTA to VisualizacionMaquina--><g class="link" data-entity-1=".start.MAQUINA_ABIERTA" data-entity-2="VisualizacionMaquina" data-source-line="24" data-uid="lnk6" id="link_.start.MAQUINA_ABIERTA_VisualizacionMaquina"><path d="M296,436.8138 C296,448.7738 296,463.2537 296,481.5438" fill="none" id="*start*MAQUINA_ABIERTA-to-VisualizacionMaquina" style="stroke:#008000;stroke-width:1;"/><polygon fill="#008000" points="296,487.5438,300,478.5438,296,482.5438,292,478.5438,296,487.5438" style="stroke:#008000;stroke-width:1;"/></g><!--link VisualizacionMaquina to *end*MAQUINA_ABIERTA--><g class="link" data-entity-1="VisualizacionMaquina" data-entity-2=".end.MAQUINA_ABIERTA" data-source-line="33" data-uid="lnk8" id="link_VisualizacionMaquina_.end.MAQUINA_ABIERTA"><path d="M296,563.6838 C296,581.7938 296,596.1038 296,608.3638" fill="none" id="VisualizacionMaquina-to-*end*MAQUINA_ABIERTA" style="stroke:#008000;stroke-width:1;"/><polygon fill="#008000" points="296,614.3638,300,605.3638,296,609.3638,292,605.3638,296,614.3638" style="stroke:#008000;stroke-width:1;"/></g><g id="MAQUINAS_ABIERTO_FINAL"><rect fill="#F1F1F1" height="76.2969" rx="12.5" ry="12.5" style="stroke:#181818;stroke-width:0.5;" width="184.4434" x="376" y="746.2969"/><line style="stroke:#181818;stroke-width:0.5;" x1="376" x2="560.4434" y1="792.5938" y2="792.5938"/><text fill="#000000" font-family="sans-serif" font-size="14" lengthAdjust="spacing" textLength="144.4434" x="396" y="774.292">MAQUINAS_ABIERTO</text></g><ellipse cx="468" cy="73.2969" fill="#222222" rx="10" ry="10" style="stroke:#222222;stroke-width:1;"/><ellipse cx="468" cy="933.2969" fill="none" rx="11" ry="11" style="stroke:#222222;stroke-width:1;"/><ellipse cx="468" cy="933.2969" fill="#222222" rx="6" ry="6" style="stroke:#222222;stroke-width:1;"/><!--link *start* to MAQUINAS_ABIERTO_INICIAL--><g class="link" data-entity-1=".start." data-entity-2="MAQUINAS_ABIERTO_INICIAL" data-source-line="11" data-uid="lnk3" id="link_.start._MAQUINAS_ABIERTO_INICIAL"><path d="M468,83.4669 C468,103.6469 468,143.6769 468,176.9969" fill="none" id="*start*-to-MAQUINAS_ABIERTO_INICIAL" style="stroke:#008000;stroke-width:1;"/><polygon fill="#008000" points="468,182.9969,472,173.9969,468,177.9969,464,173.9969,468,182.9969" style="stroke:#008000;stroke-width:1;"/></g><!--link MAQUINAS_ABIERTO_INICIAL to MAQUINA_ABIERTA--><g class="link" data-entity-1="MAQUINAS_ABIERTO_INICIAL" data-entity-2="MAQUINA_ABIERTA" data-source-line="13" data-uid="lnk4" id="link_MAQUINAS_ABIERTO_INICIAL_MAQUINA_ABIERTA"><path d="M468,259.5569 C468,285.7869 468,316.3969 468,353.2569" fill="none" id="MAQUINAS_ABIERTO_INICIAL-to-MAQUINA_ABIERTA" style="stroke:#008000;stroke-width:1;"/><polygon fill="#008000" points="468,359.2569,472,350.2569,468,354.2569,464,350.2569,468,359.2569" style="stroke:#008000;stroke-width:1;"/><path d="M9,214.4069 L9,304.4069 L315,304.4069 L315,224.4069 L305,214.4069 L9,214.4069" fill="#FEFFDD" style="stroke:#181818;stroke-width:0.5;"/><path d="M305,214.4069 L305,224.4069 L315,224.4069 L305,214.4069" fill="#FEFFDD" style="stroke:#181818;stroke-width:0.5;"/><text fill="#000000" font-family="sans-serif" font-size="13" font-weight="bold" lengthAdjust="spacing" textLength="136.4175" x="25" y="241.4738">Supervisor solicita</text><text fill="#000000" font-family="sans-serif" font-size="13" lengthAdjust="spacing" textLength="124.7822" x="165.5498" y="241.4738">consultar el detalle</text><text fill="#000000" font-family="sans-serif" font-size="13" lengthAdjust="spacing" textLength="174.6685" x="25" y="256.6066">de una máquina existente.</text><text fill="#000000" font-family="sans-serif" font-size="13" font-weight="bold" lengthAdjust="spacing" textLength="128.7622" x="25" y="271.7394">Sistema presenta</text><text fill="#000000" font-family="sans-serif" font-size="13" lengthAdjust="spacing" textLength="112.0742" x="157.8945" y="271.7394">la ficha completa</text><text fill="#000000" font-family="sans-serif" font-size="13" lengthAdjust="spacing" textLength="97.1636" x="25" y="286.8722">de la máquina.</text><text fill="#000000" font-family="sans-serif" font-size="13" lengthAdjust="spacing" textLength="126.0073" x="331.332" y="264.173">consultarMaquina()</text></g><!--link MAQUINA_ABIERTA to MAQUINAS_ABIERTO_FINAL--><g class="link" data-entity-1="MAQUINA_ABIERTA" data-entity-2="MAQUINAS_ABIERTO_FINAL" data-source-line="36" data-uid="lnk9" id="link_MAQUINA_ABIERTA_MAQUINAS_ABIERTO_FINAL"><path d="M468,646.4369 C468,683.2969 468,713.9069 468,740.1269" fill="none" id="MAQUINA_ABIERTA-to-MAQUINAS_ABIERTO_FINAL" style="stroke:#FF0000;stroke-width:1;"/><polygon fill="#FF0000" points="468,746.1269,472,737.1269,468,741.1269,464,737.1269,468,746.1269" style="stroke:#FF0000;stroke-width:1;"/><text fill="#000000" font-family="sans-serif" font-size="13" lengthAdjust="spacing" textLength="104.7808" x="17" y="743.4766">cerrarMaquina()</text><path d="M137.7808,701.2769 L137.7808,776.2769 L462.7808,776.2769 L462.7808,711.2769 L452.7808,701.2769 L137.7808,701.2769" fill="#FEFFDD" style="stroke:#181818;stroke-width:0.5;"/><path d="M452.7808,701.2769 L452.7808,711.2769 L462.7808,711.2769 L452.7808,701.2769" fill="#FEFFDD" style="stroke:#181818;stroke-width:0.5;"/><text fill="#000000" font-family="sans-serif" font-size="13" font-weight="bold" lengthAdjust="spacing" textLength="63.7114" x="153.7808" y="728.3438">CERRAR:</text><text fill="#000000" font-family="sans-serif" font-size="13" font-weight="bold" lengthAdjust="spacing" textLength="136.4175" x="153.7808" y="743.4766">Supervisor solicita</text><text fill="#000000" font-family="sans-serif" font-size="13" lengthAdjust="spacing" textLength="103.2065" x="294.3306" y="743.4766">salir de la ficha.</text><text fill="#000000" font-family="sans-serif" font-size="13" font-weight="bold" lengthAdjust="spacing" textLength="128.7622" x="153.7808" y="758.6094">Sistema presenta</text><text fill="#000000" font-family="sans-serif" font-size="13" lengthAdjust="spacing" textLength="151.3662" x="286.6753" y="758.6094">el listado de máquinas.</text></g><!--link MAQUINAS_ABIERTO_FINAL to *end*--><g class="link" data-entity-1="MAQUINAS_ABIERTO_FINAL" data-entity-2=".end." data-source-line="43" data-uid="lnk11" id="link_MAQUINAS_ABIERTO_FINAL_.end."><path d="M468,822.6669 C468,855.7769 468,895.4569 468,916.2169" fill="none" id="MAQUINAS_ABIERTO_FINAL-to-*end*" style="stroke:#0000FF;stroke-width:1;"/><polygon fill="#0000FF" points="468,922.2169,472,913.2169,468,917.2169,464,913.2169,468,922.2169" style="stroke:#0000FF;stroke-width:1;"/></g><!--SRC=[XLD1Rjim4Bpp5GldqXQ9crwDm81gf820EcsLjfSW2DRYsYPCaIf95KsAFgPlo1FoiIvbIPOTAzN149SxuzsPKL114yoiyPKEw63-zFT7fGmAlr6cH8S562l9KmdlpizxLOTcyxogbQ5mNn9O5zQsT_4PfLHcnUr2-821O9vy-PPU9TTtoVlqCllwwIwzIcTfyX7Gm-ZmShGFQif9lxUjZORuF_1fY5tSlBc5ivkJbICojsVJmUc469px2BoRSm9vA_4SQu5VlHR6yfYQbW6iYSfj1F1piPXULoMvdyfR1zvgbQk05syNqnq7a0P90RMc6YC9AeDGDEO1_L8-a0aqxYXZeK0e7Njf6ZwDi5Jv6fcuA3NpjMHwnpKMP2J4KSM01xzhrFRkk_8LQlM0kRAcsRIMl7Vnz6ZYVxH9O_4Z_j20OqnrOwsQKwiroxOSRZlOkwZ81zUiRJr83F5tRzL91pIsM3WwXQ1AcqMWoYF_jb33Wiet54uxHAdn0U4U2XkiGwSiRwrM1gNrusFpiC65uaLQVrqz6SduslKNV4PsiQbtoTaoxdo9fwFAzmLbWSMVBhwTUzpYI1wD_FQ3uUYISyzospYm7zpPPPObsIJkyhyiUnxMDGRK8NmvgXnupNNMCs9Qntm_dGFpyu8BNL4ZmJy0]--></g></svg>