<?plantuml 1.2026.2?>
<svg xmlns="http://www.w3.org/2000/svg" xmlns:xlink="http://www.w3.org/1999/xlink" contentStyleType="text/css" data-diagram-type="STATE" height="620px" preserveAspectRatio="none" style="width:704px;height:620px;background:#FFFFFF;" version="1.1" viewBox="0 0 704 620" width="704px" zoomAndPan="magnify"><defs/><g><path d="M19.5,7 L678.5,7 A12.5,12.5 0 0 1 691,19.5 L691,33.2969 L7,33.2969 L7,19.5 A12.5,12.5 0 0 1 19.5,7" fill="#F1F1F1"/><rect fill="none" height="462.2969" rx="12.5" ry="12.5" style="stroke:#181818;stroke-width:0.5;" width="684" x="7" y="7"/><line style="stroke:#181818;stroke-width:0.5;" x1="7" x2="691" y1="33.2969" y2="33.2969"/><text fill="#000000" font-family="sans-serif" font-size="14" lengthAdjust="spacing" textLength="194.6465" x="251.6768" y="24.9951">reactivarMaquina(maquina)</text><g class="entity" data-qualified-name="reactivarMaquina.SolicitandoConfirmacion" id="ent0003"><rect fill="#F1F1F1" height="50" rx="12.5" ry="12.5" style="stroke:#181818;stroke-width:0.5;" width="50" x="19" y="135.2969"/><line style="stroke:#181818;stroke-width:0.5;" x1="19" x2="69" y1="161.5938" y2="161.5938"/><text fill="#000000" font-family="sans-serif" font-size="14" lengthAdjust="spacing" textLength="4.4502" x="41.7749" y="153.292"> </text></g><g class="entity" data-qualified-name="reactivarMaquina.ProcesandoReactivacion" id="ent0004"><rect fill="#F1F1F1" height="50" rx="12.5" ry="12.5" style="stroke:#181818;stroke-width:0.5;" width="50" x="19" y="301.2969"/><line style="stroke:#181818;stroke-width:0.5;" x1="19" x2="69" y1="327.5938" y2="327.5938"/><text fill="#000000" font-family="sans-serif" font-size="14" lengthAdjust="spacing" textLength="4.4502" x="41.7749" y="319.292"> </text></g><g class="start_entity" data-qualified-name="reactivarMaquina..start.reactivarMaquina" data-source-line="8" id="ent0002"><ellipse cx="44" cy="54.2969" fill="#222222" rx="10" ry="10" style="stroke:#222222;stroke-width:1;"/></g><g class="end_entity" data-qualified-name="reactivarMaquina..end.reactivarMaquina" data-source-line="21" id="ent0005"><ellipse cx="44" cy="448.2969" fill="none" rx="11" ry="11" style="stroke:#222222;stroke-width:1;"/><ellipse cx="44" cy="448.2969" fill="#222222" rx="6" ry="6" style="stroke:#222222;stroke-width:1;"/></g><!--link *start*reactivarMaquina to SolicitandoConfirmacion--><g class="link" data-entity-1="ent0002" data-entity-2="ent0003" data-link-type="dependency" data-source-line="8" id="lnk3"><path d="M44,64.5269 C44,80.2369 44,106.6569 44,129.1669" fill="none" id="*start*reactivarMaquina-to-SolicitandoConfirmacion" style="stroke:#008000;stroke-width:1;"/><polygon fill="#008000" points="44,135.1669,48,126.1669,44,130.1669,40,126.1669,44,135.1669" style="stroke:#008000;stroke-width:1;"/><path d="M49,87.2969 L49,112.2969 L439,112.2969 L439,97.2969 L429,87.2969 L49,87.2969" fill="#FEFFDD" style="stroke:#181818;stroke-width:0.5;"/><path d="M429,87.2969 L429,97.2969 L439,97.2969 L429,87.2969" fill="#FEFFDD" style="stroke:#181818;stroke-width:0.5;"/><text fill="#000000" font-family="sans-serif" font-size="13" font-weight="bold" lengthAdjust="spacing" textLength="79.1616" x="55" y="104.3638">Supervisor</text><text fill="#000000" font-family="sans-serif" font-size="13" lengthAdjust="spacing" textLength="286.603" x="138.2939" y="104.3638">solicita reactivar una máquina dada de baja</text></g><!--link SolicitandoConfirmacion to ProcesandoReactivacion--><g class="link" data-entity-1="ent0003" data-entity-2="ent0004" data-link-type="dependency" data-source-line="13" id="lnk4"><path d="M44,185.4969 C44,216.5869 44,264.2469 44,295.2669" fill="none" id="SolicitandoConfirmacion-to-ProcesandoReactivacion" style="stroke:#008000;stroke-width:1;"/><polygon fill="#008000" points="44,301.2669,48,292.2669,44,296.2669,40,292.2669,44,301.2669" style="stroke:#008000;stroke-width:1;"/><path d="M49,208.2969 L49,278.2969 L537,278.2969 L537,218.2969 L527,208.2969 L49,208.2969" fill="#FEFFDD" style="stroke:#181818;stroke-width:0.5;"/><path d="M527,208.2969 L527,218.2969 L537,218.2969 L527,208.2969" fill="#FEFFDD" style="stroke:#181818;stroke-width:0.5;"/><text fill="#000000" font-family="sans-serif" font-size="13" font-weight="bold" lengthAdjust="spacing" textLength="58.9063" x="55" y="225.3638">Sistema</text><text fill="#000000" font-family="sans-serif" font-size="13" lengthAdjust="spacing" textLength="404.3774" x="118.0386" y="225.3638">presenta la ficha de la máquina y advierte que la reactivación</text><text fill="#000000" font-family="sans-serif" font-size="13" lengthAdjust="spacing" textLength="398.3789" x="55" y="240.4966">restaurará los vínculos suspendidos con su plaza y motorario</text><text fill="#000000" font-family="sans-serif" font-size="13" lengthAdjust="spacing" textLength="268.4932" x="55" y="255.6294">• Permite solicitar confirmar reactivación</text><text fill="#000000" font-family="sans-serif" font-size="13" lengthAdjust="spacing" textLength="245.7559" x="55" y="270.7622">• Permite solicitar cancelar operación</text></g><!--link ProcesandoReactivacion to *end*reactivarMaquina--><g class="link" data-entity-1="ent0004" data-entity-2="ent0005" data-link-type="dependency" data-source-line="21" id="lnk6"><path d="M44,351.5769 C44,377.8769 44,412.5669 44,431.2769" fill="none" id="ProcesandoReactivacion-to-*end*reactivarMaquina" style="stroke:#008000;stroke-width:1;"/><polygon fill="#008000" points="44,437.2769,48,428.2769,44,432.2769,40,428.2769,44,437.2769" style="stroke:#008000;stroke-width:1;"/><path d="M49,374.2969 L49,414.2969 L682,414.2969 L682,384.2969 L672,374.2969 L49,374.2969" fill="#FEFFDD" style="stroke:#181818;stroke-width:0.5;"/><path d="M672,374.2969 L672,384.2969 L682,384.2969 L672,374.2969" fill="#FEFFDD" style="stroke:#181818;stroke-width:0.5;"/><text fill="#000000" font-family="sans-serif" font-size="13" font-weight="bold" lengthAdjust="spacing" textLength="79.1616" x="55" y="391.3638">Supervisor</text><text fill="#000000" font-family="sans-serif" font-size="13" lengthAdjust="spacing" textLength="157.1235" x="138.2939" y="391.3638">confirma la reactivación</text><text fill="#000000" font-family="sans-serif" font-size="13" font-weight="bold" lengthAdjust="spacing" textLength="58.9063" x="55" y="406.4966">Sistema</text><text fill="#000000" font-family="sans-serif" font-size="13" lengthAdjust="spacing" textLength="549.9292" x="118.0386" y="406.4966">marca la máquina como activa, restaura los vínculos suspendidos y guarda cambios</text></g><g class="entity" data-qualified-name="MAQUINAS_ABIERTO" id="ent0007"><rect fill="#F1F1F1" height="50" rx="12.5" ry="12.5" style="stroke:#181818;stroke-width:0.5;" width="164.4434" x="267" y="564"/><line style="stroke:#181818;stroke-width:0.5;" x1="267" x2="431.4434" y1="590.2969" y2="590.2969"/><text fill="#000000" font-family="sans-serif" font-size="14" lengthAdjust="spacing" textLength="144.4434" x="277" y="581.9951">MAQUINAS_ABIERTO</text></g><!--link reactivarMaquina to MAQUINAS_ABIERTO--><g class="link" data-entity-1="ent0002" data-entity-2="ent0007" data-link-type="dependency" data-source-line="28" id="lnk8"><path d="M259.59,469.17 C252.49,487.43 248,499 248,499 C248,499 248,534 248,534 C248,534 271.6382,546.6421 298.5282,561.0121" fill="none" id="reactivarMaquina-to-MAQUINAS_ABIERTO" style="stroke:#008000;stroke-width:1;"/><polygon fill="#008000" points="303.82,563.84,297.7676,556.0703,299.4102,561.4834,293.9971,563.126,303.82,563.84" style="stroke:#008000;stroke-width:1;"/><path d="M253,504 L253,529 L399,529 L399,514 L389,504 L253,504" fill="#FEFFDD" style="stroke:#181818;stroke-width:0.5;"/><path d="M389,504 L389,514 L399,514 L389,504" fill="#FEFFDD" style="stroke:#181818;stroke-width:0.5;"/><text fill="#000000" font-family="sans-serif" font-size="13" lengthAdjust="spacing" textLength="125.9248" x="259" y="521.0669">completarGestion()</text></g><!--link reactivarMaquina to MAQUINAS_ABIERTO--><g class="link" data-entity-1="ent0002" data-entity-2="ent0007" data-link-type="dependency" data-source-line="33" id="lnk9"><path d="M401.23,469.17 C405.37,487.43 408,499 408,499 C408,499 408,534 408,534 C408,534 395.5273,545.4204 379.8173,559.7904" fill="none" id="reactivarMaquina-to-MAQUINAS_ABIERTO-1" style="stroke:#0000FF;stroke-width:1;"/><polygon fill="#0000FF" points="375.39,563.84,384.7306,560.7171,379.0794,560.4653,379.3311,554.8141,375.39,563.84" style="stroke:#0000FF;stroke-width:1;"/><path d="M413,504 L413,529 L573,529 L573,514 L563,504 L413,504" fill="#FEFFDD" style="stroke:#181818;stroke-width:0.5;"/><path d="M563,504 L563,514 L573,514 L563,504" fill="#FEFFDD" style="stroke:#181818;stroke-width:0.5;"/><text fill="#000000" font-family="sans-serif" font-size="13" lengthAdjust="spacing" textLength="139.3311" x="419" y="521.0669">cancelar reactivación</text></g><?plantuml-src ZLF1JkCm4BtdAqRb0cWHFu0gTH527DW5ofuGGXDdO0ss9upZIcM5nA-mzptj9_HF-18c3eK6MaGY9HDxvirxRvnuOqEDWXwS3THCQuAQtRJzA8hOO4CWXAQn4vH3l4qs8624mVl5TT-zDmRmfoX0hwvueBVcZzbPOniC5UzokBJYqLWE7nEFX0t5Dk_afKFEoubdc-UmTRPs9KJXV6luAMXWnUJGghh92plbS9ngaecDB3lRvH3YI_cRG4YgpiyUEvaLLleWAF4QCmI5AkDsR5Pqxp5SeMObGHiRyfZPrKAHWh9p29VM_CvKt0AzAM0riIGASvlobhpscFtlcYX6WqbGPe_WEC9azY-Or4OnnLhrs4fZepHYWjhXNGlhkM4jiPmXdXx-mX69jzfdxfYq9LcnB6cweWA38QS1wn0MilkcBZUivwcUWgzEUCvokJdl35Sn1diE6_OCNTMtLoi_yN4ALmb53ur1NrgEVNttHV7XJrhKTJWw_dNmOpI-67q_s3iv_Ldq12gNsf4QkQyyr9BrZUBDkMMufKlq1TZvLFhspA6V0G00?></g></svg>