<svg xmlns="http://www.w3.org/2000/svg" xmlns:xlink="http://www.w3.org/1999/xlink" contentStyleType="text/css" data-diagram-type="STATE" height="1174px" preserveAspectRatio="none" style="width:1016px;height:1174px;background:#FFFFFF;" version="1.1" viewBox="0 0 1016 1174" width="1016px" zoomAndPan="magnify"><title>Editar Máquina</title><defs/><g><g class="title" data-source-line="1"><text fill="#000000" font-family="sans-serif" font-size="14" font-weight="bold" lengthAdjust="spacing" textLength="119.8818" x="441.5214" y="32.9951">Editar Máquina</text></g><g id="MAQUINAS_ABIERTO_INICIAL"><rect fill="#F1F1F1" height="76.2969" rx="12.5" ry="12.5" style="stroke:#181818;stroke-width:0.5;" width="184.4434" x="414.67" y="183.2969"/><line style="stroke:#181818;stroke-width:0.5;" x1="414.67" x2="599.1134" y1="229.5938" y2="229.5938"/><text fill="#000000" font-family="sans-serif" font-size="14" lengthAdjust="spacing" textLength="144.4434" x="434.67" y="211.292">MAQUINAS_ABIERTO</text></g><path d="M118.67,359.2969 L894.4069,359.2969 A12.5,12.5 0 0 1 906.9069,371.7969 L906.9069,405.5938 L106.17,405.5938 L106.17,371.7969 A12.5,12.5 0 0 1 118.67,359.2969" fill="#F1F1F1"/><rect fill="none" height="511.2969" rx="12.5" ry="12.5" style="stroke:#181818;stroke-width:0.5;" width="800.7369" x="106.17" y="359.2969"/><line style="stroke:#181818;stroke-width:0.5;" x1="106.17" x2="906.9069" y1="405.5938" y2="405.5938"/><text fill="#000000" font-family="sans-serif" font-size="14" lengthAdjust="spacing" textLength="134.1143" x="439.4813" y="387.292">MAQUINA_ABIERTA</text><g id="MAQUINA_ABIERTA.EdicionMaquina"><rect fill="#F1F1F1" height="76.2969" rx="12.5" ry="12.5" style="stroke:#181818;stroke-width:0.5;" width="176.8076" x="394.38" y="472.5938"/><line style="stroke:#181818;stroke-width:0.5;" x1="394.38" x2="571.1876" y1="518.8906" y2="518.8906"/><text fill="#000000" font-family="sans-serif" font-size="14" lengthAdjust="spacing" textLength="136.8076" x="414.38" y="500.5889">Edición de Máquina</text></g><g id="MAQUINA_ABIERTA.EdicionTiposTicket"><rect fill="#F1F1F1" height="76.2969" rx="12.5" ry="12.5" style="stroke:#181818;stroke-width:0.5;" width="222.9844" x="129.38" y="599.5938"/><line style="stroke:#181818;stroke-width:0.5;" x1="129.38" x2="352.3644" y1="645.8906" y2="645.8906"/><text fill="#000000" font-family="sans-serif" font-size="14" lengthAdjust="spacing" textLength="182.9844" x="149.38" y="627.5889">Edición de Tipos de Ticket</text></g><g id="MAQUINA_ABIERTA.ConfirmacionMaquina"><rect fill="#F1F1F1" height="76.2969" rx="12.5" ry="12.5" style="stroke:#181818;stroke-width:0.5;" width="219.1904" x="373.38" y="726.5938"/><line style="stroke:#181818;stroke-width:0.5;" x1="373.38" x2="592.5704" y1="772.8906" y2="772.8906"/><text fill="#000000" font-family="sans-serif" font-size="14" lengthAdjust="spacing" textLength="179.1904" x="393.38" y="754.5889">Confirmación de Máquina</text></g><ellipse cx="482.88" cy="426.5938" fill="#222222" rx="10" ry="10" style="stroke:#222222;stroke-width:1;"/><ellipse cx="482.88" cy="849.5938" fill="none" rx="11" ry="11" style="stroke:#222222;stroke-width:1;"/><ellipse cx="482.88" cy="849.5938" fill="#222222" rx="6" ry="6" style="stroke:#222222;stroke-width:1;"/><g class="entity" data-entity="GMN2" data-source-line="28" data-uid="ent0003" id="entity_GMN2"><path d="M589.88,473.0938 L589.88,506.5938 L571.6,510.5938 L589.88,514.5938 L589.88,548.4922 A0,0 0 0 0 589.88,548.4922 L897.9069,548.4922 A0,0 0 0 0 897.9069,548.4922 L897.9069,483.0938 L887.9069,473.0938 L589.88,473.0938 A0,0 0 0 0 589.88,473.0938" fill="#FEFFDD" style="stroke:#181818;stroke-width:0.5;"/><path d="M887.9069,473.0938 L887.9069,483.0938 L897.9069,483.0938 L887.9069,473.0938" fill="#FEFFDD" style="stroke:#181818;stroke-width:0.5;"/><text fill="#000000" font-family="sans-serif" font-size="13" font-weight="bold" lengthAdjust="spacing" textLength="146.5166" x="605.88" y="500.1606">Supervisor modifica</text><text fill="#000000" font-family="sans-serif" font-size="13" lengthAdjust="spacing" textLength="58.5127" x="756.5289" y="500.1606">los datos</text><text fill="#000000" font-family="sans-serif" font-size="13" lengthAdjust="spacing" textLength="267.0269" x="605.88" y="515.2935">de la máquina (nombre, tipoRestriccion).</text><text fill="#000000" font-family="sans-serif" font-size="13" font-weight="bold" lengthAdjust="spacing" textLength="107.6689" x="605.88" y="530.4263">Sistema valida</text><text fill="#000000" font-family="sans-serif" font-size="13" lengthAdjust="spacing" textLength="147.2529" x="717.6813" y="530.4263">los datos introducidos.</text></g><g class="entity" data-entity="GMN5" data-source-line="37" data-uid="ent0006" id="entity_GMN5"><path d="M370.38,584.5938 L370.38,633.5938 L352.48,637.5938 L370.38,641.5938 L370.38,690.2578 A0,0 0 0 0 370.38,690.2578 L697.234,690.2578 A0,0 0 0 0 697.234,690.2578 L697.234,594.5938 L687.234,584.5938 L370.38,584.5938 A0,0 0 0 0 370.38,584.5938" fill="#FEFFDD" style="stroke:#181818;stroke-width:0.5;"/><path d="M687.234,584.5938 L687.234,594.5938 L697.234,594.5938 L687.234,584.5938" fill="#FEFFDD" style="stroke:#181818;stroke-width:0.5;"/><text fill="#000000" font-family="sans-serif" font-size="13" font-weight="bold" lengthAdjust="spacing" textLength="75.8164" x="386.38" y="611.6606">[Opcional]</text><text fill="#000000" font-family="sans-serif" font-size="13" lengthAdjust="spacing" textLength="4.1323" x="462.1964" y="611.6606"> </text><text fill="#000000" font-family="sans-serif" font-size="13" font-weight="bold" lengthAdjust="spacing" textLength="146.5166" x="466.3287" y="611.6606">Supervisor modifica</text><text fill="#000000" font-family="sans-serif" font-size="13" lengthAdjust="spacing" textLength="54.1582" x="616.9777" y="611.6606">los tipos</text><text fill="#000000" font-family="sans-serif" font-size="13" lengthAdjust="spacing" textLength="285.854" x="386.38" y="626.7935">de ticket disponibles (niño, adulto o ambos)</text><text fill="#000000" font-family="sans-serif" font-size="13" lengthAdjust="spacing" textLength="88.9561" x="386.38" y="641.9263">y sus precios.</text><text fill="#000000" font-family="sans-serif" font-size="13" font-weight="bold" lengthAdjust="spacing" textLength="107.6689" x="386.38" y="657.0591">Sistema valida</text><text fill="#000000" font-family="sans-serif" font-size="13" lengthAdjust="spacing" textLength="108.5703" x="498.1813" y="657.0591">que al menos un</text><text fill="#000000" font-family="sans-serif" font-size="13" lengthAdjust="spacing" textLength="178.6675" x="386.38" y="672.1919">tipo de ticket esté definido.</text></g><g class="entity" data-entity="GMN8" data-source-line="47" data-uid="ent0009" id="entity_GMN8"><path d="M610.38,734.5938 L610.38,760.5938 L592.54,764.5938 L610.38,768.5938 L610.38,794.8594 A0,0 0 0 0 610.38,794.8594 L883.1012,794.8594 A0,0 0 0 0 883.1012,794.8594 L883.1012,744.5938 L873.1012,734.5938 L610.38,734.5938 A0,0 0 0 0 610.38,734.5938" fill="#FEFFDD" style="stroke:#181818;stroke-width:0.5;"/><path d="M873.1012,734.5938 L873.1012,744.5938 L883.1012,744.5938 L873.1012,734.5938" fill="#FEFFDD" style="stroke:#181818;stroke-width:0.5;"/><text fill="#000000" font-family="sans-serif" font-size="13" font-weight="bold" lengthAdjust="spacing" textLength="121.5576" x="626.38" y="761.6606">Sistema registra</text><text fill="#000000" font-family="sans-serif" font-size="13" lengthAdjust="spacing" textLength="76.8384" x="752.0699" y="761.6606">los cambios</text><text fill="#000000" font-family="sans-serif" font-size="13" lengthAdjust="spacing" textLength="231.7212" x="626.38" y="776.7935">de la máquina y sus tipos de ticket.</text></g><!--link *start*MAQUINA_ABIERTA to EdicionMaquina--><g class="link" data-entity-1=".start.MAQUINA_ABIERTA" data-entity-2="EdicionMaquina" data-source-line="26" data-uid="lnk6" id="link_.start.MAQUINA_ABIERTA_EdicionMaquina"><path d="M482.88,436.8938 C482.88,445.8338 482.88,453.3438 482.88,466.3738" fill="none" id="*start*MAQUINA_ABIERTA-to-EdicionMaquina" style="stroke:#008000;stroke-width:1;"/><polygon fill="#008000" points="482.88,472.3738,486.88,463.3738,482.88,467.3738,478.88,463.3738,482.88,472.3738" style="stroke:#008000;stroke-width:1;"/></g><!--link EdicionMaquina to EdicionTiposTicket--><g class="link" data-entity-1="EdicionMaquina" data-entity-2="EdicionTiposTicket" data-source-line="33" data-uid="lnk7" id="link_EdicionMaquina_EdicionTiposTicket"><path d="M394.14,498.5938 C325.07,498.5938 240.88,498.5938 240.88,498.5938 C240.88,498.5938 240.88,552.1038 240.88,593.2438" fill="none" id="EdicionMaquina-to-EdicionTiposTicket" style="stroke:#008000;stroke-width:1;"/><polygon fill="#008000" points="240.88,599.2438,244.88,590.2438,240.88,594.2438,236.88,590.2438,240.88,599.2438" style="stroke:#008000;stroke-width:1;"/><text fill="#000000" font-family="sans-serif" font-size="13" lengthAdjust="spacing" textLength="122.2686" x="134.18" y="484.6606">editarTiposTicket()</text></g><!--link EdicionMaquina to ConfirmacionMaquina--><g class="link" data-entity-1="EdicionMaquina" data-entity-2="ConfirmacionMaquina" data-source-line="34" data-uid="lnk8" id="link_EdicionMaquina_ConfirmacionMaquina"><path d="M394.26,523.5938 C375.57,523.5938 361.38,523.5938 361.38,523.5938 C361.38,523.5938 361.38,752.5938 361.38,752.5938 C361.38,752.5938 359.83,752.5938 367.03,752.5938" fill="none" id="EdicionMaquina-to-ConfirmacionMaquina" style="stroke:#008000;stroke-width:1;"/><polygon fill="#008000" points="373.03,752.5938,364.03,748.5938,368.03,752.5938,364.03,756.5938,373.03,752.5938" style="stroke:#008000;stroke-width:1;"/><text fill="#000000" font-family="sans-serif" font-size="13" lengthAdjust="spacing" textLength="117" x="233.38" y="613.5506">guardarMaquina()</text></g><!--link EdicionTiposTicket to ConfirmacionMaquina--><g class="link" data-entity-1="EdicionTiposTicket" data-entity-2="ConfirmacionMaquina" data-source-line="44" data-uid="lnk9" id="link_EdicionTiposTicket_ConfirmacionMaquina"><path d="M240.88,675.8538 C240.88,717.3038 240.88,777.5938 240.88,777.5938 C240.88,777.5938 303.18,777.5938 367.21,777.5938" fill="none" id="EdicionTiposTicket-to-ConfirmacionMaquina" style="stroke:#008000;stroke-width:1;"/><polygon fill="#008000" points="373.21,777.5938,364.21,773.5938,368.21,777.5938,364.21,781.5938,373.21,777.5938" style="stroke:#008000;stroke-width:1;"/><text fill="#000000" font-family="sans-serif" font-size="13" lengthAdjust="spacing" textLength="117" x="128.17" y="763.6606">guardarMaquina()</text></g><!--link ConfirmacionMaquina to *end*MAQUINA_ABIERTA--><g class="link" data-entity-1="ConfirmacionMaquina" data-entity-2=".end.MAQUINA_ABIERTA" data-source-line="51" data-uid="lnk11" id="link_ConfirmacionMaquina_.end.MAQUINA_ABIERTA"><path d="M482.88,802.6138 C482.88,815.7038 482.88,823.3538 482.88,832.5538" fill="none" id="ConfirmacionMaquina-to-*end*MAQUINA_ABIERTA" style="stroke:#008000;stroke-width:1;"/><polygon fill="#008000" points="482.88,838.5538,486.88,829.5538,482.88,833.5538,478.88,829.5538,482.88,838.5538" style="stroke:#008000;stroke-width:1;"/></g><g id="MAQUINAS_ABIERTO_FINAL"><rect fill="#F1F1F1" height="76.2969" rx="12.5" ry="12.5" style="stroke:#181818;stroke-width:0.5;" width="184.4434" x="414.67" y="970.2969"/><line style="stroke:#181818;stroke-width:0.5;" x1="414.67" x2="599.1134" y1="1016.5938" y2="1016.5938"/><text fill="#000000" font-family="sans-serif" font-size="14" lengthAdjust="spacing" textLength="144.4434" x="434.67" y="998.292">MAQUINAS_ABIERTO</text></g><ellipse cx="506.67" cy="73.2969" fill="#222222" rx="10" ry="10" style="stroke:#222222;stroke-width:1;"/><ellipse cx="506.67" cy="1157.2969" fill="none" rx="11" ry="11" style="stroke:#222222;stroke-width:1;"/><ellipse cx="506.67" cy="1157.2969" fill="#222222" rx="6" ry="6" style="stroke:#222222;stroke-width:1;"/><!--link *start* to MAQUINAS_ABIERTO_INICIAL--><g class="link" data-entity-1=".start." data-entity-2="MAQUINAS_ABIERTO_INICIAL" data-source-line="11" data-uid="lnk3" id="link_.start._MAQUINAS_ABIERTO_INICIAL"><path d="M506.67,83.4669 C506.67,103.6469 506.67,143.6769 506.67,176.9969" fill="none" id="*start*-to-MAQUINAS_ABIERTO_INICIAL" style="stroke:#008000;stroke-width:1;"/><polygon fill="#008000" points="506.67,182.9969,510.67,173.9969,506.67,177.9969,502.67,173.9969,506.67,182.9969" style="stroke:#008000;stroke-width:1;"/></g><!--link MAQUINAS_ABIERTO_INICIAL to MAQUINA_ABIERTA--><g class="link" data-entity-1="MAQUINAS_ABIERTO_INICIAL" data-entity-2="MAQUINA_ABIERTA" data-source-line="13" data-uid="lnk4" id="link_MAQUINAS_ABIERTO_INICIAL_MAQUINA_ABIERTA"><path d="M506.67,259.3869 C506.67,284.6469 506.67,314.2569 506.67,353.2569" fill="none" id="MAQUINAS_ABIERTO_INICIAL-to-MAQUINA_ABIERTA" style="stroke:#008000;stroke-width:1;"/><polygon fill="#008000" points="506.67,359.2569,510.67,350.2569,506.67,354.2569,502.67,350.2569,506.67,359.2569" style="stroke:#008000;stroke-width:1;"/><path d="M47.67,214.3169 L47.67,304.3169 L375.67,304.3169 L375.67,224.3169 L365.67,214.3169 L47.67,214.3169" fill="#FEFFDD" style="stroke:#181818;stroke-width:0.5;"/><path d="M365.67,214.3169 L365.67,224.3169 L375.67,224.3169 L365.67,214.3169" fill="#FEFFDD" style="stroke:#181818;stroke-width:0.5;"/><text fill="#000000" font-family="sans-serif" font-size="13" font-weight="bold" lengthAdjust="spacing" textLength="136.4175" x="63.67" y="241.3838">Supervisor solicita</text><text fill="#000000" font-family="sans-serif" font-size="13" lengthAdjust="spacing" textLength="100.915" x="204.2198" y="241.3838">editar los datos</text><text fill="#000000" font-family="sans-serif" font-size="13" lengthAdjust="spacing" textLength="174.6685" x="63.67" y="256.5166">de una máquina existente.</text><text fill="#000000" font-family="sans-serif" font-size="13" font-weight="bold" lengthAdjust="spacing" textLength="128.7622" x="63.67" y="271.6494">Sistema presenta</text><text fill="#000000" font-family="sans-serif" font-size="13" lengthAdjust="spacing" textLength="154.3369" x="196.5645" y="271.6494">el formulario de edición</text><text fill="#000000" font-family="sans-serif" font-size="13" lengthAdjust="spacing" textLength="234.4316" x="63.67" y="286.7822">con los datos actuales precargados.</text><text fill="#000000" font-family="sans-serif" font-size="13" lengthAdjust="spacing" textLength="103.9048" x="391.9014" y="264.083">editarMaquina()</text></g><!--link MAQUINA_ABIERTA to MAQUINAS_ABIERTO_FINAL--><g class="link" data-entity-1="MAQUINA_ABIERTA" data-entity-2="MAQUINAS_ABIERTO_FINAL" data-source-line="54" data-uid="lnk12" id="link_MAQUINA_ABIERTA_MAQUINAS_ABIERTO_FINAL"><path d="M476,870.3969 C476,909.3569 476,938.9269 476,964.1869" fill="none" id="MAQUINA_ABIERTA-to-MAQUINAS_ABIERTO_FINAL" style="stroke:#008000;stroke-width:1;"/><polygon fill="#008000" points="476,970.1869,480,961.1869,476,965.1869,472,961.1869,476,970.1869" style="stroke:#008000;stroke-width:1;"/><path d="M6,925.2869 L6,985.2869 L329,985.2869 L329,935.2869 L319,925.2869 L6,925.2869" fill="#FEFFDD" style="stroke:#181818;stroke-width:0.5;"/><path d="M319,925.2869 L319,935.2869 L329,935.2869 L319,925.2869" fill="#FEFFDD" style="stroke:#181818;stroke-width:0.5;"/><text fill="#000000" font-family="sans-serif" font-size="13" font-weight="bold" lengthAdjust="spacing" textLength="128.1655" x="22" y="952.3538">Sistema confirma</text><text fill="#000000" font-family="sans-serif" font-size="13" lengthAdjust="spacing" textLength="149.9697" x="154.2979" y="952.3538">los cambios guardados</text><text fill="#000000" font-family="sans-serif" font-size="13" lengthAdjust="spacing" textLength="216.9692" x="22" y="967.4866">y regresa al listado de máquinas.</text><text fill="#000000" font-family="sans-serif" font-size="13" lengthAdjust="spacing" textLength="120.0215" x="345.2676" y="959.9202">confirmarEdicion()</text></g><!--link MAQUINA_ABIERTA to MAQUINAS_ABIERTO_FINAL--><g class="link" data-entity-1="MAQUINA_ABIERTA" data-entity-2="MAQUINAS_ABIERTO_FINAL" data-source-line="60" data-uid="lnk13" id="link_MAQUINA_ABIERTA_MAQUINAS_ABIERTO_FINAL"><path d="M537.33,870.3969 C537.33,909.3569 537.33,938.9269 537.33,964.1869" fill="none" id="MAQUINA_ABIERTA-to-MAQUINAS_ABIERTO_FINAL-1" style="stroke:#FF0000;stroke-width:1;"/><polygon fill="#FF0000" points="537.33,970.1869,541.33,961.1869,537.33,965.1869,533.33,961.1869,537.33,970.1869" style="stroke:#FF0000;stroke-width:1;"/><text fill="#000000" font-family="sans-serif" font-size="13" lengthAdjust="spacing" textLength="112.5947" x="548.33" y="975.053">cancelarEdicion()</text><path d="M676.9247,925.2869 L676.9247,1015.2869 L1009.9247,1015.2869 L1009.9247,935.2869 L999.9247,925.2869 L676.9247,925.2869" fill="#FEFFDD" style="stroke:#181818;stroke-width:0.5;"/><path d="M999.9247,925.2869 L999.9247,935.2869 L1009.9247,935.2869 L999.9247,925.2869" fill="#FEFFDD" style="stroke:#181818;stroke-width:0.5;"/><text fill="#000000" font-family="sans-serif" font-size="13" font-weight="bold" lengthAdjust="spacing" textLength="82.4561" x="692.9247" y="952.3538">CANCELAR:</text><text fill="#000000" font-family="sans-serif" font-size="13" font-weight="bold" lengthAdjust="spacing" textLength="136.4175" x="692.9247" y="967.4866">Supervisor solicita</text><text fill="#000000" font-family="sans-serif" font-size="13" lengthAdjust="spacing" textLength="109.6938" x="833.4745" y="967.4866">salir sin guardar.</text><text fill="#000000" font-family="sans-serif" font-size="13" font-weight="bold" lengthAdjust="spacing" textLength="127.1689" x="692.9247" y="982.6194">Sistema descarta</text><text fill="#000000" font-family="sans-serif" font-size="13" lengthAdjust="spacing" textLength="161.4463" x="824.226" y="982.6194">los cambios introducidos</text><text fill="#000000" font-family="sans-serif" font-size="13" lengthAdjust="spacing" textLength="216.9692" x="692.9247" y="997.7522">y regresa al listado de máquinas.</text></g><!--link MAQUINAS_ABIERTO_FINAL to *end*--><g class="link" data-entity-1="MAQUINAS_ABIERTO_FINAL" data-entity-2=".end." data-source-line="68" data-uid="lnk15" id="link_MAQUINAS_ABIERTO_FINAL_.end."><path d="M506.67,1046.6669 C506.67,1079.7769 506.67,1119.4569 506.67,1140.2169" fill="none" id="MAQUINAS_ABIERTO_FINAL-to-*end*" style="stroke:#0000FF;stroke-width:1;"/><polygon fill="#0000FF" points="506.67,1146.2169,510.67,1137.2169,506.67,1141.2169,502.67,1137.2169,506.67,1146.2169" style="stroke:#0000FF;stroke-width:1;"/></g><!--SRC=[hLNBRjim4BphAnRk9IaIDxqQGG3LS043URH9UWg2W1PfPs6AL4WgQ53qOthiiSWd-CTAKfH3lMoWg4_MaZkxCxDQ6JISmOoY8GekDh-UIXGaqMiK1L4a1o4fqwo0ZoSdKLGHiUv6EGfcNWe6Kfb76Hry8PIYMDdhIQ8DCGmkqg_VvfVfpKFwQJwxlhrwc5_Ef_Fq78Y6KVjmr4mAuJI-MyT6G_YVxTCGUdBt_XwExzwj56FY_lXiiBia6Uox9ttRvmIOr_U2U7KF3XCXRO-SBGr8uMHR9s1_fukpcx9WwXcrLA0bnyocdNvOd0K0u5839KPgVvyoA0M1FBW6x3jgmuHXuosS2-G42cLD53KMXwLKUSc9Gkb0B7Y6crVXipBNKLq6I6PAmfbs21bHAqAb7YTCK70KaW5ZVdYawcpcmAK8tBq3ir3FrQv7RjHDkSL2wblCrinqqlnPzSUTnzbJAPQeSjAk-XRlbFRPxI5eDkwlUDiKhXwjRyk-2rqNSqbnYLcbVDE-O26F73mGCbyeTWJ6yhjcsYZCN8t3SGC-kFfCED8MCg0mIj8oG- -KotXpopsr_EXX7EjUZsuKi-Ex1wVFWGciIg9e_18CInfLYtdVNHNkbF1xptcFq4x2Xj2ceaHH5rBWmatrWS3D7ta4X9RSI910yeNKXzki5z1bDVjOgpdimLF9W738cR3LIx6zxHg9wbjNDx_jynA5zMY7HR4F_qVUdim-Jegjx3_r9cLcPS7XgQrKClKhMV7i8zRNUSpCleB9p-sItQwJdQkvMkmJjxSyjWhgxTooWMYTqoOQnAI1yejJn6vGukpbDjUUEAAr08sDsDEyOdHtwqHaZ7Sw3xOrMv-cbzFPUNezSJtl-sfeEvmsXAAUZiw7mNxSxLetNGNYDVBF8hIfMYqMl6J1why0]--></g></svg>