<svg xmlns="http://www.w3.org/2000/svg" xmlns:xlink="http://www.w3.org/1999/xlink" contentStyleType="text/css" data-diagram-type="STATE" height="1077px" preserveAspectRatio="none" style="width:1124px;height:1077px;background:#FFFFFF;" version="1.1" viewBox="0 0 1124 1077" width="1124px" zoomAndPan="magnify"><title>Reactivar Máquina</title><defs/><g><g class="title" data-source-line="1"><text fill="#000000" font-family="sans-serif" font-size="14" font-weight="bold" lengthAdjust="spacing" textLength="147.4443" x="481.458" y="32.9951">Reactivar Máquina</text></g><g id="MAQUINAS_ABIERTO_INICIAL"><rect fill="#F1F1F1" height="76.2969" rx="12.5" ry="12.5" style="stroke:#181818;stroke-width:0.5;" width="184.4434" x="493.67" y="183.2969"/><line style="stroke:#181818;stroke-width:0.5;" x1="493.67" x2="678.1134" y1="229.5938" y2="229.5938"/><text fill="#000000" font-family="sans-serif" font-size="14" lengthAdjust="spacing" textLength="144.4434" x="513.67" y="211.292">MAQUINAS_ABIERTO</text></g><path d="M266.17,359.2969 L905.1148,359.2969 A12.5,12.5 0 0 1 917.6148,371.7969 L917.6148,405.5938 L253.67,405.5938 L253.67,371.7969 A12.5,12.5 0 0 1 266.17,359.2969" fill="#F1F1F1"/><rect fill="none" height="414.2969" rx="12.5" ry="12.5" style="stroke:#181818;stroke-width:0.5;" width="663.9448" x="253.67" y="359.2969"/><line style="stroke:#181818;stroke-width:0.5;" x1="253.67" x2="917.6148" y1="405.5938" y2="405.5938"/><text fill="#000000" font-family="sans-serif" font-size="14" lengthAdjust="spacing" textLength="134.1143" x="518.5853" y="387.292">MAQUINA_ABIERTA</text><g id="MAQUINA_ABIERTA.VisualizacionMaquina"><rect fill="#F1F1F1" height="76.2969" rx="12.5" ry="12.5" style="stroke:#181818;stroke-width:0.5;" width="217.1055" x="325.17" y="495.0938"/><line style="stroke:#181818;stroke-width:0.5;" x1="325.17" x2="542.2755" y1="541.3906" y2="541.3906"/><text fill="#000000" font-family="sans-serif" font-size="14" lengthAdjust="spacing" textLength="177.1055" x="345.17" y="523.0889">Visualización de Máquina</text></g><g id="MAQUINA_ABIERTA.ConfirmacionReactivacion"><rect fill="#F1F1F1" height="76.2969" rx="12.5" ry="12.5" style="stroke:#181818;stroke-width:0.5;" width="249.3164" x="309.17" y="629.5938"/><line style="stroke:#181818;stroke-width:0.5;" x1="309.17" x2="558.4864" y1="675.8906" y2="675.8906"/><text fill="#000000" font-family="sans-serif" font-size="14" lengthAdjust="spacing" textLength="209.3164" x="329.17" y="657.5889">Confirmación de Reactivación</text></g><ellipse cx="433.67" cy="426.5938" fill="#222222" rx="10" ry="10" style="stroke:#222222;stroke-width:1;"/><ellipse cx="433.67" cy="752.5938" fill="none" rx="11" ry="11" style="stroke:#222222;stroke-width:1;"/><ellipse cx="433.67" cy="752.5938" fill="#222222" rx="6" ry="6" style="stroke:#222222;stroke-width:1;"/><g class="entity" data-entity="GMN2" data-source-line="27" data-uid="ent0003" id="entity_GMN2"><path d="M560.17,472.5938 L560.17,529.5938 L542.52,533.5938 L560.17,537.5938 L560.17,593.3906 A0,0 0 0 0 560.17,593.3906 L885.1641,593.3906 A0,0 0 0 0 885.1641,593.3906 L885.1641,482.5938 L875.1641,472.5938 L560.17,472.5938 A0,0 0 0 0 560.17,472.5938" fill="#FEFFDD" style="stroke:#181818;stroke-width:0.5;"/><path d="M875.1641,472.5938 L875.1641,482.5938 L885.1641,482.5938 L875.1641,472.5938" fill="#FEFFDD" style="stroke:#181818;stroke-width:0.5;"/><text fill="#000000" font-family="sans-serif" font-size="13" font-weight="bold" lengthAdjust="spacing" textLength="124.1855" x="576.17" y="499.6606">Sistema muestra</text><text fill="#000000" font-family="sans-serif" font-size="13" lengthAdjust="spacing" textLength="155.6763" x="704.4879" y="499.6606">los datos de la máquina</text><text fill="#000000" font-family="sans-serif" font-size="13" lengthAdjust="spacing" textLength="266.2017" x="576.17" y="514.7935">y advierte que la reactivación restaurará</text><text fill="#000000" font-family="sans-serif" font-size="13" lengthAdjust="spacing" textLength="207.6064" x="576.17" y="529.9263">los vínculos suspendidos con su</text><text fill="#000000" font-family="sans-serif" font-size="13" lengthAdjust="spacing" textLength="188.519" x="576.17" y="545.0591">plaza y motorario asignados.</text><text fill="#000000" font-family="sans-serif" font-size="13" font-weight="bold" lengthAdjust="spacing" textLength="192.8545" x="576.17" y="560.1919">Supervisor puede solicitar</text><text fill="#000000" font-family="sans-serif" font-size="13" lengthAdjust="spacing" textLength="62.8481" x="773.1568" y="560.1919">confirmar</text><text fill="#000000" font-family="sans-serif" font-size="13" lengthAdjust="spacing" textLength="217.1025" x="576.17" y="575.3247">mediante ejecutarReactivacion().</text></g><g class="entity" data-entity="GMN5" data-source-line="37" data-uid="ent0006" id="entity_GMN5"><path d="M576.67,630.0938 L576.67,663.5938 L558.46,667.5938 L576.67,671.5938 L576.67,705.4922 A0,0 0 0 0 576.67,705.4922 L908.6148,705.4922 A0,0 0 0 0 908.6148,705.4922 L908.6148,640.0938 L898.6148,630.0938 L576.67,630.0938 A0,0 0 0 0 576.67,630.0938" fill="#FEFFDD" style="stroke:#181818;stroke-width:0.5;"/><path d="M898.6148,630.0938 L898.6148,640.0938 L908.6148,640.0938 L898.6148,630.0938" fill="#FEFFDD" style="stroke:#181818;stroke-width:0.5;"/><text fill="#000000" font-family="sans-serif" font-size="13" font-weight="bold" lengthAdjust="spacing" textLength="108.6401" x="592.67" y="657.1606">Sistema marca</text><text fill="#000000" font-family="sans-serif" font-size="13" lengthAdjust="spacing" textLength="160.2466" x="705.4425" y="657.1606">la máquina como activa.</text><text fill="#000000" font-family="sans-serif" font-size="13" font-weight="bold" lengthAdjust="spacing" textLength="125.8232" x="592.67" y="672.2935">Sistema restaura</text><text fill="#000000" font-family="sans-serif" font-size="13" lengthAdjust="spacing" textLength="160.9893" x="722.6256" y="672.2935">los vínculos suspendidos</text><text fill="#000000" font-family="sans-serif" font-size="13" lengthAdjust="spacing" textLength="235.1362" x="592.67" y="687.4263">con su plaza y motorario asignados.</text></g><!--link *start*MAQUINA_ABIERTA to VisualizacionMaquina--><g class="link" data-entity-1=".start.MAQUINA_ABIERTA" data-entity-2="VisualizacionMaquina" data-source-line="25" data-uid="lnk6" id="link_.start.MAQUINA_ABIERTA_VisualizacionMaquina"><path d="M433.67,436.8038 C433.67,450.1338 433.67,468.2038 433.67,488.9438" fill="none" id="*start*MAQUINA_ABIERTA-to-VisualizacionMaquina" style="stroke:#008000;stroke-width:1;"/><polygon fill="#008000" points="433.67,494.9438,437.67,485.9438,433.67,489.9438,429.67,485.9438,433.67,494.9438" style="stroke:#008000;stroke-width:1;"/></g><!--link VisualizacionMaquina to ConfirmacionReactivacion--><g class="link" data-entity-1="VisualizacionMaquina" data-entity-2="ConfirmacionReactivacion" data-source-line="35" data-uid="lnk7" id="link_VisualizacionMaquina_ConfirmacionReactivacion"><path d="M433.67,571.2738 C433.67,589.4538 433.67,605.1338 433.67,623.3138" fill="none" id="VisualizacionMaquina-to-ConfirmacionReactivacion" style="stroke:#008000;stroke-width:1;"/><polygon fill="#008000" points="433.67,629.3138,437.67,620.3138,433.67,624.3138,429.67,620.3138,433.67,629.3138" style="stroke:#008000;stroke-width:1;"/><text fill="#000000" font-family="sans-serif" font-size="13" lengthAdjust="spacing" textLength="147.0117" x="275.67" y="586.3606">ejecutarReactivacion()</text></g><!--link ConfirmacionReactivacion to *end*MAQUINA_ABIERTA--><g class="link" data-entity-1="ConfirmacionReactivacion" data-entity-2=".end.MAQUINA_ABIERTA" data-source-line="42" data-uid="lnk9" id="link_ConfirmacionReactivacion_.end.MAQUINA_ABIERTA"><path d="M433.67,705.6138 C433.67,718.7038 433.67,726.3538 433.67,735.5538" fill="none" id="ConfirmacionReactivacion-to-*end*MAQUINA_ABIERTA" style="stroke:#008000;stroke-width:1;"/><polygon fill="#008000" points="433.67,741.5538,437.67,732.5538,433.67,736.5538,429.67,732.5538,433.67,741.5538" style="stroke:#008000;stroke-width:1;"/></g><g id="MAQUINAS_ABIERTO_FINAL"><rect fill="#F1F1F1" height="76.2969" rx="12.5" ry="12.5" style="stroke:#181818;stroke-width:0.5;" width="184.4434" x="493.67" y="873.2969"/><line style="stroke:#181818;stroke-width:0.5;" x1="493.67" x2="678.1134" y1="919.5938" y2="919.5938"/><text fill="#000000" font-family="sans-serif" font-size="14" lengthAdjust="spacing" textLength="144.4434" x="513.67" y="901.292">MAQUINAS_ABIERTO</text></g><ellipse cx="585.67" cy="73.2969" fill="#222222" rx="10" ry="10" style="stroke:#222222;stroke-width:1;"/><ellipse cx="585.67" cy="1060.2969" fill="none" rx="11" ry="11" style="stroke:#222222;stroke-width:1;"/><ellipse cx="585.67" cy="1060.2969" fill="#222222" rx="6" ry="6" style="stroke:#222222;stroke-width:1;"/><!--link *start* to MAQUINAS_ABIERTO_INICIAL--><g class="link" data-entity-1=".start." data-entity-2="MAQUINAS_ABIERTO_INICIAL" data-source-line="11" data-uid="lnk3" id="link_.start._MAQUINAS_ABIERTO_INICIAL"><path d="M585.67,83.4669 C585.67,103.6469 585.67,143.6769 585.67,176.9969" fill="none" id="*start*-to-MAQUINAS_ABIERTO_INICIAL" style="stroke:#008000;stroke-width:1;"/><polygon fill="#008000" points="585.67,182.9969,589.67,173.9969,585.67,177.9969,581.67,173.9969,585.67,182.9969" style="stroke:#008000;stroke-width:1;"/></g><!--link MAQUINAS_ABIERTO_INICIAL to MAQUINA_ABIERTA--><g class="link" data-entity-1="MAQUINAS_ABIERTO_INICIAL" data-entity-2="MAQUINA_ABIERTA" data-source-line="13" data-uid="lnk4" id="link_MAQUINAS_ABIERTO_INICIAL_MAQUINA_ABIERTA"><path d="M585.67,259.5369 C585.67,285.0669 585.67,314.8569 585.67,353.0169" fill="none" id="MAQUINAS_ABIERTO_INICIAL-to-MAQUINA_ABIERTA" style="stroke:#008000;stroke-width:1;"/><polygon fill="#008000" points="585.67,359.0169,589.67,350.0169,585.67,354.0169,581.67,350.0169,585.67,359.0169" style="stroke:#008000;stroke-width:1;"/><path d="M105.67,214.2769 L105.67,304.2769 L434.67,304.2769 L434.67,224.2769 L424.67,214.2769 L105.67,214.2769" fill="#FEFFDD" style="stroke:#181818;stroke-width:0.5;"/><path d="M424.67,214.2769 L424.67,224.2769 L434.67,224.2769 L424.67,214.2769" fill="#FEFFDD" style="stroke:#181818;stroke-width:0.5;"/><text fill="#000000" font-family="sans-serif" font-size="13" font-weight="bold" lengthAdjust="spacing" textLength="136.4175" x="121.67" y="241.3438">Supervisor solicita</text><text fill="#000000" font-family="sans-serif" font-size="13" lengthAdjust="spacing" textLength="147.8179" x="262.2198" y="241.3438">reactivar una máquina</text><text fill="#000000" font-family="sans-serif" font-size="13" lengthAdjust="spacing" textLength="88.8799" x="121.67" y="256.4766">dada de baja.</text><text fill="#000000" font-family="sans-serif" font-size="13" font-weight="bold" lengthAdjust="spacing" textLength="128.7622" x="121.67" y="271.6094">Sistema presenta</text><text fill="#000000" font-family="sans-serif" font-size="13" lengthAdjust="spacing" textLength="144.4155" x="254.5645" y="271.6094">la ficha de la máquina</text><text fill="#000000" font-family="sans-serif" font-size="13" lengthAdjust="spacing" textLength="277.4561" x="121.67" y="286.7422">con la opción de confirmar la reactivación.</text><text fill="#000000" font-family="sans-serif" font-size="13" lengthAdjust="spacing" textLength="123.8047" x="451.0377" y="264.043">reactivarMaquina()</text></g><!--link MAQUINA_ABIERTA to MAQUINAS_ABIERTO_FINAL--><g class="link" data-entity-1="MAQUINA_ABIERTA" data-entity-2="MAQUINAS_ABIERTO_FINAL" data-source-line="45" data-uid="lnk10" id="link_MAQUINA_ABIERTA_MAQUINAS_ABIERTO_FINAL"><path d="M555,773.4569 C555,811.6669 555,841.5069 555,867.0669" fill="none" id="MAQUINA_ABIERTA-to-MAQUINAS_ABIERTO_FINAL" style="stroke:#008000;stroke-width:1;"/><polygon fill="#008000" points="555,873.0669,559,864.0669,555,868.0669,551,864.0669,555,873.0669" style="stroke:#008000;stroke-width:1;"/><path d="M6,828.2569 L6,888.2569 L371,888.2569 L371,838.2569 L361,828.2569 L6,828.2569" fill="#FEFFDD" style="stroke:#181818;stroke-width:0.5;"/><path d="M361,828.2569 L361,838.2569 L371,838.2569 L361,828.2569" fill="#FEFFDD" style="stroke:#181818;stroke-width:0.5;"/><text fill="#000000" font-family="sans-serif" font-size="13" font-weight="bold" lengthAdjust="spacing" textLength="128.1655" x="22" y="855.3238">Sistema confirma</text><text fill="#000000" font-family="sans-serif" font-size="13" lengthAdjust="spacing" textLength="192.6514" x="154.2979" y="855.3238">la reactivación de la máquina</text><text fill="#000000" font-family="sans-serif" font-size="13" lengthAdjust="spacing" textLength="216.9692" x="22" y="870.4566">y regresa al listado de máquinas.</text><text fill="#000000" font-family="sans-serif" font-size="13" lengthAdjust="spacing" textLength="156.457" x="387.9492" y="862.8902">confirmarReactivacion()</text></g><!--link MAQUINA_ABIERTA to MAQUINAS_ABIERTO_FINAL--><g class="link" data-entity-1="MAQUINA_ABIERTA" data-entity-2="MAQUINAS_ABIERTO_FINAL" data-source-line="51" data-uid="lnk11" id="link_MAQUINA_ABIERTA_MAQUINAS_ABIERTO_FINAL"><path d="M616.33,773.4569 C616.33,811.6669 616.33,841.5069 616.33,867.0669" fill="none" id="MAQUINA_ABIERTA-to-MAQUINAS_ABIERTO_FINAL-1" style="stroke:#FF0000;stroke-width:1;"/><polygon fill="#FF0000" points="616.33,873.0669,620.33,864.0669,616.33,868.0669,612.33,864.0669,616.33,873.0669" style="stroke:#FF0000;stroke-width:1;"/><text fill="#000000" font-family="sans-serif" font-size="13" lengthAdjust="spacing" textLength="149.0303" x="627.33" y="878.023">cancelarReactivacion()</text><path d="M792.3603,828.2569 L792.3603,918.2569 L1117.3603,918.2569 L1117.3603,838.2569 L1107.3603,828.2569 L792.3603,828.2569" fill="#FEFFDD" style="stroke:#181818;stroke-width:0.5;"/><path d="M1107.3603,828.2569 L1107.3603,838.2569 L1117.3603,838.2569 L1107.3603,828.2569" fill="#FEFFDD" style="stroke:#181818;stroke-width:0.5;"/><text fill="#000000" font-family="sans-serif" font-size="13" font-weight="bold" lengthAdjust="spacing" textLength="82.4561" x="808.3603" y="855.3238">CANCELAR:</text><text fill="#000000" font-family="sans-serif" font-size="13" font-weight="bold" lengthAdjust="spacing" textLength="136.4175" x="808.3603" y="870.4566">Supervisor solicita</text><text fill="#000000" font-family="sans-serif" font-size="13" lengthAdjust="spacing" textLength="143.8633" x="948.9101" y="870.4566">cancelar la operación.</text><text fill="#000000" font-family="sans-serif" font-size="13" font-weight="bold" lengthAdjust="spacing" textLength="132.5645" x="808.3603" y="885.5894">Sistema mantiene</text><text fill="#000000" font-family="sans-serif" font-size="13" lengthAdjust="spacing" textLength="128.1147" x="945.0571" y="885.5894">la máquina inactiva</text><text fill="#000000" font-family="sans-serif" font-size="13" lengthAdjust="spacing" textLength="216.9692" x="808.3603" y="900.7222">y regresa al listado de máquinas.</text></g><!--link MAQUINAS_ABIERTO_FINAL to *end*--><g class="link" data-entity-1="MAQUINAS_ABIERTO_FINAL" data-entity-2=".end." data-source-line="59" data-uid="lnk13" id="link_MAQUINAS_ABIERTO_FINAL_.end."><path d="M585.67,949.6669 C585.67,982.7769 585.67,1022.4569 585.67,1043.2169" fill="none" id="MAQUINAS_ABIERTO_FINAL-to-*end*" style="stroke:#0000FF;stroke-width:1;"/><polygon fill="#0000FF" points="585.67,1049.2169,589.67,1040.2169,585.67,1044.2169,581.67,1040.2169,585.67,1049.2169" style="stroke:#0000FF;stroke-width:1;"/></g><!--SRC=[dLJRQjj047tNLopkIrA8cxwQO51D2eRORPssBo64iJIsDvPsbRqOdDAFoGVqgP_W7-kih5tBifH01JRIxipPC-VCZk4cGpP3I0pVW6AJtSkJvG8YlUQY00Kv4p95ZGNxU7bPMrKWrgUh6HTejWKogSnArZQ-GffoiQJmAD863B99_Et7U1hVFiIVnjUpxryUnjFnQ1pVCD2irzpi7ITLot4zrg_rkl0_qrSNUdJt_fvTtBrRAaHnVp7iP1T5dRnRqWFF0LDUuWcK0f-THq8IpGmNXadXb5j7Z9wh-V3M5gWsN4l5jCnumWrSVPWF3nZC2c2vjyfbfP02Iv7DuH7w0OThWpcmGf61eWB9W2ruiYgZimPAueW0aqN2Tt-5Yw2L1LSv7Kdh_lnojn-XI9ch8UemvrU9kT_xoRM5Z3zJhXIL1AKNjOtgID-2lLhwgABXicU11R5r48VD2c5MvqdcEfocmMs4oi3I5SMNAx9bqHtMa3Ytg8sg59QQ_33k_rHYzsmPf1kEYWvwidYYB7rHrLQ1shs470UwsVqHYNLlskg2vESflJlJj0s1HGRFG4VaqaY2u98quai15De_Odveii8YCVMjfieYWl4X9yUKWo3E-8Y9fRYw4MVdU_13JxYlLjVhBdJwEkWufSMYBenMcq0buHfuNwZMd5Gg4_jjMTwFu6wh4I5pRyZRHXnhrIb5NI_gukXtc47XfhqwkVPpRt1mjA5eznYgolU9NhVZPctfyIs541zDDpmZH18lbIxE1-dwx6YfHM7wUYKW4ipQ2wdQuhYIKJmTNT_4iu4huQqfwz7tan2L7tSdhIGCHu4dtKI_ajL_Iz4ic1IPPnOh__y1]--></g></svg>